<?xml version="1.0" encoding="utf-8"?>
<!-- Generator: Adobe Illustrator 26.3.1, SVG Export Plug-In . SVG Version: 6.00 Build 0)  -->
<svg version="1.1" id="Layer_1" xmlns="http://www.w3.org/2000/svg" xmlns:xlink="http://www.w3.org/1999/xlink" x="0px" y="0px"
	 viewBox="0 0 64 33" style="enable-background:new 0 0 64 33;" xml:space="preserve">
<style type="text/css">
	.st0{fill:#FFFFFF;}
</style>
<g>
	<path class="st0" d="M11,1v2.6H8.2v7.7H5V3.6H2.3V1L11,1z"/>
	<path class="st0" d="M20.9,1v10.3h-3.2v-4h-3.1v4h-3.2V1h3.2v3.7h3.1V1H20.9z"/>
	<path class="st0" d="M26.5,11.3l-1.9-3.7v3.7h-3.2V1h4.8c0.7,0,1.5,0.1,2.1,0.4s1,0.7,1.3,1.2S30,3.7,30,4.3c0,0.7-0.2,1.3-0.6,1.8
		s-1,0.9-1.6,1.1l2.2,3.9L26.5,11.3z M24.6,5.5h1.3c0.3,0,0.5-0.1,0.7-0.2c0.2-0.2,0.2-0.4,0.2-0.7c0-0.2-0.1-0.5-0.2-0.6
		c-0.2-0.2-0.4-0.3-0.7-0.2h-1.3V5.5z"/>
	<path class="st0" d="M33.8,3.6v1.3H37v2.4h-3.2v1.5h3.6v2.6h-6.8V1h6.9v2.6H33.8z"/>
	<path class="st0" d="M41.2,3.6v1.3h3.2v2.4h-3.2v1.5h3.6v2.6H38V1h6.9v2.6H41.2z"/>
	<path class="st0" d="M8.3,21H4.9l-0.5,1.5H1l3.8-10.3h3.7l3.8,10.3H8.8L8.3,21z M7.6,18.6l-0.9-2.9l-0.9,2.9H7.6z"/>
	<path class="st0" d="M17.4,22.6l-1.9-3.7v3.7h-3.2V12.3H17c0.7,0,1.5,0.1,2.1,0.5c0.6,0.3,1,0.7,1.3,1.2s0.5,1.1,0.5,1.7
		c0,0.7-0.2,1.3-0.6,1.8c-0.4,0.6-1,1-1.7,1.2l2.3,3.9L17.4,22.6z M15.5,16.7h1.3c0.3,0,0.5-0.1,0.7-0.2c0.2-0.2,0.3-0.4,0.2-0.7
		c0-0.2-0.1-0.5-0.2-0.6C17.3,15,17.1,15,16.8,15h-1.3L15.5,16.7z"/>
	<path class="st0" d="M26.5,22.6l-1.9-3.7v3.7h-3.2V12.3h4.8c0.7,0,1.5,0.1,2.1,0.5c0.6,0.3,1,0.7,1.3,1.2s0.5,1.1,0.5,1.7
		c0,0.7-0.2,1.3-0.6,1.8c-0.4,0.6-1,1-1.6,1.2l2.2,3.9L26.5,22.6z M24.5,16.7h1.3c0.3,0,0.5-0.1,0.7-0.2c0.2-0.2,0.3-0.4,0.2-0.7
		c0-0.2-0.1-0.5-0.2-0.6C26.3,15,26.1,15,25.8,15h-1.3V16.7z"/>
	<path class="st0" d="M32.6,22c-0.8-0.4-1.5-1.1-1.9-1.9c-0.9-1.7-0.9-3.7,0-5.4c0.5-0.8,1.1-1.4,1.9-1.9c1.7-0.9,3.7-0.9,5.3,0
		c0.8,0.4,1.5,1.1,1.9,1.9c0.9,1.7,0.9,3.7,0,5.4c-0.4,0.8-1.1,1.4-1.9,1.9C36.3,22.9,34.3,22.9,32.6,22z M36.8,19.1
		c0.7-1,0.7-2.3,0-3.4c-0.4-0.4-0.9-0.7-1.5-0.6c-0.6,0-1.1,0.2-1.5,0.6c-0.7,1-0.7,2.3,0,3.4c0.4,0.4,0.9,0.6,1.5,0.6
		S36.4,19.5,36.8,19.1z"/>
	<path class="st0" d="M55,12.3l-2.4,10.3h-4l-1.2-5.8l-1.2,5.8h-4l-2.3-10.3h3.5l0.9,6.5l1.4-6.5h3.5l1.4,6.5l0.9-6.5H55z"/>
	<path class="st0" d="M56,21.8c-0.8-0.6-1.3-1.5-1.3-2.5h3.4c0,0.6,0.3,0.9,0.8,0.9c0.2,0,0.3,0,0.4-0.1s0.2-0.2,0.2-0.4
		c0-0.3-0.2-0.5-0.4-0.6c-0.4-0.2-0.8-0.4-1.1-0.5c-0.6-0.2-1.1-0.4-1.6-0.7c-0.4-0.2-0.8-0.6-1.1-1c-0.3-0.5-0.5-1.1-0.5-1.6
		c0-0.6,0.2-1.2,0.5-1.7c0.4-0.5,0.8-0.8,1.4-1s1.3-0.4,2-0.4c1.1-0.1,2.1,0.3,3,0.9c0.8,0.6,1.2,1.5,1.2,2.5h-3.5
		c0-0.2-0.1-0.5-0.2-0.6s-0.3-0.2-0.5-0.2c-0.1,0-0.3,0-0.3,0.1c-0.1,0.1-0.1,0.2-0.1,0.4s0.2,0.5,0.4,0.6c0.4,0.2,0.8,0.4,1.2,0.5
		c0.6,0.2,1.1,0.4,1.6,0.7c0.4,0.2,0.8,0.5,1.1,0.9s0.5,1,0.5,1.5c0,0.6-0.2,1.2-0.5,1.7s-0.8,0.9-1.3,1.2c-0.7,0.3-1.4,0.5-2.1,0.4
		C58,22.8,56.9,22.5,56,21.8L56,21.8z"/>
	<path class="st0" d="M3,29.3c0.2-0.1,0.4-0.2,0.7-0.2c0.2,0,0.3,0,0.5,0.1c0.1,0.1,0.2,0.1,0.3,0.3c0.1,0.1,0.1,0.3,0.1,0.4
		c0,0.3-0.2,0.5-0.4,0.6c0.1,0,0.3,0.1,0.4,0.2s0.1,0.3,0.1,0.5c0,0.1,0,0.3-0.1,0.4s-0.2,0.2-0.3,0.3C4.1,32,4,32,3.8,32
		s-0.5-0.1-0.7-0.2c-0.2-0.2-0.3-0.4-0.3-0.7h0.5c0,0.1,0,0.2,0.1,0.3s0.2,0.1,0.3,0.1s0.2,0,0.3-0.1s0.1-0.2,0.1-0.3s0-0.3-0.2-0.3
		c-0.1-0.1-0.3-0.1-0.5-0.1v-0.5h0.1c0.4,0,0.6-0.1,0.6-0.4c0-0.1,0-0.2-0.1-0.3c-0.1,0-0.2,0-0.3,0s-0.2,0-0.3,0.1
		s-0.1,0.2-0.1,0.2H2.7C2.7,29.6,2.8,29.4,3,29.3z"/>
	<path class="st0" d="M7.2,31.4H6.1l-0.2,0.5H5.3l1-2.7H7l1,2.7H7.3L7.2,31.4z M7,31l-0.4-1.1L6.2,31H7z"/>
	<path class="st0" d="M10.1,32l-0.6-1H9.2v1H8.7v-2.7h1c0.2,0,0.4,0,0.5,0.1s0.3,0.2,0.3,0.3c0.1,0.1,0.1,0.3,0.1,0.4
		c0,0.2-0.1,0.3-0.2,0.5s-0.3,0.3-0.5,0.3l0.6,1.1L10.1,32z M9.2,30.5h0.4c0.1,0,0.2,0,0.3-0.1s0.1-0.2,0.1-0.3s0-0.2-0.1-0.3
		s-0.2-0.1-0.3-0.1H9.2V30.5z"/>
	<path class="st0" d="M12.9,32l-0.6-1h-0.2v1h-0.6v-2.7h1c0.2,0,0.4,0,0.5,0.1s0.2,0.2,0.3,0.3s0.1,0.3,0.1,0.4
		c0,0.2-0.1,0.3-0.2,0.5s-0.3,0.3-0.5,0.3l0.6,1.1L12.9,32z M12.1,30.5h0.4c0.1,0,0.2,0,0.3-0.1s0.1-0.2,0.1-0.3s0-0.2-0.1-0.3
		s-0.2-0.1-0.3-0.1h-0.4V30.5z"/>
	<path class="st0" d="M15,31.8c-0.2-0.1-0.4-0.3-0.5-0.5c-0.4-0.7-0.2-1.5,0.5-1.9c0.2-0.1,0.5-0.2,0.7-0.2s0.5,0.1,0.7,0.2
		s0.4,0.3,0.5,0.5c0.3,0.4,0.3,1,0,1.4c-0.1,0.2-0.3,0.4-0.5,0.5C16,32,15.4,32,15,31.8z M16.1,31.4c0.1-0.1,0.2-0.2,0.3-0.3
		s0.1-0.3,0.1-0.5s0-0.3-0.1-0.5c-0.1-0.1-0.2-0.2-0.3-0.3c-0.3-0.1-0.6-0.1-0.9,0c-0.1,0.1-0.2,0.2-0.3,0.3s-0.1,0.3-0.1,0.5
		s0,0.3,0.1,0.5c0.1,0.1,0.2,0.2,0.3,0.3C15.5,31.5,15.9,31.5,16.1,31.4z"/>
	<path class="st0" d="M21.5,29.2l-0.8,2.7h-0.6L19.6,30L19,32h-0.6l-0.7-2.7h0.6l0.5,2.1l0.5-2.1h0.6l0.5,2.1l0.5-2.1L21.5,29.2z"/>
	<path class="st0" d="M22.6,31.9c-0.3-0.1-0.5-0.4-0.5-0.7h0.6c0,0.1,0,0.2,0.1,0.3h0.4c0.1,0,0.2,0,0.3-0.1s0.1-0.1,0.1-0.2
		s0-0.1-0.1-0.2s-0.1-0.1-0.2-0.1L23,30.8l-0.4-0.2c-0.1,0-0.2-0.1-0.3-0.2s-0.1-0.3-0.1-0.4s0-0.3,0.1-0.4s0.2-0.2,0.3-0.3
		c0.2-0.1,0.3-0.1,0.5-0.1s0.5,0.1,0.7,0.2s0.3,0.3,0.3,0.6h-0.6c0-0.1,0-0.2-0.1-0.2c-0.1-0.1-0.2-0.1-0.3-0.1s-0.2,0-0.3,0.1
		s-0.1,0.1-0.1,0.2s0,0.1,0.1,0.2s0.1,0.1,0.2,0.1l0.3,0.1l0.4,0.2c0.1,0.1,0.2,0.1,0.3,0.2s0.1,0.3,0.1,0.4s0,0.3-0.1,0.4
		s-0.2,0.2-0.3,0.3C23.5,32,23.4,32,23.2,32S22.8,32,22.6,31.9z"/>
	<path class="st0" d="M26.9,30.1c-0.1-0.1-0.2-0.2-0.3-0.3s-0.2-0.1-0.4-0.1s-0.3,0-0.4,0.1s-0.2,0.2-0.3,0.3s-0.1,0.3-0.1,0.5
		s0,0.3,0.1,0.5c0.1,0.1,0.2,0.2,0.3,0.3s0.3,0.1,0.4,0.1c0.2,0,0.4-0.1,0.5-0.2s0.2-0.3,0.3-0.5h-0.9v-0.3h1.5V31
		c0,0.2-0.1,0.4-0.2,0.5c-0.1,0.2-0.3,0.3-0.5,0.4s-0.4,0.2-0.6,0.2s-0.5-0.1-0.7-0.2s-0.4-0.3-0.5-0.5c-0.2-0.4-0.2-1,0-1.4
		c0.1-0.2,0.3-0.4,0.5-0.5s0.5-0.2,0.7-0.2c0.3,0,0.6,0.1,0.8,0.2s0.4,0.4,0.5,0.6L26.9,30.1z"/>
	<path class="st0" d="M30,31.4h-1.1l-0.2,0.5h-0.6l1-2.7h0.6l1,2.7h-0.6L30,31.4z M29.9,31l-0.4-1.1L29.1,31H29.9z"/>
	<path class="st0" d="M34.5,29.2v2.7H34v-1.8l-0.7,1.8h-0.4l-0.7-1.8v1.8h-0.5v-2.7h0.6l0.9,2l0.9-2H34.5z"/>
	<path class="st0" d="M35.9,29.7v0.7h0.9v0.4h-0.9v0.7h1v0.4h-1.5v-2.7H37v0.4L35.9,29.7L35.9,29.7z"/>
	<path class="st0" d="M37.8,31.9c-0.1-0.1-0.1-0.1-0.1-0.2s0-0.2,0.1-0.2c0.1-0.1,0.2-0.1,0.2-0.1c0.1,0,0.2,0,0.2,0.1
		c0.1,0.1,0.1,0.1,0.1,0.2s0,0.2-0.1,0.2C38.1,32,38.1,32,38,32C38,32,37.9,31.9,37.8,31.9z"/>
	<path class="st0" d="M39.3,29.9c0.1-0.2,0.3-0.4,0.5-0.5s0.5-0.2,0.7-0.2c0.3,0,0.6,0.1,0.8,0.2c0.2,0.2,0.4,0.4,0.5,0.7h-0.6
		c-0.1-0.1-0.1-0.2-0.3-0.3c-0.1-0.1-0.3-0.1-0.4-0.1s-0.3,0-0.4,0.1s-0.2,0.2-0.3,0.3s-0.1,0.3-0.1,0.5s0,0.3,0.1,0.5l0.3,0.3
		c0.1,0.1,0.3,0.1,0.4,0.1s0.3,0,0.4-0.1l0.3-0.3h0.6c-0.1,0.3-0.3,0.5-0.5,0.7S40.8,32,40.5,32c-0.2,0-0.5-0.1-0.7-0.2
		s-0.4-0.3-0.5-0.5C39.1,30.9,39.1,30.3,39.3,29.9z"/>
	<path class="st0" d="M43.2,31.8c-0.2-0.1-0.4-0.3-0.5-0.5c-0.4-0.7-0.2-1.5,0.5-1.9c0.2-0.1,0.5-0.2,0.7-0.2s0.5,0.1,0.7,0.2
		s0.4,0.3,0.5,0.5c0.4,0.7,0.2,1.5-0.5,1.9c-0.2,0.1-0.5,0.2-0.7,0.2C43.6,32,43.4,31.9,43.2,31.8z M44.3,31.4
		c0.1-0.1,0.2-0.2,0.3-0.3s0.1-0.3,0.1-0.5s0-0.3-0.1-0.5c-0.1-0.1-0.2-0.2-0.3-0.3s-0.3-0.1-0.4-0.1c-0.2,0-0.3,0-0.4,0.1
		s-0.2,0.2-0.3,0.3s-0.1,0.3-0.1,0.5s0,0.3,0.1,0.5l0.3,0.3c0.1,0.1,0.3,0.1,0.4,0.1S44.2,31.5,44.3,31.4z"/>
	<path class="st0" d="M49,29.2v2.7h-0.5v-1.8l-0.7,1.8h-0.4l-0.7-1.8v1.8H46v-2.7h0.6l0.9,2l0.9-2H49z"/>
</g>
</svg>
