<?xml version="1.0" encoding="utf-8"?>
<!-- Generator: Adobe Illustrator 26.3.1, SVG Export Plug-In . SVG Version: 6.00 Build 0)  -->
<svg version="1.1" id="Layer_1" xmlns="http://www.w3.org/2000/svg" xmlns:xlink="http://www.w3.org/1999/xlink" x="0px" y="0px"
	 viewBox="0 0 35 55" style="enable-background:new 0 0 35 55;" xml:space="preserve">
<style type="text/css">
	.st0{fill:#FFFFFF;}
</style>
<g>
	<path class="st0" d="M17.3,46.4c-5.1,0-9.3-4.1-9.4-9.3v-0.2h3.5v0.2c0.2,3.3,2.9,5.8,6.2,5.6c3.1-0.1,5.5-2.6,5.6-5.7
		c0-1.6-0.6-3.1-1.7-4.2c-0.5-0.5-1.1-0.9-1.7-1.2l-0.6-0.3l0.6-0.1c1.2-0.2,2.4-0.6,3.6-1.2l0.1-0.1l0.1,0.1l0.3,0.3
		c3.7,3.7,3.7,9.6,0,13.3C22.2,45.4,19.8,46.4,17.3,46.4z M8.3,37.3c0.1,5,4.2,8.9,9.2,8.8s8.9-4.2,8.8-9.2c-0.1-2.3-1-4.6-2.7-6.2
		l-0.2-0.2c-1,0.5-2,0.8-3,1.1c0.5,0.3,0.9,0.6,1.3,1c2.5,2.5,2.5,6.5,0,8.9s-6.5,2.5-8.9,0c-1.1-1.1-1.8-2.6-1.8-4.2L8.3,37.3z"/>
	<path class="st0" d="M23.5,29.6c-1.1-0.9-2.3-1.5-3.5-1.9l-0.7-0.2l0.7-0.2c1.3-0.4,2.4-1,3.4-1.8l0.1-0.1l0.1,0.1
		c0.9,0.5,1.8,1.1,2.6,1.9l0.2,0.1l-0.2,0.1c-0.8,0.7-1.6,1.3-2.6,1.9L23.5,29.6z M20.7,27.5c1,0.4,2,0.9,2.9,1.6
		c0.8-0.4,1.5-1,2.2-1.6c-0.7-0.6-1.4-1.1-2.2-1.6C22.7,26.6,21.7,27.1,20.7,27.5z"/>
	<path class="st0" d="M23.5,25l-0.1-0.1c-1.1-0.6-2.3-1-3.6-1.2l-0.6-0.1l0.6-0.3c0.7-0.3,1.2-0.7,1.8-1.2c2.3-2.4,2.2-6.1-0.2-8.4
		c-2.3-2.2-5.9-2.2-8.2,0c-1.1,1.1-1.7,2.6-1.7,4.1V18H8v-0.2c0-5.2,4.3-9.3,9.4-9.3c5.2,0,9.3,4.3,9.3,9.4c0,2.5-1,4.8-2.7,6.5
		L23.5,25z M20.4,23.4c1,0.2,2,0.6,3,1.1l0.2-0.2c3.5-3.5,3.6-9.2,0.1-12.7S14.5,8,11,11.5c-1.7,1.6-2.6,3.9-2.7,6.2h2.6
		c0.2-3.5,3.1-6.2,6.6-6c3.5,0.2,6.2,3.1,6,6.6C23.5,20.4,22.3,22.4,20.4,23.4z"/>
	<path class="st0" d="M17.3,42.6c-3,0-5.5-2.4-5.5-5.5v-0.2h4v0.2c0,0.2,0.1,0.4,0.1,0.6c0.1,0.2,0.2,0.4,0.4,0.6s0.4,0.3,0.6,0.4
		c0.7,0.3,1.5,0.1,2-0.4c0.3-0.3,0.5-0.8,0.5-1.3c0-0.2,0-0.5-0.1-0.7s-0.2-0.4-0.4-0.6s-0.4-0.3-0.6-0.4l-4.7-2V21.6l4.7-2
		c0.5-0.2,0.8-0.5,1-1c0.1-0.2,0.1-0.5,0.1-0.7c0-0.5-0.2-0.9-0.5-1.3c-0.2-0.2-0.4-0.3-0.6-0.4c-0.4-0.2-0.9-0.2-1.4,0
		c-0.2,0.1-0.4,0.2-0.6,0.4S16,17,15.9,17.2s-0.1,0.4-0.1,0.6V18h-4.1v-0.2c0.1-3.1,2.6-5.5,5.7-5.4s5.5,2.6,5.4,5.7
		c-0.1,2.9-2.3,5.2-5.2,5.4h-0.5l0.8-0.8l-0.2-0.2l-1.2,1.2l1.2,1.2l0.3-0.3l-0.8-0.8h0.5c1.8,0,3.6,0.5,5.2,1.2l0.3,0.1l-0.3,0.2
		c-1.5,1.1-3.3,1.8-5.2,1.9h-0.5l0.8-0.8l-0.3-0.3l-1.2,1.4l1.2,1.2l0.3-0.3l-0.8-0.8h0.5c1.9,0.1,3.7,0.7,5.2,1.9l0.3,0.2l-0.3,0.1
		c-1.6,0.8-3.4,1.2-5.2,1.2h-0.5l0.8-0.8l-0.3-0.3l-1.2,1.4l1.2,1.2l0.3-0.3l-0.8-0.7h0.5c1.3,0.1,2.6,0.7,3.5,1.6
		c2.2,2.1,2.2,5.7,0.1,7.8C20.3,42,18.8,42.6,17.3,42.6z M12.2,37.3c0.2,2.8,2.6,5,5.4,4.8s5-2.6,4.8-5.4c-0.1-1.3-0.6-2.4-1.5-3.3
		c-0.7-0.7-1.7-1.2-2.7-1.4l0.3,0.3l-0.8,0.8l-1.8-1.8l1.8-1.8l0.8,0.8l-0.3,0.3c1.5-0.1,2.9-0.4,4.2-1c-1.2-0.9-2.7-1.4-4.2-1.5
		l0.3,0.4l-0.8,0.8l-1.8-1.8l1.8-1.8l0.8,0.8l-0.3,0.3c1.5-0.1,3-0.7,4.2-1.5c-1.3-0.6-2.8-0.9-4.2-1l0.3,0.3l-0.8,0.9l-1.8-1.8
		l1.8-1.8l0.8,0.8L18.2,23c1-0.2,2-0.7,2.7-1.4c2-2,2-5.3,0-7.3s-5.3-2-7.3,0c-0.9,0.9-1.4,2.1-1.5,3.3h3.2c0-0.2,0.1-0.4,0.2-0.6
		c0.1-0.3,0.3-0.5,0.5-0.7s0.4-0.4,0.7-0.5c0.5-0.2,1.2-0.2,1.7,0c0.3,0.1,0.5,0.3,0.7,0.5s0.4,0.4,0.5,0.7s0.2,0.6,0.2,0.9
		s-0.1,0.6-0.2,0.9c-0.2,0.5-0.6,0.9-1.2,1.2l-4.5,1.9v11.3l4.5,1.9c0.3,0.1,0.5,0.3,0.7,0.5s0.4,0.4,0.5,0.7s0.2,0.6,0.2,0.8
		c0,0.3-0.1,0.6-0.2,0.8c-0.1,0.3-0.3,0.5-0.5,0.7s-0.4,0.4-0.7,0.5c-0.5,0.2-1.2,0.2-1.7,0c-0.3-0.1-0.5-0.3-0.7-0.5
		s-0.4-0.4-0.5-0.7c-0.1-0.2-0.1-0.4-0.2-0.6L12.2,37.3z"/>
	<path class="st0" d="M17.5,54.4C8,54.4,0.2,46.7,0.2,37.2V37h3.5v0.2c0,7.5,6.1,13.5,13.6,13.5S30.9,44.5,30.8,37
		c0-3.5-1.4-6.8-3.8-9.4l-0.1-0.1l0.1-0.1c5.2-5.4,5.1-14-0.3-19.2S12.8,3.1,7.5,8.5c-2.4,2.5-3.8,5.9-3.8,9.4v0.2H0.1v-0.2
		c0-2.3,0.5-4.6,1.4-6.7c3.7-8.8,13.8-13,22.7-9.3s13,13.8,9.3,22.7c-0.4,1-1,2-1.6,2.9c4.5,6.9,3.6,16-2.2,21.8
		C26.5,52.5,22.1,54.4,17.5,54.4z M0.6,37.4c0.1,4.4,1.8,8.5,4.9,11.6c3.2,3.2,7.5,5,12,5c9.3,0,16.9-7.6,16.9-16.9
		c0-2.3-0.5-4.5-1.3-6.6c-0.4-1-0.9-1.9-1.5-2.8l-0.1-0.2l0.1-0.2c4.5-6.7,3.6-15.6-2.1-21.4c-1.5-1.5-3.4-2.8-5.4-3.6
		c-4.2-1.8-9-1.8-13.2,0C4.7,4.9,0.7,10.9,0.6,17.6h2.8C3.5,9.9,9.8,3.7,17.5,3.8s14,6.5,13.9,14.2c0,3.5-1.4,7-3.9,9.5
		c5.3,5.6,5.1,14.5-0.5,19.8s-14.5,5.1-19.8-0.5c-2.4-2.6-3.8-6-3.9-9.5L0.6,37.4z"/>
	<path class="st0" d="M26.7,27.2l-0.2-0.1c-0.7-0.7-1.6-1.3-2.4-1.8l-0.2-0.1l0.2-0.2l0.2-0.1c3.8-3.8,3.8-10,0-13.8s-10-3.8-13.8,0
		c-1.8,1.8-2.8,4.2-2.9,6.8v0.2H4.2v-0.2c0.1-7.3,6-13.1,13.3-13.1s13,6,13,13.2c0,3.4-1.3,6.6-3.7,9.1L26.7,27.2z M24.5,25.1
		c0.8,0.5,1.5,1,2.2,1.6c4.8-5.2,4.6-13.3-0.6-18.1S12.8,4,8,9.2c-2.2,2.3-3.4,5.3-3.5,8.5h2.6c0.1-5.6,4.8-10,10.4-9.9
		s10,4.8,9.9,10.4C27.4,20.8,26.3,23.3,24.5,25.1z"/>
	<path class="st0" d="M17.3,50.2c-7.3,0-13.2-5.9-13.2-13.1v-0.2h3.5v0.2c0.1,5.4,4.5,9.7,9.8,9.6c5.4-0.1,9.7-4.5,9.6-9.8
		c0-2.5-1.1-5-2.9-6.8l-0.2-0.2l-0.2-0.2l0.2-0.1c0.9-0.5,1.7-1.1,2.4-1.8l0.2-0.1l0.1,0.1c5.1,5.2,4.9,13.6-0.4,18.7
		C24,48.9,20.7,50.2,17.3,50.2z M4.5,37.3c0.1,7.1,6,12.7,13.1,12.5c7.1-0.1,12.7-6,12.5-13.1c-0.1-3.2-1.3-6.2-3.4-8.5
		c-0.7,0.6-1.4,1.1-2.1,1.6c3.9,4,3.9,10.4,0,14.3s-10.4,3.9-14.3,0c-1.8-1.8-2.9-4.3-2.9-6.9H4.5V37.3z"/>
</g>
</svg>
