<svg enable-background="new 0 0 64 64" viewBox="0 0 64 64" xmlns="http://www.w3.org/2000/svg"><g fill="#fff"><path d="m14 16.5c-4 4-4 10.6 0 14.6 1 1 2.1 1.7 3.3 2.2 2.5 1 5.4 1 7.9 0 1.3-.5 2.4-1.3 3.4-2.2l.2-.2.2-.2c-.3-.6-.6-1.3-.8-2s-.4-1.4-.5-2.1c-.2.4-.4.7-.6 1.1-.2.3-.5.7-.8 1-.6.6-1.4 1.1-2.2 1.5-.8.3-1.7.5-2.6.5s-1.8-.2-2.6-.5c-2.6-1.1-4.3-3.6-4.2-6.4 0-3.8 3-6.8 6.8-6.9v-3.4c-3 0-5.6 1.1-7.5 3z"/><path d="m42.8 38.4c8.1 0 14.6-6.5 14.7-14.6 0-3.9-1.5-7.7-4.3-10.4-2.7-2.7-6.4-4.2-10.2-4.2v3.4c1.5 0 2.9.3 4.2.9 5.7 2.4 8.4 8.9 6 14.6-.6 1.3-1.4 2.6-2.4 3.6s-2.3 1.9-3.7 2.4c-4.2 1.7-9 .8-12.2-2.4l-.1-.1-.1-.1c-.3.5-.6 1-1 1.4-.3.5-.7.9-1.1 1.3 2.6 2.7 6.3 4.2 10.2 4.2z"/><path d="m35.5 31.1c1 1 2.1 1.7 3.3 2.2 2.5 1 5.4 1 7.9 0 1.2-.5 2.4-1.3 3.3-2.2 4-4 4-10.5 0-14.6-1.9-1.9-4.5-3-7.2-3v3.4c3.8 0 6.8 3.1 6.8 6.9 0 2.8-1.7 5.3-4.2 6.4-.8.3-1.7.5-2.6.5s-1.8-.2-2.6-.5c-.8-.4-1.6-.9-2.2-1.5-.3-.3-.6-.6-.8-1-.2-.3-.4-.7-.6-1.1-.1.7-.3 1.4-.5 2.1s-.5 1.4-.8 2l.2.2z"/><path d="m32 40c.5.3 1 .7 1.6.9.5.3 1.1.5 1.6.8 1.2.5 2.4.9 3.7 1.1 2.5.5 5.1.5 7.7 0 1.3-.3 2.5-.6 3.7-1.1s2.3-1.1 3.3-1.7c1-.7 2-1.5 2.9-2.4s1.7-1.8 2.4-2.9c.7-1 1.3-2.1 1.8-3.3s.9-2.4 1.1-3.7c.5-2.5.5-5.1 0-7.7-.3-1.3-.6-2.5-1.1-3.7-.5-1.1-1.1-2.2-1.8-3.2s-1.5-2-2.4-2.9-1.8-1.7-2.9-2.4c-2.1-1.4-4.4-2.4-6.9-2.9-1.2-.3-2.5-.4-3.8-.4v3.6c8.6 0 15.5 7 15.4 15.6 0 8.6-7 15.5-15.6 15.4-4 0-7.8-1.6-10.7-4.4-6.1 5.9-15.7 5.8-21.7-.2s-6.1-15.8 0-21.9c2.9-2.9 6.8-4.5 10.9-4.5v-3.3c-1.3 0-2.5.1-3.8.4-2.5.5-4.8 1.5-6.9 2.9-1 .7-2 1.5-2.9 2.4s-1.7 1.8-2.4 2.9c-.7 1-1.3 2.1-1.8 3.3s-.9 2.4-1.1 3.7c-.5 2.5-.5 5.1 0 7.7.2 1.3.6 2.5 1.1 3.7.5 1.1 1.1 2.2 1.8 3.3.7 1 1.5 2 2.4 2.9s1.8 1.7 2.9 2.4c1 .7 2.1 1.3 3.3 1.8 2.4 1 4.9 1.5 7.5 1.5 1.3 0 2.6-.1 3.8-.4 1.3-.3 2.5-.6 3.7-1.1.6-.2 1.1-.5 1.6-.8.5-.7 1.1-1 1.6-1.4z"/><path d="m34.1 30.8c-.5-.6-.9-1.2-1.2-1.8-.3-.7-.6-1.4-.8-2.1-.2.7-.5 1.4-.8 2.1s-.8 1.3-1.2 1.9c.3.5.6 1 .9 1.5s.7.9 1.1 1.3c.4-.4.8-.9 1.1-1.4s.6-1 .9-1.5z"/><path d="m10.9 13.4c-5.7 5.7-5.7 15 0 20.7 5.6 5.6 14.7 5.7 20.5.2-.4-.4-.8-.8-1.1-1.3-.4-.5-.7-.9-1-1.4l-.1.1-.1.1c-3.2 3.1-8 4.1-12.1 2.4-5.7-2.4-8.4-8.9-6-14.6 1.1-2.7 3.3-4.9 6-6 1.3-.6 2.8-.9 4.2-.9v-3.5c-3.8 0-7.5 1.5-10.3 4.2z"/><path d="m34.5 30c.4-.9.8-1.8 1-2.8s.4-2 .4-3l-.3.3-.3.3-.3-.3-.3-.3.8-.9.8-.9.8.9.8.9-.3.3-.3.3-.3-.3-.3-.3c.1.7.2 1.4.5 2.1.3.6.7 1.2 1.2 1.7.6.6 1.2 1 2 1.3 1.5.6 3.1.6 4.6 0 .7-.3 1.4-.7 1.9-1.3.6-.6 1-1.3 1.3-2 .6-1.5.6-3.1 0-4.6s-1.8-2.6-3.2-3.2c-.7-.3-1.5-.5-2.2-.5v4h.4c.1 0 .3.1.4.1.1.1.3.1.4.2s.2.2.3.3.2.2.3.3.1.2.2.4c.2.6.2 1.2 0 1.7-.1.1-.1.3-.2.4s-.2.2-.3.3-.2.2-.3.3-.2.2-.4.2c-.4.2-.9.2-1.3.1-.1 0-.3-.1-.4-.1-.1-.1-.3-.1-.4-.2-.2-.2-.5-.4-.6-.6-.1-.1-.2-.2-.2-.4l-1.1-2.6-1.1-2.6h-13l-1.1 2.6-1.1 2.6c-.1.1-.1.3-.2.4-.2.2-.4.5-.6.6-.1.1-.2.2-.4.2-.1.1-.3.1-.4.1s-.3 0-.5 0c-.3 0-.6-.1-.9-.2-.1-.1-.3-.1-.4-.2s-.2-.2-.3-.3-.2-.2-.3-.3-.1-.2-.2-.4c-.2-.6-.2-1.2 0-1.7.1-.1.1-.3.2-.4l.3-.3.3-.3c.1-.1.2-.2.4-.2.1 0 .3-.1.4-.1h.4v-4c-.8 0-1.5.2-2.2.5-1.5.6-2.6 1.8-3.2 3.2-.6 1.5-.6 3.1 0 4.6.3.8.8 1.5 1.3 2 .6.6 1.3 1 2 1.3 1.5.6 3.1.6 4.6 0 .7-.3 1.4-.7 2-1.3.5-.5.9-1.1 1.2-1.8s.5-1.4.5-2.1l-.3.5-.3.3-.3-.3-.4-.3.9-.9.9-.9.9.9.9.9-.3.3-.3.3-.3-.3-.3-.3c0 1 .2 2 .4 3s.6 1.9 1 2.8c1.3-1.7 2-3.7 2.1-5.8l-.3.3-.6.4-.3-.3-.3-.3.9-.9.8-.9.8.9.8.9-.3.3-.3.3-.3-.3-.3-.3c0 2 .8 4 2 5.7z"/><path d="m10.4 57.7h-3.2l-.5 1.4h-3.1l3.4-9.4h3.4l3.4 9.4h-3.1zm-.8-2.2-.9-2.6-.8 2.6z"/><path d="m18.7 59.2-1.8-3.4v3.4h-3v-9.4h4.4c.7 0 1.4.1 2 .4.5.2.9.6 1.2 1.1s.4 1 .4 1.6c0 1.3-.8 2.4-2 2.7l2 3.6zm-1.8-5.4h1.2c.2 0 .5-.1.6-.2.3-.3.3-.8 0-1.2-.2-.2-.4-.2-.6-.2h-1.2z"/><path d="m26.9 59.2-1.8-3.4v3.4h-3v-9.4h4.4c.7 0 1.4.1 2 .4.5.2.9.6 1.2 1.1s.4 1 .4 1.6-.2 1.2-.5 1.7c-.4.5-.9.8-1.5 1l2 3.6zm-1.8-5.4h1.2c.2 0 .5-.1.6-.2.2-.2.2-.4.2-.6s-.1-.4-.2-.6c-.2-.1-.4-.2-.6-.2h-1.2z"/><path d="m32.6 58.6c-.7-.4-1.3-1-1.8-1.7-.4-.8-.7-1.6-.6-2.5 0-.9.2-1.7.6-2.5.4-.7 1-1.3 1.8-1.7 1.5-.8 3.4-.8 4.9 0 .7.4 1.3 1 1.8 1.7.4.8.7 1.6.7 2.5s-.2 1.7-.7 2.5c-.4.7-1 1.3-1.8 1.7-1.6.9-3.4.9-4.9 0zm3.8-2.7c.6-.9.6-2.1 0-3.1-.3-.4-.9-.6-1.4-.6s-1 .2-1.4.6c-.6.9-.6 2.1 0 3.1.3.4.9.6 1.4.6s1-.2 1.4-.6z"/><path d="m53.1 49.7-2.2 9.4h-3.7l-1.1-5.3-1.1 5.3h-3.7l-2.2-9.4h3.2l.8 5.9 1.3-5.9h3.2l1.2 5.9.9-5.9z"/><path d="m54 58.5c-.7-.5-1.2-1.4-1.2-2.3h3.2c0 .5.3.8.7.8.1 0 .3 0 .4-.1s.2-.2.2-.4-.1-.4-.4-.5c-.4-.2-.7-.3-1.1-.5-.5-.2-1-.4-1.5-.6-.4-.2-.7-.5-1-.9s-.4-1-.4-1.5c0-.6.1-1.1.5-1.6.3-.5.8-.8 1.3-1 .6-.2 1.2-.3 1.8-.3 1-.1 1.9.2 2.8.8.7.5 1.1 1.4 1.1 2.2h-3.2c0-.2-.1-.4-.2-.6-.1-.1-.3-.2-.5-.2-.1 0-.2 0-.3.1-.2.2-.2.3-.2.4 0 .2.2.4.4.5.4.2.7.4 1.1.5l1.5.6c.4.2.7.5 1 .8.3.4.4.9.4 1.4s-.1 1.1-.4 1.5c-.3.5-.7.8-1.2 1.1-.6.3-1.3.4-1.9.4-1.1.2-2.1-.1-2.9-.6z"/></g></svg>