<?xml version="1.0" encoding="utf-8"?>
<!-- Generator: Adobe Illustrator 26.3.1, SVG Export Plug-In . SVG Version: 6.00 Build 0)  -->
<svg version="1.1" id="Layer_1" xmlns="http://www.w3.org/2000/svg" xmlns:xlink="http://www.w3.org/1999/xlink" x="0px" y="0px"
	 viewBox="0 0 29 47" style="enable-background:new 0 0 29 47;" xml:space="preserve">
<style type="text/css">
	.st0{fill:#FFFFFF;}
</style>
<path class="st0" d="M28.1,14c0-7.6-6.1-13.8-13.7-13.8S0.6,6.3,0.6,13.9h0.8c0-7.2,5.9-13,13-13c7.2,0,13,5.9,13,13
	c0,3.4-1.3,6.6-3.7,9c-0.8-0.7-1.6-1.3-2.5-1.8l0.2-0.1c3.9-3.9,3.8-10.2-0.1-14.1S11.1,3.1,7.2,7c-1.8,1.8-2.8,4.3-2.9,6.9h0.8
	c0-5.1,4.2-9.1,9.2-9.1S23.4,9,23.4,14c0,2.4-1,4.7-2.7,6.4l-0.3,0.3c-1.1-0.6-2.3-1-3.6-1.2c3.1-1.4,4.5-5,3.1-8.1s-5-4.5-8.1-3.1
	c-2.2,1-3.6,3.1-3.6,5.5H9c0-2.9,2.5-5.3,5.4-5.3s5.3,2.5,5.3,5.4c0,2.8-2.2,5-5,5.2l0.6-0.6L14.8,18l-1.5,1.5l1.5,1.5l0.5-0.5
	l-0.6-0.6c1.8,0,3.5,0.5,5.1,1.2c-1.5,1.1-3.3,1.8-5.1,1.8l0.6-0.6l-0.5-0.5l-1.6,1.7l1.5,1.5l0.5-0.5l-0.6-0.6
	c1.9,0.1,3.6,0.7,5.1,1.8c-1.6,0.7-3.4,1.2-5.1,1.2l0.6-0.6l-0.5-0.5l-1.5,1.5l1.5,1.5l0.5-0.5l-0.6-0.6c2.9,0.2,5.2,2.8,5,5.7
	s-2.8,5.2-5.7,5c-2.8-0.2-4.9-2.5-5-5.3H8.1c0,3.4,2.8,6.1,6.2,6.1s6.1-2.8,6.1-6.2c0-2.4-1.4-4.6-3.6-5.5c1.3-0.2,2.5-0.7,3.7-1.2
	l0.3,0.3c3.6,3.6,3.6,9.4,0,13s-9.4,3.6-13,0c-1.7-1.7-2.7-4-2.7-6.4H4.3c0.1,5.5,4.6,9.9,10.1,9.8s9.9-4.6,9.8-10.1
	c0-2.6-1.1-5-2.9-6.9l-0.2-0.2c0.9-0.5,1.7-1.1,2.5-1.8c5,5.2,4.9,13.4-0.3,18.4S9.9,47.3,4.9,42.1c-2.3-2.4-3.6-5.6-3.7-9H0.4
	c0,7.6,6.2,13.8,13.8,13.8S28,40.7,28,33.1c0-3.6-1.4-7.1-3.9-9.6C26.7,20.9,28.1,17.5,28.1,14z M20.6,25.3c-1-0.8-2.2-1.5-3.5-1.8
	c1.3-0.4,2.5-1,3.5-1.8c0.9,0.5,1.8,1.1,2.5,1.8C22.3,24.2,21.5,24.8,20.6,25.3z"/>
</svg>
