<?xml version="1.0" encoding="utf-8"?>
<!-- Generator: Adobe Illustrator 26.3.1, SVG Export Plug-In . SVG Version: 6.00 Build 0)  -->
<svg version="1.1" id="Layer_1" xmlns="http://www.w3.org/2000/svg" xmlns:xlink="http://www.w3.org/1999/xlink" x="0px" y="0px"
	 viewBox="0 0 62 33" style="enable-background:new 0 0 62 33;" xml:space="preserve">
<style type="text/css">
	.st0{fill:#FFFFFF;}
</style>
<g>
	<path class="st0" d="M7.6,4.2v1.9H5.5V12H3V6.1H1V4.2H7.6z"/>
	<path class="st0" d="M15,4.2V12h-2.4V9h-2.3v3H7.8V4.2h2.4V7h2.3V4.2H15z"/>
	<path class="st0" d="M19.4,12l-1.5-2.8V12h-2.5V4.2H19c0.6,0,1.1,0.1,1.6,0.3c0.4,0.2,0.8,0.5,1,0.9s0.3,0.8,0.3,1.3
		s-0.1,1-0.4,1.4S20.8,8.8,20.3,9l1.7,3L19.4,12z M17.9,7.6h1c0.2,0,0.4,0,0.5-0.2c0.2-0.3,0.2-0.7,0-1c-0.1-0.1-0.3-0.2-0.5-0.2h-1
		V7.6z"/>
	<path class="st0" d="M24.9,6.2v1h2.4v1.9h-2.4v1.1h2.8v2h-5.2V4.3h5.2v2L24.9,6.2z"/>
	<path class="st0" d="M30.5,6.2v1h2.4v1.9h-2.4v1.1h2.8v2H28V4.3h5.2v2L30.5,6.2z"/>
	<path class="st0" d="M5.6,19.4H3l-0.4,1.2H0l2.9-7.8h2.8l2.8,7.8H5.9L5.6,19.4z M5,17.6l-0.7-2.2l-0.7,2.2H5z"/>
	<path class="st0" d="M12.4,20.6L11,17.8v2.8H8.5v-7.8h3.6c0.6,0,1.1,0.1,1.6,0.3c0.4,0.2,0.8,0.5,1,0.9c0.2,0.4,0.3,0.9,0.3,1.3
		c0,0.5-0.1,1-0.4,1.4c-0.3,0.4-0.8,0.7-1.2,0.9l1.7,3H12.4z M11,16.2h1c0.2,0,0.4,0,0.5-0.2c0.1-0.1,0.2-0.3,0.2-0.5
		s-0.1-0.4-0.2-0.5c-0.1-0.1-0.3-0.2-0.5-0.2h-1V16.2z"/>
	<path class="st0" d="M19.3,20.6l-1.5-2.8v2.8h-2.5v-7.8H19c0.6,0,1.1,0.1,1.6,0.3c0.4,0.2,0.8,0.5,1,0.9s0.4,0.8,0.4,1.3
		s-0.2,1-0.5,1.4c-0.3,0.4-0.8,0.7-1.2,0.9l1.7,3H19.3z M17.8,16.2h1c0.2,0,0.4,0,0.5-0.2c0.1-0.1,0.2-0.3,0.2-0.5s-0.1-0.4-0.2-0.5
		s-0.3-0.2-0.5-0.2h-1V16.2z"/>
	<path class="st0" d="M24,20.1c-0.6-0.3-1.1-0.8-1.5-1.4c-0.7-1.3-0.7-2.8,0-4.1c0.4-0.6,0.9-1.1,1.5-1.4s1.3-0.5,2-0.5
		s1.4,0.2,2,0.5s1.1,0.8,1.5,1.4c0.7,1.3,0.7,2.8,0,4.1c-0.3,0.6-0.9,1.1-1.5,1.4c-0.6,0.4-1.3,0.6-2,0.6S24.6,20.5,24,20.1z
		 M27.1,17.9c0.5-0.8,0.5-1.8,0-2.5c-0.3-0.3-0.7-0.5-1.1-0.5s-0.9,0.1-1.1,0.5c-0.5,0.8-0.5,1.8,0,2.5c0.3,0.3,0.7,0.5,1.1,0.5
		S26.8,18.2,27.1,17.9z"/>
	<path class="st0" d="M41,12.8l-1.8,7.8h-3l-0.9-4.4l-0.9,4.4h-3l-1.8-7.8h2.6l0.7,4.9l1.1-4.9h2.7l0.9,4.9l0.7-4.9L41,12.8z"/>
	<path class="st0" d="M41.7,20c-0.6-0.4-1-1.2-1-1.9h2.6c0,0.5,0.2,0.7,0.6,0.7c0.1,0,0.2,0,0.3-0.1s0.2-0.2,0.1-0.3
		c0-0.2-0.1-0.4-0.3-0.5c-0.3-0.2-0.6-0.3-0.9-0.4c-0.4-0.1-0.8-0.3-1.2-0.5c-0.3-0.2-0.6-0.4-0.8-0.7c-0.2-0.4-0.4-0.8-0.3-1.2
		c0-0.5,0.1-0.9,0.4-1.3s0.6-0.6,1.1-0.8s1-0.2,1.5-0.2c0.8,0,1.6,0.2,2.3,0.7c0.6,0.4,0.9,1.1,0.9,1.9h-2.6c0-0.2,0-0.3-0.2-0.5
		c-0.1-0.1-0.2-0.2-0.4-0.1c-0.1,0-0.2,0-0.2,0.1c-0.1,0.1-0.1,0.2-0.1,0.3c0,0.2,0.1,0.4,0.3,0.4c0.3,0.2,0.6,0.3,0.9,0.4
		c0.4,0.1,0.8,0.3,1.2,0.5c0.3,0.2,0.6,0.4,0.8,0.7s0.4,0.7,0.4,1.1c0,0.5-0.1,0.9-0.3,1.3s-0.6,0.7-1,0.9c-0.7,0.1-1.2,0.2-1.8,0.2
		C43.2,20.7,42.4,20.5,41.7,20z"/>
	<path class="st0" d="M47.4,26.5c0.5,0.5,1.1,0.9,1.8,1.2c2.1,0.9,4.5,0.4,6.1-1.2c0.5-0.5,0.9-1.1,1.2-1.8c0.9-2.1,0.4-4.5-1.2-6.1
		l-0.1-0.1l-0.1-0.1c-0.4,0.2-0.7,0.3-1.1,0.5c-0.4,0.1-0.8,0.2-1.1,0.3c0.2,0.1,0.4,0.2,0.6,0.3s0.4,0.3,0.5,0.4
		c0.4,0.3,0.6,0.8,0.8,1.2c0.2,0.5,0.3,0.9,0.3,1.4s-0.1,1-0.3,1.4c-0.2,0.5-0.5,0.9-0.9,1.2c-0.3,0.4-0.8,0.6-1.2,0.8
		c-0.9,0.4-2,0.4-2.9,0c-0.5-0.2-0.9-0.5-1.2-0.8s-0.6-0.7-0.8-1.2c-0.2-0.4-0.3-0.9-0.3-1.4h-1.8c0,0.7,0.2,1.4,0.4,2.1
		C46.5,25.4,46.9,26,47.4,26.5z"/>
	<path class="st0" d="M59.3,10.8c0-4.4-3.7-8-8.1-7.9c-2.1,0-4,0.8-5.5,2.3s-2.3,3.5-2.3,5.6h1.9c0-0.8,0.2-1.6,0.5-2.3
		s0.7-1.4,1.3-2s1.3-1,2-1.3c1.5-0.6,3.2-0.6,4.7,0c0.7,0.3,1.4,0.8,2,1.3c0.6,0.6,1,1.3,1.3,2c0.9,2.3,0.4,4.9-1.3,6.6
		c0.5,0.3,1.1,0.7,1.5,1.1c0.7-0.7,1.3-1.6,1.7-2.5C59.2,12.8,59.4,11.8,59.3,10.8z"/>
	<path class="st0" d="M55.4,14.8c1.6-1.6,2.1-4,1.2-6.1c-0.3-0.7-0.7-1.3-1.2-1.8c-1.6-1.6-4-2.1-6.1-1.2C48.6,6,48,6.4,47.5,6.9
		S46.6,8,46.3,8.7s-0.4,1.4-0.4,2.1h1.9c0-0.5,0.1-1,0.3-1.4s0.5-0.8,0.8-1.2s0.8-0.6,1.2-0.8C51,7,52.1,7,53,7.4
		c0.5,0.2,0.9,0.5,1.2,0.8C54.6,8.5,54.8,9,55,9.4c0.2,0.5,0.3,0.9,0.3,1.4s-0.1,1-0.3,1.4s-0.5,0.8-0.8,1.2
		c-0.2,0.2-0.3,0.3-0.5,0.4s-0.4,0.2-0.6,0.3c0.4,0.1,0.8,0.2,1.1,0.3C54.6,14.5,54.9,14.7,55.4,14.8C55.3,14.9,55.4,14.8,55.4,14.8
		z"/>
	<path class="st0" d="M60.2,16.7c0.2-0.3,0.4-0.6,0.5-0.9c0.2-0.3,0.3-0.6,0.4-0.9c0.6-1.3,0.8-2.7,0.8-4.1c0-0.7-0.1-1.4-0.2-2.1
		s-0.3-1.4-0.6-2s-0.6-1.2-1-1.8s-0.8-1.1-1.3-1.6s-1-0.9-1.6-1.3S56,1.3,55.4,1s-1.3-0.5-2-0.6c-1.4-0.3-2.8-0.3-4.2,0
		c-0.7,0.1-1.4,0.3-2,0.6c-1.3,0.5-2.4,1.3-3.3,2.2c-0.5,0.5-0.9,1-1.3,1.6s-0.7,1.2-1,1.8c-0.5,1.3-0.8,2.6-0.8,4h1.9
		c0.2-4.7,4.1-8.3,8.8-8.1s8.3,4.1,8.1,8.8c0,0.9-0.2,1.7-0.5,2.6c-0.4,1-1,1.9-1.8,2.7c0.8,0.8,1.4,1.7,1.8,2.7
		c1.7,4.3-0.4,9.2-4.7,11s-9.2-0.4-11-4.7c-0.4-1-0.6-2-0.6-3.1H41c0,0.7,0.1,1.4,0.2,2.1s0.3,1.4,0.6,2c0.5,1.2,1.3,2.4,2.2,3.3
		c1,1,2.1,1.7,3.3,2.2c0.6,0.3,1.3,0.5,2,0.6c2.1,0.4,4.2,0.2,6.2-0.6c0.6-0.3,1.2-0.6,1.8-1s1.1-0.8,1.6-1.3s0.9-1,1.3-1.6
		s0.7-1.2,1-1.8s0.5-1.3,0.6-2c0.3-1.4,0.3-2.8,0-4.2c-0.1-0.7-0.3-1.4-0.6-2c-0.1-0.3-0.3-0.6-0.4-0.9C60.6,17.3,60.4,17,60.2,16.7
		z"/>
	<path class="st0" d="M55.2,15.6c-0.3,0.3-0.6,0.5-1,0.7s-0.7,0.3-1.1,0.5c0.4,0.1,0.8,0.3,1.1,0.5c0.4,0.2,0.7,0.4,1,0.7
		c0.3-0.2,0.6-0.3,0.8-0.5c0.3-0.2,0.5-0.4,0.8-0.6c-0.2-0.2-0.5-0.4-0.8-0.6C55.8,15.9,55.5,15.7,55.2,15.6z"/>
	<path class="st0" d="M45.8,28.2c3.2,3,8.3,2.9,11.3-0.3c2.1-2.2,2.8-5.5,1.7-8.3c-0.4-0.9-0.9-1.8-1.7-2.5
		c-0.2,0.2-0.5,0.4-0.7,0.6s-0.5,0.4-0.8,0.5c0.6,0.6,1,1.2,1.3,2c0.6,1.5,0.6,3.2,0,4.7c-0.3,0.7-0.7,1.4-1.3,2s-1.3,1-2,1.3
		c-1.5,0.6-3.2,0.6-4.7,0c-0.7-0.3-1.4-0.8-2-1.3c-0.6-0.6-1-1.3-1.3-2s-0.5-1.5-0.5-2.3h-1.7C43.4,24.6,44.3,26.6,45.8,28.2z"/>
	<path class="st0" d="M54.8,15.3c-0.5-0.2-1-0.4-1.5-0.5s-1.1-0.2-1.6-0.2l0.2,0.2l0.2,0.2l-0.2,0.2l-0.2,0.2l-0.5-0.5l-0.5-0.5
		l0.5-0.5l0.5-0.5l0.2,0.2l0.2,0.2L51.9,14l-0.2,0.2c0.4,0,0.8-0.1,1.1-0.3c0.4-0.2,0.7-0.4,1-0.7s0.5-0.7,0.7-1.1s0.2-0.8,0.2-1.3
		c0-0.4-0.1-0.9-0.2-1.2c-0.2-0.4-0.4-0.8-0.7-1.1S53.1,8,52.7,7.8c-0.8-0.3-1.7-0.3-2.5,0c-0.4,0.2-0.8,0.4-1.1,0.7
		c-0.6,0.6-1,1.4-1,2.3h2.2v-0.2c0-0.1,0-0.1,0.1-0.2c0-0.1,0.1-0.1,0.1-0.2c0.1-0.1,0.2-0.2,0.3-0.3s0.1-0.1,0.2-0.1
		c0.1-0.1,0.3-0.1,0.5-0.1s0.4,0,0.5,0.1c0.1,0,0.1,0.1,0.2,0.1s0.1,0.1,0.2,0.1c0,0.1,0.1,0.1,0.2,0.2c0,0.1,0.1,0.1,0.1,0.2
		s0.1,0.2,0.1,0.2v0.2c0,0.2,0,0.3-0.1,0.5c0,0.1-0.1,0.1-0.1,0.2s-0.1,0.1-0.2,0.2l-0.2,0.1L52,11.9l-1.4,0.6l-1.4,0.6v7.1l1.4,0.6
		l1.4,0.6l0.2,0.1l0.2,0.2l0.2,0.2c0,0.1,0.1,0.1,0.1,0.2c0.1,0.2,0.1,0.3,0.1,0.5v0.2c0,0.1,0,0.2-0.1,0.2c0,0.1-0.1,0.1-0.1,0.2
		l-0.2,0.2c-0.1,0.1-0.1,0.1-0.2,0.2c-0.1,0-0.1,0.1-0.2,0.1c-0.2,0.1-0.3,0.1-0.5,0.1s-0.4,0-0.5-0.1c-0.1,0-0.1-0.1-0.2-0.1
		c-0.1-0.1-0.2-0.2-0.3-0.3c0-0.1-0.1-0.1-0.1-0.2s-0.1-0.1-0.1-0.2v-0.2h-2.2c0,0.9,0.4,1.7,1,2.3c0.3,0.3,0.7,0.5,1.1,0.7
		s0.8,0.2,1.2,0.2s0.9-0.1,1.3-0.2c0.4-0.2,0.8-0.4,1.1-0.7s0.5-0.7,0.7-1.1s0.2-0.8,0.2-1.2s-0.1-0.9-0.2-1.3
		c-0.2-0.4-0.4-0.8-0.7-1.1s-0.6-0.5-1-0.7s-0.7-0.3-1.1-0.3l0.2,0.2l0.2,0.2l-0.2,0.2l-0.2,0.2l-0.5-0.5l-0.5-0.5l0.5-0.5l0.5-0.5
		l0.2,0.2l0.2,0.2l-0.2,0.2l-0.2,0.2c0.5,0,1.1-0.1,1.6-0.2s1-0.3,1.5-0.5c-0.5-0.3-0.9-0.6-1.5-0.8c-0.5-0.2-1.1-0.3-1.7-0.3
		l0.2,0.2l0.2,0.2l-0.2,0.2l-0.2,0.2l-0.5-0.5l-0.4-0.7l0.5-0.5l0.5-0.5l0.2,0.2l0.2,0.2l-0.2,0.2l-0.2,0.2c0.6,0,1.1-0.1,1.7-0.3
		C53.8,15.9,54.3,15.7,54.8,15.3L54.8,15.3z"/>
	<path class="st0" d="M1.5,25.6c0.1-0.1,0.3-0.2,0.5-0.2c0.1,0,0.3,0,0.4,0.1c0.1,0,0.2,0.1,0.2,0.2c0.1,0.1,0.1,0.2,0.1,0.3
		c0,0.2-0.1,0.4-0.3,0.5c0.1,0,0.2,0.1,0.3,0.2s0.1,0.2,0.1,0.3s0,0.2-0.1,0.3s-0.1,0.2-0.2,0.2c-0.2,0.2-0.4,0.2-0.5,0.2
		c-0.2,0-0.4,0-0.5-0.2c-0.1-0.1-0.2-0.3-0.2-0.5h0.4c0,0.1,0,0.2,0.1,0.2C1.9,27.3,2,27.3,2,27.3c0.1,0,0.2,0,0.2-0.1
		c0.1-0.1,0.1-0.1,0.1-0.2s0-0.2-0.1-0.2c-0.1-0.1-0.2-0.1-0.3-0.1H1.8v-0.3h0.1c0.3,0,0.4-0.1,0.4-0.3c0-0.1,0-0.1-0.1-0.2
		c-0.1,0-0.1-0.1-0.2,0c-0.1,0-0.2,0-0.2,0.1c-0.1,0.1-0.1,0.1-0.1,0.2H1.3C1.3,25.9,1.4,25.8,1.5,25.6z"/>
	<path class="st0" d="M4.7,27.3H3.8l-0.1,0.4H3.3L4,25.6h0.5l0.7,2.1H4.8L4.7,27.3z M4.6,27l-0.3-0.9L4,27H4.6z"/>
	<path class="st0" d="M6.9,27.7l-0.5-0.8H6.2v0.8H5.8v-2.1h0.8c0.1,0,0.3,0,0.4,0.1c0.1,0,0.2,0.1,0.3,0.2s0.1,0.2,0.1,0.3
		s0,0.3-0.1,0.4c-0.2,0.1-0.3,0.2-0.4,0.2l0.5,0.9L6.9,27.7z M6.2,26.6h0.3c0.1,0,0.2,0,0.2-0.1c0.1-0.1,0.1-0.1,0.1-0.2
		s0-0.2-0.1-0.2C6.6,26,6.5,26,6.5,26H6.2V26.6z"/>
	<path class="st0" d="M9.1,27.7l-0.5-0.8H8.4v0.8H8v-2.1h0.8c0.1,0,0.3,0,0.4,0.1c0.1,0,0.2,0.1,0.2,0.2c0.1,0.1,0.1,0.2,0.1,0.3
		c0,0.3-0.2,0.5-0.5,0.6l0.5,0.8L9.1,27.7z M8.4,26.6h0.4c0.1,0,0.2,0,0.2-0.1c0.1-0.1,0.1-0.1,0.1-0.2s0-0.2-0.1-0.2
		C8.9,26,8.8,26,8.8,26H8.4V26.6z"/>
	<path class="st0" d="M10.6,27.6c-0.2-0.1-0.3-0.2-0.4-0.4c-0.2-0.3-0.2-0.8,0-1.1c0.1-0.2,0.2-0.3,0.4-0.4c0.2-0.1,0.3-0.1,0.5-0.1
		c0.2,0,0.4,0,0.5,0.1c0.2,0.1,0.3,0.2,0.4,0.4c0.1,0.2,0.1,0.4,0.1,0.5c0,0.2,0,0.4-0.1,0.5c-0.1,0.2-0.2,0.3-0.4,0.4
		c-0.1,0.2-0.3,0.2-0.5,0.2C10.9,27.7,10.8,27.7,10.6,27.6z M11.4,27.2c0.1-0.1,0.2-0.1,0.2-0.2c0.1-0.1,0.1-0.2,0.1-0.4
		c0-0.1,0-0.3-0.1-0.4c0-0.1-0.1-0.2-0.2-0.2c-0.1-0.1-0.2-0.1-0.3-0.1c-0.2,0-0.4,0.1-0.6,0.3c-0.1,0.1-0.1,0.2-0.1,0.4
		c0,0.1,0,0.2,0.1,0.4s0.3,0.3,0.6,0.3C11.2,27.3,11.3,27.3,11.4,27.2z"/>
	<path class="st0" d="M15.5,25.6L15,27.7h-0.5l-0.4-1.5l-0.4,1.5h-0.5l-0.6-2.1H13l0.4,1.6l0.4-1.6h0.5l0.4,1.6l0.4-1.6H15.5z"/>
	<path class="st0" d="M16.4,27.6c-0.1,0-0.2-0.1-0.3-0.2S16,27.2,16,27.1h0.4c0,0.1,0,0.1,0.1,0.2c0.1,0,0.1,0.1,0.2,0.1
		s0.2,0,0.2-0.1c0.1,0,0.1-0.1,0.1-0.2s0-0.1,0-0.2l-0.1-0.1l-0.2-0.1h-0.4c-0.1,0-0.2-0.1-0.2-0.2C16,26.4,16,26.3,16,26.2
		s0-0.2,0.1-0.3s0.1-0.2,0.2-0.2c0.1-0.1,0.2-0.1,0.4-0.1s0.4,0.1,0.5,0.2s0.2,0.3,0.2,0.4H17c0-0.1,0-0.1,0-0.2
		c-0.1,0-0.1-0.1-0.2-0.1s-0.1,0-0.2,0.1c-0.1,0-0.1,0.1-0.1,0.2v0.1l0.1,0.1l0.2,0.1c0.1,0,0.2,0.1,0.3,0.1s0.2,0.1,0.2,0.2
		c0.1,0.1,0.1,0.2,0.1,0.3s0,0.2-0.1,0.3s-0.1,0.2-0.2,0.2c0,0.1-0.1,0.1-0.3,0.1C16.7,27.7,16.5,27.7,16.4,27.6z"/>
	<path class="st0" d="M19.6,26.2c0-0.1-0.1-0.1-0.2-0.2c-0.1,0-0.2-0.1-0.3-0.1s-0.2,0-0.3,0.1s-0.2,0.1-0.2,0.2
		c-0.1,0.1-0.1,0.2-0.1,0.4c0,0.1,0,0.3,0.1,0.4c0,0.1,0.1,0.2,0.2,0.2c0.1,0.1,0.2,0.1,0.3,0.1s0.3,0,0.4-0.1s0.2-0.2,0.2-0.3H19
		v-0.3h1.1V27c0,0.1-0.1,0.3-0.2,0.4s-0.2,0.2-0.4,0.3c-0.1,0-0.2,0-0.4,0s-0.4,0-0.5-0.1c-0.2-0.1-0.3-0.2-0.4-0.4
		s-0.1-0.4-0.1-0.5c0-0.2,0-0.4,0.1-0.5c0.1-0.2,0.2-0.3,0.4-0.4s0.4-0.1,0.5-0.1c0.2,0,0.4,0.1,0.6,0.2s0.3,0.3,0.4,0.5h-0.5V26.2z
		"/>
	<path class="st0" d="M22,27.3h-0.8L21,27.7h-0.4l0.7-2.1h0.5l0.7,2.1h-0.4L22,27.3z M21.9,27l-0.3-0.9L21.3,27H21.9z"/>
	<path class="st0" d="M25.4,25.6v2.1H25v-1.4l-0.6,1.4h-0.3l-0.5-1.3v1.3h-0.4v-2.1h0.5l0.6,1.5l0.6-1.5H25.4z"/>
	<path class="st0" d="M26.5,26v0.5h0.7v0.3h-0.7v0.5h0.8v0.4h-1.2v-2.1h1.2v0.3L26.5,26L26.5,26z"/>
	<path class="st0" d="M27.9,27.6c0,0-0.1-0.1-0.1-0.2s0-0.1,0.1-0.2s0.3-0.1,0.4,0c0,0,0.1,0.1,0.1,0.2s0,0.1-0.1,0.2
		S28,27.7,27.9,27.6z"/>
	<path class="st0" d="M29,26.1c0.1-0.2,0.2-0.3,0.4-0.4s0.3-0.1,0.5-0.1s0.4,0.1,0.6,0.2s0.3,0.3,0.4,0.5h-0.5
		c0-0.1-0.1-0.2-0.2-0.2C30.1,26,30,26,29.9,26s-0.2,0-0.3,0.1s-0.2,0.1-0.2,0.2c-0.1,0.1-0.1,0.2-0.1,0.4c0,0.1,0,0.2,0.1,0.4
		c0,0.1,0.1,0.2,0.2,0.2c0.1,0.1,0.2,0.1,0.3,0.1s0.2,0,0.3-0.1s0.2-0.1,0.2-0.2h0.5c-0.1,0.2-0.2,0.4-0.4,0.5s-0.4,0.2-0.6,0.2
		s-0.4,0-0.5-0.1c-0.2-0.1-0.3-0.2-0.4-0.4s-0.1-0.4-0.1-0.5C28.9,26.4,28.9,26.3,29,26.1z"/>
	<path class="st0" d="M32,27.6c-0.2-0.1-0.3-0.2-0.4-0.4c-0.2-0.3-0.2-0.8,0-1.1c0.1-0.2,0.2-0.3,0.4-0.4c0.3-0.2,0.7-0.2,1,0
		c0.2,0.1,0.3,0.2,0.4,0.4c0.2,0.3,0.2,0.8,0,1.1c-0.1,0.2-0.2,0.3-0.4,0.4C32.7,27.7,32.3,27.7,32,27.6z M32.8,27.2
		c0.1-0.1,0.2-0.1,0.2-0.2c0.1-0.1,0.1-0.2,0.1-0.4c0-0.1,0-0.3-0.1-0.4c0-0.1-0.1-0.2-0.2-0.2c-0.1-0.1-0.2-0.1-0.3-0.1
		s-0.2,0-0.3,0.1S32,26.1,32,26.2c-0.1,0.1-0.1,0.2-0.1,0.4c0,0.1,0,0.2,0.1,0.4c0,0.1,0.1,0.2,0.2,0.2c0.1,0.1,0.2,0.1,0.3,0.1
		S32.7,27.3,32.8,27.2z"/>
	<path class="st0" d="M36.4,25.6v2.1H36v-1.4l-0.6,1.4h-0.3l-0.5-1.3v1.3h-0.4v-2.1h0.5l0.7,1.5l0.7-1.5H36.4z"/>
</g>
</svg>
