<svg enable-background="new 0 0 64 64" viewBox="0 0 64 64" xmlns="http://www.w3.org/2000/svg"><path d="m0 0v64h64v-64zm46.2 32c.6.9 1.1 1.8 1.5 2.8 1.8 4.3 1.8 9.1 0 13.3-3.6 8.8-13.7 12.9-22.4 9.2-2-.9-3.9-2.1-5.4-3.6-1.6-1.6-2.8-3.4-3.7-5.4-.9-2.1-1.3-4.3-1.3-6.6h3.1c.1 7.6 6.3 13.7 13.9 13.6s13.7-6.3 13.6-13.9c0-3.5-1.4-6.9-3.8-9.4 5.3-5.5 5.1-14.2-.4-19.5s-14.2-5-19.5.5c-2.4 2.5-3.8 5.9-3.8 9.4h-3.1c0-2.3.5-4.5 1.3-6.6 3.7-8.7 13.7-12.8 22.4-9.1 2 .9 3.9 2.1 5.5 3.7 4.9 4.9 6.4 12.3 3.7 18.8-.4.9-1 1.9-1.6 2.8zm-14-1.5-1.5 1.5 1.5 1.5.5-.5-.6-.6c1.9.1 3.6.7 5.1 1.8-1.6.7-3.4 1.2-5.1 1.2l.6-.6-.5-.5-1.5 1.5 1.5 1.5.5-.5-.6-.6c2.9.2 5.2 2.8 4.9 5.7-.2 2.9-2.8 5.2-5.7 4.9-2.8-.2-4.9-2.5-4.9-5.2h3.6c0 .2.1.5.1.7.1.2.2.5.4.6.2.2.4.3.6.4.5.2 1.1.2 1.5 0 .2-.1.5-.2.6-.4.2-.2.3-.4.4-.6s.2-.5.2-.8 0-.5-.2-.8c-.1-.2-.3-.4-.4-.6-.2-.2-.4-.3-.6-.4l-4.6-2v-11.5l4.6-2c.5-.2.9-.6 1.1-1.1.1-.2.2-.5.2-.8s0-.5-.2-.8c-.1-.2-.3-.4-.4-.6-.2-.2-.4-.3-.6-.4-.5-.2-1.1-.2-1.5 0-.5.2-.9.6-1.1 1.1-.1.2-.1.5-.1.7h-3.5c0-2.9 2.5-5.3 5.4-5.3s5.3 2.5 5.3 5.4c0 2.8-2.2 5-4.9 5.2l.6-.6-.5-.5-1.5 1.5 1.5 1.5.5-.5-.6-.6c1.8 0 3.5.5 5.1 1.2-1.5 1.1-3.3 1.8-5.1 1.8l.6-.6zm2.1-2.5c3.1-1.4 4.4-5 3-8.1-.3-.7-.7-1.3-1.2-1.8-2.4-2.4-6.3-2.4-8.7 0-1.1 1.1-1.8 2.6-1.8 4.2h-3.1c0-5.1 4.2-9.1 9.2-9.1 5.1 0 9.1 4.2 9.1 9.2 0 2.4-1 4.7-2.7 6.4-.1.1-.2.2-.3.3-1-.5-2.2-.9-3.5-1.1zm-8.6 13.6c0 3.4 2.8 6.1 6.2 6 3.4 0 6.1-2.8 6-6.2 0-2.4-1.4-4.5-3.6-5.5 1.3-.2 2.5-.7 3.7-1.2l.3.3c3.6 3.6 3.6 9.4 0 13s-9.4 3.6-13 0c-1.7-1.7-2.7-4-2.7-6.4zm12.3-7.8c-1-.8-2.2-1.5-3.5-1.8 1.3-.4 2.5-1 3.5-1.8.9.5 1.8 1.1 2.5 1.8-.7.7-1.5 1.3-2.5 1.8zm.7-4.2.2-.1c3.9-3.9 3.8-10.2-.1-14.1s-10.2-3.8-14.1.1c-1.8 1.8-2.8 4.3-2.9 6.9h-3c0-7.2 5.9-13 13-13s13 5.9 13 13c0 3.4-1.3 6.6-3.7 9-.7-.6-1.5-1.3-2.4-1.8zm-16.8 12c.1 5.5 4.6 9.9 10.1 9.8s9.9-4.6 9.8-10.1c0-2.6-1.1-5-2.9-6.9l-.2-.2c.9-.5 1.7-1.1 2.5-1.8 5 5.2 4.9 13.4-.3 18.4s-13.4 4.9-18.4-.3c-2.3-2.4-3.6-5.6-3.7-9z" fill="#fff"/></svg>