<?xml version="1.0" encoding="utf-8"?>
<!-- Generator: Adobe Illustrator 26.3.1, SVG Export Plug-In . SVG Version: 6.00 Build 0)  -->
<svg version="1.1" id="Layer_1" xmlns="http://www.w3.org/2000/svg" xmlns:xlink="http://www.w3.org/1999/xlink" x="0px" y="0px"
	 viewBox="0 0 35 54" style="enable-background:new 0 0 35 54;" xml:space="preserve">
<style type="text/css">
	.st0{fill:#FFFFFF;}
</style>
<g>
	<path class="st0" d="M10.8,43c3.6,3.6,9.4,3.6,13,0s3.6-9.4,0-13c-0.1-0.1-0.2-0.2-0.3-0.3c-1.2,0.6-2.4,1.1-3.7,1.3
		c3.1,1.4,4.4,5,3,8.1c-0.3,0.7-0.7,1.3-1.2,1.8c-2.4,2.4-6.3,2.4-8.7,0c-1.1-1.1-1.8-2.6-1.8-4.2H8C8.2,39,9.1,41.3,10.8,43z"/>
	<path class="st0" d="M30.3,17.5c0-7.2-5.8-13-13-13s-13,5.8-13,13h3c0.1-5.5,4.6-9.9,10.1-9.8s9.9,4.6,9.8,10.1
		c0,2.6-1.1,5-2.9,6.9l-0.2,0.1c0.9,0.5,1.7,1.1,2.5,1.8C29,24,30.3,20.8,30.3,17.5z"/>
	<path class="st0" d="M23.8,23.9c3.6-3.6,3.6-9.4,0-13s-9.4-3.6-13,0c-1.7,1.7-2.6,4-2.7,6.4h3c0.2-3.4,3-6,6.4-5.8
		c3.2,0.1,5.7,2.7,5.8,5.9c0,2.4-1.4,4.6-3.6,5.5c1.3,0.2,2.5,0.7,3.7,1.2C23.6,24.1,23.7,24,23.8,23.9z"/>
	<path class="st0" d="M31.7,27c0.6-0.9,1.1-1.9,1.5-2.9c1.8-4.3,1.8-9.1,0-13.3c-0.9-2-2.1-3.9-3.7-5.4C22.8-1.3,12-1.3,5.3,5.4
		c-3.2,3.2-5,7.5-5,12h3.2c0-7.6,6.2-13.7,13.8-13.7S31,9.9,31,17.5c0,3.5-1.4,6.9-3.8,9.5c5.3,5.5,5.1,14.2-0.4,19.5
		s-14.2,5-19.5-0.5c-2.4-2.5-3.8-5.9-3.8-9.4H0.4c0.1,9.4,7.8,17.1,17.2,17s17.1-7.8,17-17.2c0-2.2-0.5-4.5-1.3-6.5
		C32.8,28.9,32.3,27.9,31.7,27z"/>
	<path class="st0" d="M23.6,25.2c-1,0.8-2.2,1.5-3.5,1.8c1.3,0.4,2.5,1,3.5,1.8c0.9-0.5,1.8-1.1,2.5-1.8
		C25.3,26.3,24.5,25.7,23.6,25.2z"/>
	<path class="st0" d="M8.1,45.7c5.2,4.9,13.5,4.7,18.4-0.5c4.7-4.9,4.7-12.6,0.2-17.7c-0.8,0.7-1.6,1.3-2.5,1.8l0.2,0.2
		c3.9,3.9,3.8,10.2-0.1,14s-10.2,3.8-14-0.1c-1.8-1.8-2.8-4.3-2.9-6.8h-3C4.3,40,5.7,43.3,8.1,45.7z"/>
	<path class="st0" d="M22.8,24.8c-1.6-0.8-3.4-1.2-5.1-1.2l0.6,0.6l-0.5,0.5l-1.5-1.5l1.5-1.5l0.5,0.5l-0.6,0.6
		c1.3-0.1,2.5-0.6,3.4-1.5c2.1-2.1,2.1-5.5,0-7.6s-5.5-2.1-7.6,0c-1,1-1.5,2.3-1.6,3.7h3.6c0-0.2,0.1-0.5,0.1-0.7
		c0.2-0.5,0.6-0.9,1.1-1.1s1-0.2,1.5,0c0.2,0.1,0.5,0.2,0.6,0.4c0.2,0.2,0.3,0.4,0.4,0.6c0.2,0.5,0.2,1,0,1.5s-0.6,0.9-1.1,1.1
		l-4.6,2v11.5l4.6,2c0.5,0.2,0.9,0.6,1.1,1.1c0.1,0.2,0.2,0.5,0.2,0.8s0,0.5-0.2,0.8c-0.1,0.2-0.2,0.4-0.4,0.6s-0.4,0.3-0.6,0.4
		c-0.5,0.2-1,0.2-1.5,0c-0.2-0.1-0.5-0.2-0.6-0.4c-0.2-0.2-0.3-0.4-0.4-0.6s-0.1-0.5-0.1-0.7h-3.5c0,3,2.5,5.3,5.4,5.3
		s5.3-2.5,5.3-5.4c0-1.4-0.6-2.7-1.6-3.7c-0.9-0.9-2.1-1.5-3.4-1.5l0.6,0.6l-0.5,0.5L16.4,31l1.5-1.5l0.5,0.5l-0.6,0.6
		c1.8,0,3.5-0.5,5.1-1.2c-1.5-1.1-3.3-1.8-5.1-1.8l0.6,0.6l-0.5,0.5L16.2,27l1.5-1.5l0.5,0.5l-0.6,0.6
		C19.5,26.5,21.3,25.9,22.8,24.8L22.8,24.8z"/>
</g>
</svg>
