<?xml version="1.0" encoding="UTF-8"?><svg id="Layer_1" xmlns="http://www.w3.org/2000/svg" viewBox="0 0 200 200"><defs><style>.cls-1{fill:#fff;}.cls-2{fill:#333;}</style></defs><g id="base"><rect class="cls-2" width="200" height="200" rx="30.19" ry="30.19"/></g><g><path class="cls-1" d="M84.65,137.52c4.05,4.05,9.43,6.27,15.15,6.27s11.1-2.23,15.15-6.27c4.05-4.05,6.28-9.43,6.28-15.15s-2.23-11.1-6.28-15.15c-.24-.24-.5-.48-.76-.72-2.68,1.34-5.53,2.3-8.49,2.84,1.56,.71,2.98,1.69,4.21,2.92,2.7,2.7,4.19,6.29,4.19,10.11s-1.49,7.41-4.19,10.11c-2.7,2.7-6.29,4.19-10.11,4.19s-7.41-1.49-10.11-4.19c-2.66-2.66-4.14-6.17-4.19-9.92h-7.13c.05,5.65,2.27,10.96,6.27,14.96Z"/><path class="cls-1" d="M130.16,77.71c0-8.11-3.16-15.73-8.89-21.46-5.73-5.73-13.36-8.89-21.46-8.89s-15.73,3.16-21.46,8.89c-5.69,5.69-8.84,13.24-8.89,21.28h7.13c.05-6.13,2.46-11.89,6.8-16.24,4.39-4.39,10.22-6.8,16.42-6.8s12.04,2.42,16.42,6.8c4.39,4.39,6.8,10.22,6.8,16.43s-2.42,12.04-6.8,16.43c-.12,.12-.24,.24-.36,.35,2.07,1.2,4.02,2.64,5.79,4.29,5.48-5.68,8.5-13.16,8.5-21.06Z"/><path class="cls-1" d="M114.95,92.86c4.05-4.05,6.28-9.43,6.28-15.15s-2.23-11.1-6.28-15.15c-4.05-4.05-9.43-6.28-15.15-6.28s-11.1,2.23-15.15,6.28c-4,4-6.23,9.31-6.27,14.96h7.13c.05-3.75,1.53-7.27,4.19-9.92,2.7-2.7,6.29-4.19,10.11-4.19s7.41,1.49,10.11,4.19c2.7,2.7,4.19,6.29,4.19,10.11s-1.49,7.41-4.19,10.11c-1.23,1.23-2.65,2.21-4.21,2.92,2.96,.55,5.81,1.5,8.49,2.84,.27-.24,.52-.49,.76-.72Z"/><path class="cls-1" d="M133.54,100.14l-.07-.1,.07-.1c1.39-2.08,2.6-4.32,3.58-6.65,2.09-4.94,3.15-10.18,3.15-15.58s-1.06-10.63-3.15-15.58c-2.02-4.76-4.9-9.04-8.56-12.71-3.67-3.67-7.94-6.55-12.71-8.57-4.94-2.09-10.18-3.15-15.57-3.15s-10.63,1.06-15.58,3.15c-4.77,2.02-9.04,4.9-12.71,8.56-3.67,3.67-6.55,7.94-8.56,12.71-2.07,4.89-3.13,10.06-3.15,15.39h7.37c.05-8.52,3.39-16.52,9.42-22.55,6.07-6.07,14.15-9.42,22.74-9.42,8.59,0,16.67,3.35,22.74,9.42,6.07,6.07,9.42,14.15,9.42,22.74s-3.2,16.3-9.02,22.33c5.82,6.02,9.02,13.94,9.02,22.33s-3.34,16.67-9.42,22.74c-6.07,6.07-14.15,9.42-22.74,9.42s-16.67-3.35-22.74-9.42c-6.03-6.03-9.37-14.03-9.42-22.55h-7.37c.02,5.33,1.08,10.5,3.15,15.39,2.02,4.76,4.9,9.04,8.56,12.71,3.67,3.67,7.94,6.55,12.71,8.57,4.94,2.09,10.18,3.15,15.57,3.15s10.63-1.06,15.58-3.15c4.76-2.02,9.04-4.9,12.71-8.56,3.67-3.67,6.55-7.94,8.56-12.71,2.09-4.94,3.15-10.18,3.15-15.57s-1.06-10.63-3.15-15.58c-.98-2.33-2.19-4.56-3.58-6.65Z"/><path class="cls-1" d="M114.44,95.76c-2.44,1.99-5.19,3.42-8.19,4.28,3,.86,5.75,2.3,8.19,4.28,2.13-1.18,4.12-2.62,5.93-4.28-1.81-1.67-3.8-3.11-5.93-4.28Z"/><path class="cls-1" d="M78.34,143.83c5.73,5.73,13.36,8.89,21.46,8.89s15.73-3.16,21.46-8.89c5.73-5.73,8.89-13.36,8.89-21.46s-3.02-15.38-8.5-21.06c-1.78,1.65-3.72,3.09-5.79,4.29,.12,.12,.24,.23,.36,.35,4.39,4.39,6.8,10.22,6.8,16.43s-2.42,12.04-6.8,16.42c-4.39,4.39-10.22,6.8-16.42,6.8s-12.04-2.42-16.43-6.8c-4.34-4.34-6.75-10.1-6.8-16.24h-7.13c.05,8.04,3.2,15.59,8.89,21.28Z"/><path class="cls-1" d="M112.66,94.85c-3.76-1.76-7.79-2.71-11.99-2.83l1.33,1.33-1.28,1.28-3.53-3.53,3.53-3.53,1.28,1.28-1.32,1.32c3-.21,5.81-1.49,7.95-3.63,2.36-2.36,3.66-5.5,3.66-8.83s-1.3-6.48-3.66-8.83c-2.36-2.36-5.5-3.66-8.83-3.66s-6.48,1.3-8.83,3.66c-2.32,2.32-3.61,5.38-3.66,8.65h8.32c.02-.57,.14-1.11,.35-1.62,.23-.55,.57-1.05,1.01-1.49,.43-.43,.93-.77,1.48-1,1.12-.48,2.49-.48,3.61,0,.55,.23,1.05,.57,1.48,1,.43,.43,.77,.93,1,1.48,.24,.56,.36,1.17,.36,1.81s-.12,1.24-.36,1.81c-.23,.55-.57,1.05-1,1.48-.43,.43-.93,.77-1.48,1l-10.79,4.56v26.94l10.79,4.56c.55,.23,1.05,.57,1.48,1s.77,.93,1,1.48c.24,.56,.36,1.17,.36,1.81s-.12,1.24-.36,1.81c-.23,.55-.57,1.05-1,1.48-.43,.43-.93,.77-1.48,1-1.13,.48-2.49,.48-3.61,0-.55-.23-1.05-.57-1.49-1-.43-.43-.77-.93-1-1.48-.21-.51-.33-1.05-.36-1.62h-8.32c.05,3.27,1.34,6.33,3.66,8.65,2.36,2.36,5.5,3.66,8.83,3.66s6.47-1.3,8.83-3.66c2.36-2.36,3.66-5.5,3.66-8.83s-1.3-6.48-3.66-8.83c-2.14-2.14-4.95-3.42-7.95-3.63l1.32,1.32-1.28,1.28-3.53-3.53,3.53-3.53,1.28,1.28-1.33,1.33c4.2-.12,8.23-1.07,11.99-2.83-3.48-2.62-7.61-4.09-11.98-4.27l1.33,1.33-1.28,1.28-3.53-3.53,3.53-3.53,1.28,1.28-1.33,1.33c4.38-.17,8.5-1.64,11.98-4.27Z"/></g></svg>