<svg id="Layer_1" data-name="Layer 1" xmlns="http://www.w3.org/2000/svg" width="64" height="64" viewBox="0 0 64 64">
  <g>
    <polyline points="48.47 26.78 53.77 32.07 48.47 37.36" style="fill: none;stroke: #333;stroke-miterlimit: 10;stroke-width: 1.99999992664044px"/>
    <path d="M50.32,32.06h0l-1.15,1.15h0c-4.67,0-4.4,0-9.17-.09-2.93,0-4.71-.09-6.1-.16,0-.63.08-1.2.12-1.8,1.37-.07,3.14-.12,6-.16,4.77-.07,4.5-.1,9.17-.1h0Z" style="fill: #333"/>
    <polyline points="15.53 26.78 10.23 32.07 15.53 37.36" style="fill: none;stroke: #333;stroke-miterlimit: 10;stroke-width: 1.99999992664044px"/>
    <path d="M13.68,32.06h0l1.15,1.15h0c4.67,0,4.4,0,9.17-.09,2.93,0,4.71-.09,6.1-.16,0-.63-.08-1.2-.12-1.8-1.37-.07-3.14-.12-6-.16-4.77-.07-4.5-.1-9.17-.1h0Z" style="fill: #333"/>
  </g>
  <polyline points="37.29 48.25 32 53.55 26.71 48.25" style="fill: none;stroke: #333;stroke-miterlimit: 10;stroke-width: 1.99999992664044px"/>
  <path d="M30.85,48.93v0L32,50.1h0L33.16,49v0c0-4.67,0-1.89-.09-6.67C33,34.53,32.74,37,32.36,27.6h-.71c-.39,9.38-.6,6.93-.71,14.66C30.87,47,30.84,44.26,30.85,48.93Z" style="fill: #333"/>
</svg>
