<?xml version="1.0" encoding="UTF-8"?><svg id="Layer_2" xmlns="http://www.w3.org/2000/svg" viewBox="0 0 597.83 160"><defs><style>.cls-1{fill:#4d4d4d;}</style></defs><g id="Layer_1-2"><g id="oXfNMm"><path class="cls-1" d="M125.17,88.31c-4.29-4.55-4.09-10.59-4.07-16.63,.04-16.91,.03-33.83,0-50.74-.01-7.5,2.63-13.68,9.53-17.08,2.87-1.42,6.39-2.11,9.62-2.13,29.49-.16,58.99-.13,88.48-.07,9.47,.02,16.29,5.05,18.37,13.49,.53,2.15,.63,4.45,.64,6.69,.05,17.08,0,34.16,.05,51.24,.02,5.58-.18,11.04-3.83,14.9,1.73,5.11,3.38,9.7,4.85,14.35,3.98,12.61,7.9,25.25,11.82,37.88,2.39,7.68-2.9,16.25-10.98,17.79-1.14,.22-2.31,.36-3.47,.36-41.16,.02-82.32,.06-123.48-.02-10.5-.02-17.48-9.73-14.14-19.19,1.02-2.9,1.97-5.83,2.89-8.76,3.82-12.32,7.59-24.65,11.44-36.96,.51-1.64,1.4-3.16,2.28-5.11ZM184.39,15.01c-14.67,0-29.33,0-44,0-4.53,0-5.95,1.43-5.95,6,0,18.17,0,36.33,0,54.5,0,4.73,1.37,6.13,6.08,6.13,29.33,0,58.66,0,88,0,4.59,0,5.92-1.36,5.92-5.99,0-18.17,0-36.33,0-54.5,0-4.78-1.33-6.14-6.05-6.14-14.67,0-29.33,0-44,0Zm.06,127.47c6.57,0,13.14,.02,19.72,0,3.36-.02,4.72-1.84,3.72-4.99-1.08-3.41-2.35-6.76-3.32-10.19-.77-2.69-2.37-3.69-5.1-3.67-10.23,.07-20.47,.08-30.7,0-2.61-.02-4.02,1.09-4.73,3.47-1,3.34-2.08,6.66-3.11,10-1.1,3.57,.25,5.38,4.06,5.39,6.49,.02,12.98,0,19.47,0Z"/></g><g id="_OFdPe"><path class="cls-1" d="M381.5,0c22.83,0,45.66,0,68.49,0,7.62,0,11.53,3.91,11.53,11.57,0,32.41,0,64.82,0,97.24,0,7.15-4,11.17-11.16,11.18-17.33,.02-34.66,0-51.99,0-3.33,0-3.5,.17-3.51,3.55-.01,4.92,.1,9.84-.05,14.75-.07,2.19,.85,2.71,2.81,3.15,7.45,1.66,14.88,3.46,22.25,5.45,3.71,1,5.48,3.98,4.97,7.33-.53,3.47-3.24,5.76-7.05,5.76-24.16,.02-48.33,.02-72.49,0-3.86,0-6.54-2.23-7.08-5.71-.52-3.37,1.22-6.37,4.91-7.37,7.37-2,14.79-3.82,22.25-5.44,2.15-.47,2.92-1.19,2.86-3.38-.14-4.91-.03-9.83-.05-14.75-.01-3.13-.24-3.34-3.47-3.34-17.25,0-34.49,0-51.74,0-7.52,0-11.45-3.9-11.45-11.39,0-32.41,0-64.82,0-97.24,0-7.47,3.95-11.37,11.48-11.37,22.83,0,45.66,0,68.49,0Zm-.1,93.28c20.49,0,40.99,0,61.48,0,4.62,0,5.32-.7,5.32-5.42,0-23.08,0-46.15,0-69.23,0-4.56-.81-5.35-5.44-5.35-40.82,0-81.64,0-122.46,0-4.62,0-5.44,.8-5.44,5.36,0,23.08,0,46.15,0,69.23,0,4.73,.67,5.41,5.31,5.41,20.41,0,40.82,0,61.23,0Z"/></g><g id="SD62vz"><path class="cls-1" d="M597.82,79.9c0,15.35,0,30.69,0,46.04,0,8.54-5.17,13.73-13.67,13.73-20.75,0-41.5,0-62.25,0-8.39,0-13.57-5.21-13.57-13.64,0-30.69,0-61.38,0-92.07,0-8.44,5.16-13.61,13.58-13.61,20.81,0,41.63,0,62.44,0,8.28,0,13.47,5.22,13.48,13.52,0,15.35,0,30.69,0,46.04Zm-9.94,.1c0-10.32,0-20.63,0-30.95,0-6.01-2.75-8.77-8.76-8.78-7.46-.02-14.91,0-22.37,0-10.07,0-20.13-.03-30.2,.01-5.22,.02-8.25,2.81-8.26,7.75-.05,21.31-.04,42.63,0,63.94,0,4.69,3.05,7.73,7.7,7.74,18.08,.04,36.17,.04,54.25-.03,1.36,0,2.86-.43,4.04-1.1,2.76-1.56,3.63-4.19,3.62-7.27-.04-10.44-.02-20.88-.02-31.32Z"/></g><g id="lweaTS"><path class="cls-1" d="M66.79,79.99c0,12.26-.02,24.52,.01,36.78,.01,5.47-2.2,9.62-7.16,12.01-1.59,.77-3.49,1.23-5.25,1.24-13.98,.1-27.96,.1-41.94,.04-6.64-.03-11.77-4.92-12.36-11.54-.05-.57-.07-1.15-.07-1.72C.01,92.28,.03,67.76,0,43.24c0-5.34,2.14-9.45,6.87-11.89,1.69-.88,3.79-1.35,5.7-1.37,13.88-.11,27.75-.09,41.63-.05,6.85,.02,12.14,5.01,12.51,11.87,.21,3.9,.08,7.82,.08,11.73,0,8.82,0,17.63,0,26.45Zm-8.34-2.03c0-8.76,0-17.52,0-26.29,0-3.52-1.5-5.03-5.06-5.03-13.35,0-26.7-.01-40.06,0-3.45,0-4.96,1.52-4.96,4.96,0,17.53,0,35.05,0,52.58,0,3.5,1.56,5.06,5.06,5.06,13.3,0,26.6,0,39.9,0,3.59,0,5.12-1.54,5.13-5.15,0-8.71,0-17.42,0-26.13Zm-25.04,45.87c2.03,0,4.07,.03,6.1,0,2.43-.04,4.26-1.8,4.31-4.05,.05-2.41-1.67-4.19-4.25-4.23-4.12-.06-8.24-.06-12.36,0-2.59,.04-4.27,1.82-4.22,4.25,.05,2.26,1.87,4,4.32,4.04,2.03,.03,4.07,0,6.1,0Z"/></g></g></svg>