<?xml version="1.0" encoding="UTF-8"?><svg id="Layer_2" xmlns="http://www.w3.org/2000/svg" viewBox="0 0 200 105"><defs><style>.cls-1{fill:#fff;}</style></defs><g id="Layer_1-2"><g><g><g><path class="cls-1" d="M24.36,12.48v6.23h-6.69v18.83h-7.9V18.71H3.17v-6.23H24.36Z"/><path class="cls-1" d="M48.54,12.48v25.06h-7.9v-9.77h-7.5v9.77h-7.9V12.48h7.9v9.02h7.5V12.48h7.9Z"/><path class="cls-1" d="M62.45,37.54l-4.73-8.99h-.04v8.99h-7.9V12.48h11.74c2.04,0,3.78,.36,5.23,1.08,1.45,.72,2.53,1.7,3.25,2.94,.72,1.24,1.08,2.64,1.08,4.19,0,1.68-.47,3.16-1.4,4.46-.94,1.3-2.28,2.23-4.04,2.8l5.48,9.59h-8.68Zm-4.77-14.23h3.13c.76,0,1.33-.17,1.71-.51,.38-.34,.57-.88,.57-1.61,0-.66-.2-1.18-.59-1.56-.39-.38-.95-.57-1.69-.57h-3.13v4.25Z"/><path class="cls-1" d="M80.26,18.75v3.08h7.82v5.91h-7.82v3.54h8.89v6.26h-16.79V12.48h16.79v6.26h-8.89Z"/><path class="cls-1" d="M98.26,18.75v3.08h7.82v5.91h-7.82v3.54h8.89v6.26h-16.79V12.48h16.79v6.26h-8.89Z"/></g><g><path class="cls-1" d="M17.92,61.18H9.53l-1.25,3.79H0l9.21-25.06h9.1l9.18,25.06h-8.32l-1.24-3.79Zm-1.92-5.91l-2.28-6.97-2.28,6.97h4.55Z"/><path class="cls-1" d="M40.15,64.97l-4.73-8.99h-.04v8.99h-7.9v-25.06h11.74c2.04,0,3.78,.36,5.23,1.08,1.45,.72,2.53,1.7,3.25,2.94,.72,1.24,1.08,2.64,1.08,4.19,0,1.68-.47,3.16-1.4,4.46-.94,1.3-2.28,2.23-4.04,2.8l5.48,9.59h-8.68Zm-4.77-14.23h3.13c.76,0,1.33-.17,1.71-.51,.38-.34,.57-.88,.57-1.61,0-.66-.2-1.18-.59-1.56-.39-.38-.95-.57-1.69-.57h-3.13v4.25Z"/><path class="cls-1" d="M62.2,64.97l-4.73-8.99h-.04v8.99h-7.9v-25.06h11.74c2.04,0,3.78,.36,5.23,1.08,1.45,.72,2.53,1.7,3.25,2.94,.72,1.24,1.08,2.64,1.08,4.19,0,1.68-.47,3.16-1.4,4.46-.94,1.3-2.28,2.23-4.04,2.8l5.48,9.59h-8.68Zm-4.77-14.23h3.13c.76,0,1.33-.17,1.71-.51,.38-.34,.57-.88,.57-1.61,0-.66-.2-1.18-.59-1.56-.39-.38-.95-.57-1.69-.57h-3.13v4.25Z"/><path class="cls-1" d="M77.34,63.55c-1.98-1.11-3.55-2.64-4.71-4.6-1.16-1.96-1.74-4.17-1.74-6.62s.58-4.66,1.74-6.62c1.16-1.96,2.73-3.49,4.71-4.58,1.98-1.1,4.16-1.65,6.53-1.65s4.54,.55,6.51,1.65c1.97,1.1,3.53,2.63,4.68,4.58s1.72,4.16,1.72,6.62-.57,4.66-1.72,6.62c-1.15,1.96-2.72,3.49-4.69,4.6-1.98,1.11-4.14,1.66-6.49,1.66s-4.55-.55-6.53-1.66Zm10.15-7.17c.85-1,1.28-2.35,1.28-4.05s-.43-3.08-1.28-4.09c-.85-1-2.06-1.51-3.63-1.51s-2.81,.5-3.66,1.51c-.85,1-1.28,2.37-1.28,4.09s.43,3.05,1.28,4.05c.85,1,2.07,1.5,3.66,1.5s2.77-.5,3.63-1.5Z"/><path class="cls-1" d="M132.1,39.91l-5.76,25.06h-9.82l-2.92-14.23-2.92,14.23h-9.82l-5.76-25.06h8.5l2.28,15.79,3.41-15.79h8.61l3.41,15.79,2.28-15.79h8.5Z"/><path class="cls-1" d="M134.51,63.11c-1.96-1.4-3.02-3.46-3.18-6.18h8.39c.12,1.44,.76,2.16,1.92,2.16,.43,0,.79-.1,1.08-.3,.3-.2,.44-.51,.44-.94,0-.59-.32-1.07-.96-1.43-.64-.37-1.64-.78-2.99-1.26-1.61-.57-2.95-1.12-4-1.66-1.06-.54-1.96-1.33-2.72-2.37-.76-1.04-1.13-2.37-1.1-4,0-1.63,.42-3.01,1.26-4.16,.84-1.14,1.99-2.01,3.45-2.6s3.1-.88,4.93-.88c3.08,0,5.53,.71,7.34,2.12,1.81,1.42,2.77,3.41,2.86,5.98h-8.5c-.02-.71-.2-1.21-.53-1.52-.33-.31-.74-.46-1.21-.46-.33,0-.6,.11-.82,.34-.21,.22-.32,.54-.32,.94,0,.57,.31,1.03,.94,1.4,.63,.37,1.63,.81,3.01,1.33,1.59,.59,2.9,1.16,3.93,1.7,1.03,.54,1.93,1.3,2.69,2.27,.76,.97,1.14,2.18,1.14,3.65s-.38,2.91-1.14,4.12c-.76,1.22-1.86,2.17-3.31,2.85-1.45,.68-3.17,1.03-5.16,1.03-3.01,0-5.49-.7-7.45-2.11Z"/></g></g><g><path class="cls-1" d="M152.92,84.07c3.43,3.41,7.98,5.29,12.82,5.29s9.4-1.88,12.82-5.29c3.42-3.41,5.31-7.94,5.31-12.76s-1.89-9.35-5.31-12.76c-.2-.2-.42-.41-.64-.61-2.27,1.13-4.68,1.93-7.19,2.39,1.32,.6,2.52,1.42,3.57,2.46,2.29,2.27,3.54,5.3,3.54,8.52s-1.26,6.24-3.54,8.52c-2.29,2.27-5.32,3.53-8.56,3.53s-6.27-1.25-8.56-3.53c-2.25-2.24-3.5-5.2-3.54-8.36h-6.03c.04,4.76,1.92,9.23,5.31,12.6Z"/><path class="cls-1" d="M191.44,33.69c0-6.83-2.67-13.25-7.53-18.08-4.85-4.83-11.3-7.49-18.17-7.49s-13.32,2.66-18.17,7.49c-4.81,4.79-7.48,11.15-7.52,17.92h6.03c.04-5.17,2.08-10.02,5.76-13.68,3.71-3.7,8.65-5.73,13.9-5.73s10.19,2.04,13.9,5.73c3.71,3.7,5.76,8.61,5.76,13.84s-2.04,10.14-5.76,13.84c-.1,.1-.2,.2-.31,.3,1.75,1.01,3.4,2.22,4.9,3.61,4.64-4.79,7.19-11.08,7.19-17.74Z"/><path class="cls-1" d="M178.57,46.45c3.42-3.41,5.31-7.94,5.31-12.76s-1.89-9.35-5.31-12.76c-3.43-3.41-7.98-5.29-12.82-5.29s-9.4,1.88-12.82,5.29c-3.39,3.37-5.27,7.84-5.31,12.6h6.03c.04-3.16,1.3-6.12,3.54-8.36,2.28-2.27,5.32-3.53,8.56-3.53s6.27,1.25,8.56,3.53c2.29,2.27,3.54,5.3,3.54,8.52s-1.26,6.24-3.54,8.52c-1.04,1.04-2.24,1.87-3.57,2.46,2.51,.46,4.92,1.26,7.19,2.39,.23-.2,.44-.41,.65-.61Z"/><path class="cls-1" d="M194.3,52.59l-.06-.09,.06-.09c1.18-1.75,2.2-3.64,3.03-5.6,1.77-4.16,2.67-8.58,2.67-13.12s-.9-8.96-2.67-13.12c-1.71-4.01-4.14-7.62-7.25-10.71-3.1-3.09-6.72-5.52-10.76-7.21-4.18-1.76-8.62-2.65-13.18-2.65s-9,.89-13.18,2.65c-4.03,1.7-7.65,4.12-10.76,7.21-3.1,3.09-5.54,6.69-7.25,10.71-1.75,4.12-2.65,8.48-2.67,12.96h6.24c.04-7.18,2.87-13.92,7.97-19,5.14-5.12,11.98-7.93,19.25-7.93,7.27,0,14.11,2.82,19.25,7.93,5.14,5.12,7.97,11.92,7.97,19.15s-2.71,13.73-7.63,18.81c4.92,5.07,7.63,11.75,7.63,18.81s-2.83,14.04-7.97,19.15c-5.14,5.12-11.98,7.93-19.25,7.93s-14.11-2.82-19.25-7.93c-5.1-5.08-7.93-11.82-7.97-19h-6.24c.02,4.49,.92,8.85,2.67,12.96,1.71,4.01,4.15,7.62,7.25,10.7,3.1,3.09,6.72,5.52,10.76,7.21,4.18,1.76,8.62,2.65,13.18,2.65s9-.89,13.18-2.65c4.03-1.7,7.65-4.12,10.76-7.21,3.1-3.09,5.54-6.69,7.25-10.71,1.77-4.16,2.67-8.58,2.67-13.12s-.9-8.96-2.67-13.12c-.83-1.96-1.85-3.84-3.03-5.6Z"/><path class="cls-1" d="M178.13,48.89c-2.06,1.67-4.39,2.88-6.93,3.61,2.54,.72,4.87,1.94,6.93,3.61,1.8-.99,3.49-2.2,5.02-3.61-1.53-1.4-3.22-2.62-5.02-3.61Z"/><path class="cls-1" d="M147.57,89.39c4.85,4.83,11.31,7.49,18.17,7.49s13.31-2.66,18.17-7.49c4.85-4.83,7.53-11.25,7.53-18.08s-2.55-12.95-7.19-17.74c-1.5,1.39-3.15,2.6-4.9,3.61,.1,.1,.2,.2,.31,.3,3.71,3.7,5.76,8.61,5.76,13.84s-2.04,10.14-5.76,13.84c-3.71,3.7-8.65,5.73-13.9,5.73s-10.19-2.04-13.9-5.73c-3.68-3.66-5.72-8.51-5.76-13.68h-6.03c.04,6.77,2.71,13.13,7.52,17.92Z"/><path class="cls-1" d="M176.63,48.13c-3.18-1.48-6.59-2.28-10.15-2.38l1.13,1.12-1.08,1.07-2.98-2.97,2.98-2.97,1.08,1.07-1.11,1.11c2.54-.18,4.91-1.25,6.73-3.06,2-1.99,3.1-4.63,3.1-7.44s-1.1-5.45-3.1-7.44c-2-1.99-4.65-3.08-7.48-3.08s-5.48,1.09-7.48,3.08c-1.96,1.95-3.06,4.53-3.1,7.28h7.04c.02-.48,.12-.94,.3-1.36,.2-.47,.48-.89,.85-1.25,.37-.36,.79-.65,1.26-.85,.95-.4,2.11-.4,3.06,0,.47,.2,.89,.48,1.26,.85,.37,.36,.65,.79,.85,1.25,.2,.47,.3,.99,.3,1.52s-.1,1.05-.3,1.52c-.2,.46-.48,.89-.85,1.25-.37,.36-.79,.65-1.26,.85l-9.13,3.84v22.69l9.13,3.84c.47,.2,.89,.48,1.26,.85s.65,.79,.85,1.25c.2,.47,.3,.99,.3,1.52s-.1,1.05-.3,1.52c-.2,.47-.48,.89-.85,1.25-.37,.36-.79,.65-1.26,.85-.95,.4-2.11,.4-3.06,0-.47-.2-.89-.48-1.26-.85-.37-.36-.65-.78-.85-1.25-.18-.43-.28-.89-.3-1.36h-7.04c.04,2.75,1.14,5.33,3.1,7.28,2,1.99,4.65,3.08,7.48,3.08s5.48-1.09,7.48-3.08c2-1.99,3.1-4.63,3.1-7.44s-1.1-5.45-3.1-7.44c-1.81-1.8-4.19-2.88-6.73-3.06l1.11,1.11-1.08,1.07-2.98-2.97,2.98-2.97,1.08,1.07-1.13,1.12c3.55-.1,6.96-.9,10.15-2.38-2.95-2.21-6.44-3.45-10.14-3.59l1.13,1.12-1.08,1.07-2.98-2.97,2.98-2.97,1.08,1.07-1.13,1.12c3.7-.15,7.2-1.38,10.14-3.59Z"/></g><g><path class="cls-1" d="M4.89,81.21c.41-.34,.96-.51,1.64-.51,.46,0,.86,.08,1.19,.24,.33,.16,.58,.38,.75,.65,.17,.27,.25,.58,.25,.93,0,.4-.1,.73-.31,1.01-.21,.27-.45,.46-.74,.55v.04c.37,.11,.65,.32,.86,.6,.21,.29,.31,.66,.31,1.12,0,.38-.09,.72-.26,1.01-.17,.3-.43,.53-.77,.69-.34,.17-.75,.25-1.22,.25-.72,0-1.3-.18-1.75-.54-.45-.36-.69-.89-.71-1.59h1.29c.01,.31,.12,.56,.32,.74,.2,.19,.47,.28,.82,.28,.32,0,.57-.09,.74-.27,.17-.18,.26-.41,.26-.69,0-.38-.12-.65-.36-.81-.24-.16-.61-.25-1.12-.25h-.28v-1.09h.28c.9,0,1.35-.3,1.35-.9,0-.27-.08-.48-.24-.63-.16-.15-.39-.23-.7-.23s-.53,.08-.69,.24c-.16,.16-.25,.36-.28,.61h-1.3c.03-.63,.25-1.12,.67-1.46Z"/><path class="cls-1" d="M15.05,86.49h-2.64l-.44,1.26h-1.4l2.38-6.61h1.55l2.38,6.61h-1.41l-.44-1.26Zm-.36-1.06l-.96-2.76-.96,2.76h1.92Z"/><path class="cls-1" d="M22.15,87.74l-1.46-2.57h-.63v2.57h-1.33v-6.6h2.49c.51,0,.95,.09,1.31,.27,.36,.18,.63,.42,.81,.73s.27,.65,.27,1.03c0,.43-.13,.83-.38,1.18s-.63,.59-1.13,.72l1.59,2.67h-1.54Zm-2.09-3.56h1.11c.36,0,.63-.09,.81-.26s.27-.41,.27-.72-.09-.54-.27-.7c-.18-.17-.45-.25-.81-.25h-1.11v1.94Z"/><path class="cls-1" d="M29.19,87.74l-1.46-2.57h-.63v2.57h-1.33v-6.6h2.49c.51,0,.95,.09,1.31,.27,.36,.18,.63,.42,.81,.73s.27,.65,.27,1.03c0,.43-.13,.83-.38,1.18s-.63,.59-1.13,.72l1.59,2.67h-1.54Zm-2.09-3.56h1.11c.36,0,.63-.09,.81-.26s.27-.41,.27-.72-.09-.54-.27-.7c-.18-.17-.45-.25-.81-.25h-1.11v1.94Z"/><path class="cls-1" d="M34.17,87.38c-.52-.29-.93-.69-1.23-1.2-.3-.51-.46-1.09-.46-1.74s.15-1.22,.46-1.73c.3-.51,.72-.92,1.23-1.2s1.09-.43,1.71-.43,1.2,.15,1.71,.43c.52,.29,.92,.69,1.23,1.2,.3,.51,.45,1.09,.45,1.73s-.15,1.23-.45,1.74c-.3,.51-.71,.92-1.23,1.2-.52,.29-1.09,.43-1.71,.43s-1.19-.15-1.71-.43Zm2.76-1.02c.3-.18,.54-.44,.71-.77,.17-.33,.26-.72,.26-1.16s-.09-.83-.26-1.16c-.17-.33-.41-.58-.71-.76s-.66-.26-1.05-.26-.75,.09-1.06,.26-.55,.43-.72,.76c-.17,.33-.26,.72-.26,1.16s.09,.83,.26,1.16c.17,.33,.41,.59,.72,.77s.66,.27,1.06,.27,.75-.09,1.05-.27Z"/><path class="cls-1" d="M50.07,81.15l-1.85,6.6h-1.57l-1.24-4.7-1.3,4.7h-1.56l-1.78-6.6h1.42l1.17,5.12,1.35-5.12h1.48l1.27,5.09,1.18-5.09h1.43Z"/><path class="cls-1" d="M52.92,87.57c-.37-.16-.66-.38-.88-.68-.22-.3-.33-.65-.33-1.05h1.42c.02,.27,.12,.49,.29,.64,.17,.16,.41,.24,.72,.24s.55-.07,.73-.22c.18-.15,.27-.34,.27-.58,0-.2-.06-.36-.18-.48s-.27-.23-.45-.3-.43-.15-.74-.24c-.43-.13-.78-.25-1.05-.37s-.5-.31-.69-.56c-.19-.25-.29-.58-.29-1,0-.39,.1-.73,.29-1.02,.2-.29,.47-.51,.83-.67s.76-.23,1.22-.23c.68,0,1.24,.17,1.67,.5s.66,.79,.71,1.38h-1.46c-.01-.23-.11-.41-.29-.56-.18-.15-.42-.22-.72-.22-.26,0-.47,.07-.62,.2-.16,.13-.23,.32-.23,.58,0,.18,.06,.32,.18,.44,.12,.12,.26,.21,.44,.28s.42,.16,.74,.25c.43,.13,.78,.25,1.05,.38,.27,.13,.51,.32,.7,.57,.2,.25,.29,.58,.29,.99,0,.35-.09,.68-.28,.98-.18,.3-.45,.54-.81,.72s-.78,.27-1.26,.27-.88-.08-1.25-.24Z"/><path class="cls-1" d="M63.23,83.13c-.15-.28-.36-.49-.63-.63-.27-.14-.58-.22-.93-.22-.39,0-.74,.09-1.04,.26-.3,.18-.54,.43-.71,.76-.17,.33-.26,.71-.26,1.13s.09,.83,.26,1.15,.42,.58,.73,.76,.67,.26,1.08,.26c.51,0,.92-.13,1.24-.4s.53-.64,.64-1.12h-2.28v-1.01h3.59v1.15c-.09,.46-.28,.89-.57,1.28-.29,.39-.67,.7-1.13,.94-.46,.24-.97,.35-1.54,.35-.64,0-1.22-.14-1.73-.43-.52-.29-.92-.68-1.22-1.2-.29-.51-.44-1.09-.44-1.74s.15-1.23,.44-1.74c.29-.51,.7-.91,1.22-1.2,.52-.29,1.09-.43,1.72-.43,.75,0,1.4,.18,1.95,.54,.55,.36,.93,.87,1.14,1.53h-1.53Z"/><path class="cls-1" d="M70.92,86.49h-2.64l-.44,1.26h-1.4l2.38-6.61h1.55l2.38,6.61h-1.41l-.44-1.26Zm-.36-1.06l-.96-2.76-.96,2.76h1.92Z"/><path class="cls-1" d="M81.83,81.15v6.6h-1.33v-4.29l-1.78,4.29h-1.01l-1.79-4.29v4.29h-1.33v-6.6h1.51l2.11,4.9,2.11-4.9h1.5Z"/><path class="cls-1" d="M85.42,82.22v1.65h2.23v1.05h-2.23v1.75h2.52v1.08h-3.85v-6.61h3.85v1.08h-2.52Z"/><path class="cls-1" d="M90.09,87.59c-.15-.15-.23-.33-.23-.55s.08-.41,.23-.55c.16-.15,.35-.22,.59-.22s.43,.07,.58,.22c.15,.15,.23,.33,.23,.55s-.08,.4-.23,.55c-.15,.15-.34,.22-.58,.22s-.44-.07-.59-.22Z"/><path class="cls-1" d="M93.63,82.69c.29-.51,.7-.91,1.21-1.2,.51-.29,1.08-.43,1.71-.43,.74,0,1.39,.19,1.95,.57,.56,.38,.95,.9,1.17,1.57h-1.53c-.15-.31-.37-.55-.64-.71s-.59-.24-.95-.24c-.39,0-.73,.09-1.03,.27-.3,.18-.53,.43-.7,.76s-.25,.71-.25,1.15,.08,.82,.25,1.15,.4,.59,.7,.77,.64,.27,1.03,.27c.36,0,.68-.08,.95-.24,.28-.16,.49-.4,.64-.71h1.53c-.22,.67-.61,1.2-1.16,1.57-.55,.37-1.2,.56-1.95,.56-.63,0-1.2-.14-1.71-.43-.51-.29-.91-.68-1.21-1.2-.29-.51-.44-1.09-.44-1.74s.15-1.23,.44-1.74Z"/><path class="cls-1" d="M103.12,87.38c-.52-.29-.93-.69-1.23-1.2-.3-.51-.46-1.09-.46-1.74s.15-1.22,.46-1.73c.3-.51,.72-.92,1.23-1.2s1.09-.43,1.71-.43,1.2,.15,1.71,.43c.52,.29,.92,.69,1.23,1.2,.3,.51,.45,1.09,.45,1.73s-.15,1.23-.45,1.74c-.3,.51-.71,.92-1.23,1.2-.52,.29-1.09,.43-1.71,.43s-1.19-.15-1.71-.43Zm2.76-1.02c.3-.18,.54-.44,.71-.77,.17-.33,.26-.72,.26-1.16s-.09-.83-.26-1.16c-.17-.33-.41-.58-.71-.76s-.66-.26-1.05-.26-.75,.09-1.06,.26-.55,.43-.72,.76c-.17,.33-.26,.72-.26,1.16s.09,.83,.26,1.16c.17,.33,.41,.59,.72,.77s.66,.27,1.06,.27,.75-.09,1.05-.27Z"/><path class="cls-1" d="M117.38,81.15v6.6h-1.33v-4.29l-1.78,4.29h-1.01l-1.79-4.29v4.29h-1.33v-6.6h1.51l2.11,4.9,2.11-4.9h1.5Z"/></g></g></g></svg>