<svg id="bb025ad6-7d0c-4800-80e8-063be01d228e" data-name="Layer 1" xmlns="http://www.w3.org/2000/svg" width="64" height="64" viewBox="0 0 64 64">
  <g>
    <polygon points="4.54 20.21 4.57 19.59 2 19.5 2.09 22.03 2.73 22.01 2.67 20.61 26.84 44.41 26.93 44.5 27.38 44.06 3.12 20.16 4.54 20.21" style="fill: #333"/>
    <polygon points="21.85 20.21 21.88 19.59 19.31 19.5 19.4 22.03 20.04 22.01 19.98 20.61 44.15 44.41 44.24 44.5 44.69 44.06 20.43 20.16 21.85 20.21" style="fill: #333"/>
    <polygon points="37.74 20.16 39.16 20.21 39.19 19.59 36.62 19.5 36.71 22.03 37.35 22.01 37.29 20.61 61.46 44.41 61.55 44.5 62 44.06 37.74 20.16" style="fill: #333"/>
  </g>
</svg>
