<?xml version="1.0" encoding="UTF-8"?><svg id="Layer_1" xmlns="http://www.w3.org/2000/svg" viewBox="0 0 64 64"><defs><style>.cls-1{fill:#f2f2f2;}.cls-2{fill:red;}</style></defs><g><polygon class="cls-1" points="46.87 30.32 43.43 30.32 43.43 19.53 32.65 19.53 32.65 16.09 46.87 16.09 46.87 30.32"/><path class="cls-1" d="M40.7,25.07l.02-.02v-2.79h-2.82c-5.68,5.68-2.28,2.34-8,8.23-9.25,9.51-6.02,6.8-16.95,18.67l-.02,.02h0l.86,.86h0l.02-.02c11.86-10.92,9.15-7.69,18.67-16.95,5.88-5.72,2.55-2.32,8.22-8Z"/></g><g><polygon class="cls-2" points="7 24.36 1 24.36 1 1 24.36 1 24.36 7 7 7 7 24.36"/><polygon class="cls-2" points="24.36 63 1 63 1 39.64 7 39.64 7 57 24.36 57 24.36 63"/><polygon class="cls-2" points="63 24.36 57 24.36 57 7 39.64 7 39.64 1 63 1 63 24.36"/><polygon class="cls-2" points="63 63 39.64 63 39.64 57 57 57 57 39.64 63 39.64 63 63"/></g></svg>