<?xml version="1.0" encoding="UTF-8"?><svg id="Layer_1" xmlns="http://www.w3.org/2000/svg" viewBox="0 0 64 64"><defs><style>.cls-1{fill:#1a1a1a;}</style></defs><path class="cls-1" d="M52.54,55.3l-41.33-.2c-1.43,0-2.59,1.14-2.6,2.57,0,1.43,1.14,2.59,2.57,2.6l41.33,.2c1.43,0,2.59-1.14,2.6-2.57s-1.14-2.59-2.57-2.6Zm.18-36.17c-4.7-.02-8.69,3.11-9.96,7.4l-2.68-6.17c1.49-1.82,2.32-4.08,2.34-6.44,.03-5.7-4.58-10.36-10.28-10.38s-10.36,4.58-10.38,10.28c-.01,2.36,.8,4.63,2.27,6.47l-2.75,6.14c-1.23-4.3-5.19-7.47-9.89-7.49-5.7-.03-10.36,4.58-10.38,10.28-.02,3.94,2.21,7.49,5.67,9.24l2.05,9.44c.3,1.39,1.68,2.27,3.07,1.98,1.39-.3,2.28-1.68,1.98-3.07l-2.33-10.76c-.19-.89-.84-1.62-1.71-1.9-2.14-.71-3.57-2.68-3.56-4.9,.01-2.85,2.34-5.16,5.19-5.14,2.85,.01,5.16,2.34,5.14,5.19,0,.28-.05,.55-.09,.82-.18,1.11,.38,2.21,1.38,2.72l2.7,1.37c.63,.32,1.36,.36,2.03,.13,.67-.24,1.2-.74,1.49-1.38l5.43-12.15c.47-1.05,.19-2.28-.69-3.02-1.18-1.01-1.86-2.44-1.85-3.94,.01-2.85,2.34-5.16,5.19-5.14s5.16,2.34,5.14,5.19c0,1.5-.69,2.93-1.88,3.92-.88,.73-1.17,1.96-.71,3.01l5.31,12.2c.28,.65,.82,1.15,1.48,1.4,.67,.24,1.4,.2,2.03-.11l2.71-1.34c1.01-.5,1.58-1.6,1.41-2.71-.04-.27-.09-.54-.09-.82,.01-2.85,2.34-5.16,5.19-5.14,2.85,.01,5.16,2.34,5.14,5.19-.01,2.22-1.46,4.18-3.6,4.86-.87,.28-1.53,.99-1.73,1.89l-2.44,10.73c-.32,1.39,.55,2.77,1.95,3.09,.19,.04,.38,.06,.56,.06,1.18,0,2.26-.81,2.53-2.01l2.14-9.42c3.48-1.71,5.74-5.24,5.76-9.18,.03-5.7-4.58-10.36-10.28-10.38Z"/></svg>