<?xml version="1.0" encoding="UTF-8"?><svg id="Layer_1" xmlns="http://www.w3.org/2000/svg" viewBox="0 0 64 64"><defs><style>.cls-1{fill:#1a1a1a;}</style></defs><path class="cls-1" d="M32,59c-14.89,0-27-12.11-27-27S17.11,5,32,5c2.9,0,5.75,.46,8.48,1.37l-1.27,3.79c-2.32-.77-4.75-1.17-7.22-1.17-12.68,0-23,10.32-23,23s10.32,23,23,23,23-10.32,23-23c0-2.51-.41-4.99-1.21-7.36l3.79-1.29c.95,2.78,1.43,5.69,1.43,8.64,0,14.89-12.11,27-27,27Z"/><path class="cls-1" d="M32,50.5c-10.2,0-18.5-8.3-18.5-18.5S21.8,13.5,32,13.5c2.04,0,4.05,.33,5.97,.99l-1.3,3.78c-1.5-.52-3.07-.78-4.67-.78-8,0-14.5,6.5-14.5,14.5s6.5,14.5,14.5,14.5,14.5-6.5,14.5-14.5c0-1.54-.24-3.06-.73-4.52l3.8-1.26c.62,1.86,.93,3.81,.93,5.78,0,10.2-8.3,18.5-18.5,18.5Z"/><path class="cls-1" d="M32,42c-5.51,0-10-4.49-10-10s4.49-10,10-10,10,4.49,10,10-4.49,10-10,10Zm0-16c-3.31,0-6,2.69-6,6s2.69,6,6,6,6-2.69,6-6-2.69-6-6-6Z"/><rect class="cls-1" x="27.75" y="20.07" width="29.16" height="3" transform="translate(-2.85 36.25) rotate(-45)"/><g><polygon class="cls-1" points="45.71 18.98 42.71 18.98 42.71 11.29 52.78 1.21 52.78 11.91 49.78 11.91 49.78 8.46 45.71 12.53 45.71 18.98"/><polygon class="cls-1" points="52.61 21.19 44.92 21.19 44.92 18.19 51.37 18.19 55.44 14.11 51.99 14.11 51.99 11.11 62.68 11.11 52.61 21.19"/></g></svg>