<?xml version="1.0" encoding="UTF-8"?><svg id="Layer_1" xmlns="http://www.w3.org/2000/svg" viewBox="0 0 64 64"><defs><style>.cls-1{fill:#1a1a1a;}</style></defs><g><path class="cls-1" d="M57.64,33.17h-1.13l-7.87-18-7.87,18h-1.13l8.39-19.17c.23-.53,.99-.53,1.22,0l8.39,19.17Z"/><path class="cls-1" d="M59.17,34.17h-3.32l-7.21-16.5-7.21,16.5h-3.31l9-20.57c.26-.61,.86-1,1.53-1h0c.66,0,1.26,.39,1.53,1l9,20.57Z"/></g><path class="cls-1" d="M48.64,42.93c-4.95,0-9.4-3.32-10.82-8.07l-.58-1.93h22.79l-.58,1.93c-1.42,4.75-5.87,8.07-10.82,8.07Zm-7.08-7c1.48,2.43,4.16,4,7.08,4s5.6-1.57,7.08-4h-14.17Z"/><g><path class="cls-1" d="M24.36,33.17h-1.13L15.36,15.17l-7.87,18h-1.13L14.75,14c.23-.53,.99-.53,1.22,0l8.39,19.17Z"/><path class="cls-1" d="M25.89,34.17h-3.31l-7.21-16.5-7.21,16.5h-3.32L13.83,13.6c.27-.61,.87-1,1.53-1h0c.66,0,1.26,.39,1.53,1l9,20.57Z"/></g><path class="cls-1" d="M15.36,42.93c-4.95,0-9.4-3.32-10.82-8.07l-.58-1.93H26.75l-.58,1.93c-1.42,4.75-5.87,8.07-10.82,8.07Zm-7.08-7c1.48,2.43,4.16,4,7.08,4s5.6-1.57,7.08-4H8.28Z"/><rect class="cls-1" x="30.5" y="17.27" width="3" height="33.79"/><rect class="cls-1" x="34.8" y="12.6" width="15.7" height="3"/><rect class="cls-1" x="13.5" y="12.6" width="15.7" height="3"/><rect class="cls-1" x="19.72" y="49.06" width="24.56" height="4"/><path class="cls-1" d="M32,18.49c-2.24,0-4.07-1.8-4.07-4,0-1.88,2.44-4.6,3.18-5.38l.89-.94,.89,.94c.75,.79,3.18,3.51,3.18,5.38,0,2.21-1.83,4-4.07,4Zm0-6.7c-.92,1.14-1.63,2.27-1.63,2.69,0,.86,.73,1.56,1.63,1.56s1.63-.7,1.63-1.56c0-.42-.71-1.56-1.63-2.69Z"/></svg>