<?xml version="1.0" encoding="UTF-8"?><svg id="Layer_1" xmlns="http://www.w3.org/2000/svg" viewBox="0 0 64 64"><defs><style>.cls-1{fill:#1a1a1a;}</style></defs><rect class="cls-1" x="37.6" y="30.59" width="18.55" height="3" transform="translate(-9.87 34.67) rotate(-36.99)"/><g><polygon class="cls-1" points="47.86 32.15 44.89 31.73 45.8 25.23 55.9 17.63 54.57 27.09 51.6 26.68 51.92 24.38 48.6 26.88 47.86 32.15"/><polygon class="cls-1" points="53.17 35.01 46.67 34.09 47.09 31.12 52.36 31.86 55.68 29.36 53.38 29.04 53.8 26.07 63.27 27.4 53.17 35.01"/></g><rect class="cls-1" x="13.25" y="21.25" width="3" height="20.56" transform="translate(-19.94 34.43) rotate(-69.72)"/><g><rect class="cls-1" x="2.69" y="24.23" width="12.78" height="3" transform="translate(-10.02 6.24) rotate(-25)"/><rect class="cls-1" x="5.21" y="25.84" width="3" height="12.78" transform="translate(-12.99 5.85) rotate(-25)"/></g><g><rect class="cls-1" x="30.5" y="23.98" width="3" height="5.15"/><rect class="cls-1" x="30.5" y="42.87" width="3" height="5.15"/><rect class="cls-1" x="36.1" y="27.82" width="5.15" height="3" transform="translate(-9.4 35.94) rotate(-45)"/><rect class="cls-1" x="22.75" y="41.18" width="5.15" height="3" transform="translate(-22.76 30.41) rotate(-45)"/><rect class="cls-1" x="23.82" y="26.75" width="3" height="5.15" transform="translate(-13.32 26.49) rotate(-45)"/><rect class="cls-1" x="37.18" y="40.1" width="3" height="5.15" transform="translate(-18.85 39.85) rotate(-45)"/></g></svg>