<?xml version="1.0" encoding="UTF-8"?><svg id="Layer_1" xmlns="http://www.w3.org/2000/svg" viewBox="0 0 64 64"><defs><style>.cls-1{fill:#1a1a1a;}</style></defs><path class="cls-1" d="M14.5,8.14c.83,.24,1.7,.41,2.5,.73,1.1,.44,2.14,1.03,3.23,1.49,2.03,.85,3.99,.03,4.81-2.02,.4-1,.73-2.04,1.1-3.05,.98-2.65,3.2-4.28,5.85-4.29,2.66,0,4.92,1.65,5.89,4.33,.33,.92,.64,1.85,.98,2.77,.86,2.33,2.9,3.18,5.17,2.17,.94-.42,1.86-.9,2.79-1.33,2.53-1.17,5.2-.75,7.09,1.12,1.9,1.87,2.35,4.59,1.16,7.14-.42,.91-.88,1.81-1.31,2.72-1.06,2.28-.21,4.36,2.15,5.24,1.16,.43,2.36,.78,3.48,1.29,2.36,1.08,3.61,3.01,3.6,5.58,0,2.57-1.26,4.49-3.63,5.56-1.1,.5-2.27,.85-3.41,1.26-2.4,.88-3.26,2.98-2.17,5.28,.48,1,.98,1.99,1.42,3.01,1.03,2.36,.52,5-1.28,6.79-1.77,1.77-4.38,2.3-6.73,1.31-1.04-.44-2.05-.97-3.08-1.44-2.41-1.1-4.41-.25-5.31,2.23-.37,1.02-.7,2.05-1.11,3.05-.98,2.43-3.18,3.93-5.69,3.94-2.51,0-4.73-1.48-5.72-3.89-.42-1.02-.76-2.08-1.13-3.13-.87-2.42-2.93-3.29-5.26-2.22-.98,.45-1.95,.95-2.94,1.39-2.45,1.08-5.11,.59-6.93-1.26-1.81-1.83-2.28-4.46-1.2-6.87,.44-.99,.93-1.95,1.38-2.94,1.07-2.36,.22-4.37-2.21-5.26-1.11-.41-2.26-.75-3.34-1.23-2.4-1.07-3.68-2.99-3.67-5.61,0-2.58,1.26-4.48,3.62-5.56,1.08-.49,2.22-.84,3.33-1.24,2.48-.89,3.33-2.9,2.24-5.3-.59-1.31-1.34-2.59-1.73-3.96-1.09-3.85,1.93-7.64,6.02-7.78Zm38.74,6.31c-.07-2.5-2.52-4.24-4.83-3.35-1.32,.51-2.56,1.22-3.87,1.76-2.97,1.22-6.42-.15-7.73-3.09-.52-1.17-.92-2.4-1.37-3.61-.61-1.64-1.82-2.55-3.41-2.55-1.6,0-2.8,.88-3.42,2.53-.42,1.11-.76,2.25-1.24,3.33-1.48,3.39-4.99,4.71-8.36,3.18-.94-.43-1.87-.88-2.8-1.31-1.65-.76-3.17-.56-4.3,.56-1.12,1.12-1.33,2.65-.58,4.29,.5,1.08,1.04,2.13,1.49,3.23,1.25,3.02-.09,6.46-3.07,7.8-1.17,.53-2.41,.92-3.62,1.37-1.66,.62-2.54,1.8-2.54,3.41,0,1.62,.86,2.8,2.53,3.42,.99,.37,2,.69,2.98,1.07,3.7,1.45,5.14,5.05,3.48,8.66-.42,.91-.87,1.81-1.29,2.73-.73,1.61-.51,3.12,.59,4.22,1.12,1.13,2.65,1.34,4.29,.58,1.1-.51,2.18-1.07,3.3-1.52,2.97-1.22,6.42,.15,7.74,3.08,.52,1.15,.9,2.36,1.34,3.54,.64,1.72,1.82,2.62,3.43,2.62,1.64,0,2.81-.88,3.45-2.6,.4-1.09,.75-2.2,1.21-3.26,1.49-3.4,4.98-4.72,8.36-3.19,.94,.43,1.87,.88,2.8,1.31,1.64,.76,3.18,.56,4.3-.55,1.13-1.13,1.33-2.68,.54-4.36-.5-1.07-1.06-2.13-1.5-3.23-1.21-2.99,.16-6.41,3.1-7.73,1.2-.53,2.46-.93,3.69-1.39,1.62-.62,2.49-1.85,2.47-3.46-.02-1.55-.92-2.75-2.53-3.34-.92-.34-1.85-.65-2.77-.99-3.91-1.44-5.42-5.13-3.63-8.89,.41-.86,.85-1.71,1.22-2.59,.23-.54,.35-1.12,.53-1.68Z"/><path class="cls-1" d="M31.93,44.89c-7.17-.04-12.87-5.78-12.84-12.93,.03-7.19,5.82-12.9,13.01-12.85,7.15,.05,12.86,5.83,12.81,12.98-.05,7.16-5.81,12.84-12.97,12.8Zm-10.28-12.63c.11,5.76,4.97,10.21,10.52,10.08,6.07-.14,10.22-5.11,10.16-10.44-.07-6.07-5.26-10.55-10.83-10.24-5.58,.31-10.13,5.18-9.85,10.6Z"/></svg>