<?xml version="1.0" encoding="UTF-8"?><svg id="Layer_1" xmlns="http://www.w3.org/2000/svg" viewBox="0 0 64 64"><defs><style>.cls-1{fill:#333;}</style></defs><path class="cls-1" d="M32,15c-9.37,0-17,7.63-17,17s7.63,17,17,17,17-7.63,17-17-7.63-17-17-17Zm-14.95,17c0-8.22,6.73-14.95,14.95-14.95,3.83,0,7.32,1.47,9.97,3.86l-5.47,5.53c-1.47-.47-3.01-.71-4.57-.71-4.79,0-9.3,2.28-12.4,6.26l-.57,.72,.57,.72c1.54,1.98,3.43,3.53,5.52,4.59l-4.02,4.07c-2.45-2.67-3.97-6.21-3.97-10.09Zm10.63,3.36l-.91,.92c-1.81-.8-3.46-2-4.85-3.57,2.07-2.34,4.74-3.89,7.63-4.43-.41,.22-.8,.51-1.15,.86-.94,.95-1.46,2.22-1.46,3.57,0,.95,.26,1.86,.74,2.64Zm4.32,11.59c-3.5,0-6.73-1.23-9.29-3.27l8.31-8.41,3.43-3.47,1.72-1.73,.91-.93,1.73-1.74,4.77-4.82c2.1,2.58,3.37,5.86,3.37,9.42,0,8.22-6.73,14.95-14.95,14.95Z"/><path class="cls-1" d="M44.33,31.99c-1.17-1.5-2.55-2.76-4.06-3.75l-1.66,1.68c1.21,.74,2.34,1.67,3.32,2.78-2.07,2.34-4.74,3.88-7.63,4.43,.41-.22,.8-.51,1.15-.87,1.22-1.23,1.67-2.94,1.37-4.53l-5.54,5.6-.31,.31-1.76,1.78c.89,.17,1.79,.26,2.72,.26,4.79,0,9.3-2.28,12.41-6.26l.57-.72-.57-.72Z"/></svg>