<svg id="ba23b5fa-5e64-467f-be56-5d13457d3099" data-name="Layer 1" xmlns="http://www.w3.org/2000/svg" width="64" height="64" viewBox="0 0 64 64">
  <g style="opacity: 0.2">
    <rect x="7" y="7" width="50" height="50" rx="25" style="fill: none;stroke: #333;stroke-miterlimit: 10;stroke-width: 3px"/>
  </g>
  <g style="opacity: 0.2">
    <rect x="12" y="12" width="40" height="40" rx="20" style="fill: none;stroke: #333;stroke-miterlimit: 10;stroke-width: 3px"/>
  </g>
  <g style="opacity: 0.2">
    <rect x="17" y="17" width="30" height="30" rx="15" style="fill: none;stroke: #333;stroke-miterlimit: 10;stroke-width: 3px"/>
  </g>
  <g>
    <path d="M32,21A11,11,0,1,0,43,32,11,11,0,0,0,32,21ZM22.33,32A9.7,9.7,0,0,1,32,22.33a9.59,9.59,0,0,1,6.45,2.5l-3.54,3.58a9.55,9.55,0,0,0-3-.47,10.17,10.17,0,0,0-8,4l-.37.47.37.47a10.54,10.54,0,0,0,3.57,3l-2.6,2.63A9.63,9.63,0,0,1,22.33,32Zm6.88,2.17-.59.6a9.14,9.14,0,0,1-3.14-2.31,8.79,8.79,0,0,1,4.94-2.86,3.17,3.17,0,0,0-1.69,2.86A3.2,3.2,0,0,0,29.21,34.17ZM32,41.67a9.62,9.62,0,0,1-6-2.12l5.38-5.43,2.22-2.25,1.11-1.12.59-.6L36.41,29l3.08-3.11A9.58,9.58,0,0,1,41.67,32,9.7,9.7,0,0,1,32,41.67Z" style="fill: #333"/>
    <path d="M40,32a11.09,11.09,0,0,0-2.62-2.42l-1.08,1.09a9.62,9.62,0,0,1,2.15,1.8,8.81,8.81,0,0,1-4.94,2.87,3.12,3.12,0,0,0,.74-.57,3.26,3.26,0,0,0,.89-2.93l-3.59,3.63-.19.2-1.15,1.15A9.46,9.46,0,0,0,32,37a10.2,10.2,0,0,0,8-4l.37-.47Z" style="fill: #333"/>
  </g>
</svg>
