<?xml version="1.0" encoding="UTF-8"?><svg id="Layer_1" xmlns="http://www.w3.org/2000/svg" viewBox="0 0 64 64"><defs><style>.cls-1{fill:none;stroke:#333;stroke-miterlimit:10;stroke-width:3px;}.cls-2{fill:red;}.cls-3{fill:#1a1a1a;}.cls-4{opacity:.2;}</style></defs><g class="cls-4"><rect class="cls-1" x="7" y="7" width="50" height="50" rx="25" ry="25"/></g><g class="cls-4"><rect class="cls-1" x="12" y="12" width="40" height="40" rx="20" ry="20"/></g><path class="cls-2" d="M43.55,30.95c-1.05-1.35-2.29-2.5-3.68-3.42l4.71-4.76-3.14-3.16-5.91,5.97c-1.17-.3-2.35-.45-3.54-.45-4.46,0-8.67,2.12-11.55,5.81l-1.09,1.38,1.08,1.38c1.06,1.36,2.29,2.51,3.68,3.42l-4.05,4.09,3.14,3.16,5.23-5.29,1,.19c.83,.16,1.69,.24,2.55,.24,4.46,0,8.67-2.12,11.55-5.81l1.09-1.38-1.08-1.38Zm-6.17,.32v-.06c.5,.33,.97,.71,1.42,1.12-.45,.42-.92,.79-1.43,1.11,.14-.71,.15-1.44,0-2.17Zm-10.76,2.17c-.5-.33-.98-.7-1.42-1.11,.45-.41,.92-.79,1.42-1.11-.07,.36-.11,.73-.11,1.11s.04,.74,.11,1.11Z"/><g><path class="cls-3" d="M42.58,31.71c-1-1.28-2.17-2.35-3.46-3.19l-1.42,1.43c1.03,.63,1.99,1.42,2.83,2.37-1.77,2-4.04,3.31-6.51,3.78,.35-.19,.68-.44,.98-.74,1.04-1.04,1.43-2.51,1.16-3.86l-4.72,4.77-.26,.26-1.5,1.52c.76,.15,1.53,.22,2.32,.22,4.08,0,7.93-1.94,10.58-5.34l.48-.62-.48-.61Z"/><path class="cls-3" d="M34.15,31.56l1.46-1.47,.78-.79,1.47-1.49,4.96-5.02-.41-.41-.98-.99-5.55,5.61c-1.26-.4-2.56-.61-3.9-.61-4.08,0-7.93,1.94-10.57,5.34l-.48,.61,.48,.62c1.31,1.69,2.92,3.01,4.71,3.91l-4.31,4.36,.98,.99,.41,.41,8.02-8.11,2.92-2.96Zm-5.77,3.03l-.78,.79c-1.54-.68-2.95-1.71-4.13-3.04,1.77-2,4.04-3.31,6.51-3.78-.35,.19-.68,.44-.98,.73-.8,.81-1.25,1.89-1.25,3.04,0,.81,.22,1.59,.63,2.25Zm1.33-2.25c0-.62,.24-1.2,.67-1.64,.44-.45,1.03-.67,1.62-.67,.26,0,.52,.05,.77,.14l-2.92,2.95c-.09-.24-.14-.51-.14-.77Z"/></g></svg>