<svg id="aabafc92-f302-4182-9e93-90a4452a90d7" data-name="Layer 1" xmlns="http://www.w3.org/2000/svg" width="64" height="64" viewBox="0 0 64 64">
  <g>
    <path d="M32,1A31,31,0,1,0,63,32,31,31,0,0,0,32,1ZM4.75,32A27.19,27.19,0,0,1,50.18,11.78l-10,10.09a27.63,27.63,0,0,0-8.34-1.3A28.67,28.67,0,0,0,9.25,32l-1,1.32,1,1.31A29.85,29.85,0,0,0,19.32,43L12,50.4A27.13,27.13,0,0,1,4.75,32Zm19.38,6.12L22.46,39.8a25.72,25.72,0,0,1-8.84-6.5,24.75,24.75,0,0,1,13.92-8.08,9.51,9.51,0,0,0-2.1,1.57,9.25,9.25,0,0,0-1.31,11.33ZM32,59.25a27.06,27.06,0,0,1-16.93-6L30.23,38l6.25-6.32,3.13-3.15,1.66-1.7,3.15-3.18,8.69-8.78A27.2,27.2,0,0,1,32,59.25Z" style="fill: #333"/>
    <path d="M54.49,32a30.62,30.62,0,0,0-7.4-6.83l-3,3.07a26,26,0,0,1,6,5.08A24.74,24.74,0,0,1,36.2,41.37a9.16,9.16,0,0,0,4.58-9.84L30.69,41.74l-.56.57-3.22,3.25a26.28,26.28,0,0,0,4.95.46A28.69,28.69,0,0,0,54.49,34.61l1-1.31Z" style="fill: #333"/>
  </g>
</svg>
