<svg id="a313f5b4-aa64-45c9-8bb7-5e8661b998da" data-name="Layer 1" xmlns="http://www.w3.org/2000/svg" width="64" height="64" viewBox="0 0 64 64">
  <g>
    <path d="M55.91,31.36a32.52,32.52,0,0,0-7.82-7.22l-3.21,3.24a27.58,27.58,0,0,1,6.4,5.37,26.19,26.19,0,0,1-14.71,8.53,9.51,9.51,0,0,0,2.22-1.67,9.75,9.75,0,0,0,2.63-8.73L30.75,41.67l-.59.6-3.4,3.43a27.67,27.67,0,0,0,5.23.5A30.37,30.37,0,0,0,55.91,34.14L57,32.75Z" style="fill: #333"/>
    <path d="M36.87,31l3.31-3.33,1.76-1.8,3.32-3.36L56.48,11.17l-.93-.93L53.33,8,40.8,20.67A29.38,29.38,0,0,0,32,19.3,30.29,30.29,0,0,0,8.09,31.36L7,32.75l1.09,1.39A31.6,31.6,0,0,0,18.74,43L9,52.83l2.21,2.24.93.93L30.26,37.68Zm-13,6.84-1.76,1.78a27,27,0,0,1-9.34-6.87,26.09,26.09,0,0,1,14.71-8.54,10,10,0,0,0-2.22,1.66,9.79,9.79,0,0,0-1.39,12Zm3-5.09A5.27,5.27,0,0,1,28.34,29,5.13,5.13,0,0,1,32,27.52a4.9,4.9,0,0,1,1.73.31L27.13,34.5A5,5,0,0,1,26.82,32.75Z" style="fill: #333"/>
  </g>
</svg>
