<?xml version="1.0" encoding="UTF-8"?><svg id="Layer_1" xmlns="http://www.w3.org/2000/svg" viewBox="0 0 64 64"><defs><style>.cls-1{fill:#f2f2f2;}.cls-2{fill:#999;}</style></defs><path class="cls-2" d="M35.28,4.28c-15.29,0-27.72,12.44-27.72,27.72,0,.34,.04,.68,.05,1.02l-4.06-3.88-2.54,2.66,8.87,8.47,1.17-1.23c.47-.22,.84-.61,1.03-1.08l6.27-6.57-2.66-2.54-3.93,4.12c-.01-.32-.05-.65-.05-.97,0-13,10.57-23.57,23.57-23.57s23.57,10.57,23.57,23.57-10.57,23.57-23.57,23.57c-7.84,0-15.15-3.89-19.55-10.4-.64-.95-1.94-1.2-2.89-.56-.95,.64-1.2,1.94-.56,2.89,5.17,7.66,13.77,12.23,22.99,12.23,15.29,0,27.72-12.44,27.72-27.72S50.56,4.28,35.28,4.28Z"/><polygon class="cls-1" points="40.96 43.3 30.51 35.13 30.51 20.7 34.79 20.7 34.79 33.05 43.59 39.93 40.96 43.3"/></svg>