<svg id="facf30aa-e6ce-4498-9ef5-79be899007a4" data-name="Layer 1" xmlns="http://www.w3.org/2000/svg" width="64" height="64" viewBox="0 0 64 64">
  <g>
    <path d="M31.8,50.92a9.36,9.36,0,0,1-9.37-9.29v-.2h3.45v.2a5.92,5.92,0,0,0,11.83-.08A5.86,5.86,0,0,0,36,37.37a5.92,5.92,0,0,0-1.74-1.21l-.59-.26.63-.12a13.37,13.37,0,0,0,3.58-1.2l.13-.06.1.09.33.32a9.37,9.37,0,0,1-6.62,16Zm-9-9.09a9,9,0,1,0,15.3-6.62L37.92,35a14.09,14.09,0,0,1-3,1.06,6,6,0,0,1,1.34,1,6.32,6.32,0,1,1-10.78,4.75Z" style="fill: #333"/>
    <path d="M38,34.07l-.1-.08a9.74,9.74,0,0,0-3.43-1.8L33.83,32l.67-.19A9.74,9.74,0,0,0,37.93,30l.1-.08.12.06a13.3,13.3,0,0,1,2.58,1.86l.16.15-.16.15A13.11,13.11,0,0,1,38.15,34ZM35.21,32a9.79,9.79,0,0,1,2.86,1.59A12.92,12.92,0,0,0,40.3,32a12.76,12.76,0,0,0-2.23-1.59A9.79,9.79,0,0,1,35.21,32Z" style="fill: #333"/>
    <path d="M38,29.48l-.13-.06a13.37,13.37,0,0,0-3.58-1.2l-.63-.12.59-.26A5.92,5.92,0,0,0,36,26.63a5.92,5.92,0,0,0-8.37-8.37,5.93,5.93,0,0,0-1.73,4.11v.2H22.43v-.2a9.37,9.37,0,1,1,16,6.7l-.33.32Zm-3.07-1.54a14.09,14.09,0,0,1,3,1.06l.21-.21a9,9,0,1,0-15.3-6.62h2.65a6.32,6.32,0,1,1,9.44,5.77Z" style="fill: #333"/>
    <path d="M31.8,47.1a5.55,5.55,0,0,1-5.55-5.46v-.21H30.2v.2a1.91,1.91,0,0,0,.13.62,2.06,2.06,0,0,0,.39.57,1.81,1.81,0,0,0,.57.39,1.8,1.8,0,0,0,2-.39,1.8,1.8,0,0,0,.52-1.27,1.77,1.77,0,0,0-.14-.69,1.73,1.73,0,0,0-.38-.57,1.74,1.74,0,0,0-.58-.39L28,37.9V26.11l4.74-2a1.78,1.78,0,0,0,1-1,1.77,1.77,0,0,0,.14-.69,1.76,1.76,0,0,0-.53-1.27,1.7,1.7,0,0,0-.57-.39,1.86,1.86,0,0,0-1.39,0,1.81,1.81,0,0,0-.57.39,2,2,0,0,0-.39.57,1.91,1.91,0,0,0-.13.62v.2H26.25v-.21A5.55,5.55,0,1,1,32.19,28l-.53,0,.8-.8L32.19,27,31,28.18l1.22,1.23.27-.27-.78-.78h.49a12.93,12.93,0,0,1,5.21,1.23l.3.14-.26.2a9.19,9.19,0,0,1-5.24,1.86l-.51,0,.78-.78-.26-.27L31,32l1.22,1.23.26-.27-.78-.79.51,0a9.26,9.26,0,0,1,5.24,1.86l.26.2-.3.14a12.93,12.93,0,0,1-5.21,1.23h-.5l.78-.78-.26-.26L31,35.82l1.22,1.23.26-.27-.79-.8.53,0a5.62,5.62,0,0,1,3.53,1.61A5.55,5.55,0,0,1,31.8,47.1Zm-5.14-5.27a5.14,5.14,0,1,0,8.77-3.92,5.14,5.14,0,0,0-2.7-1.42l.29.29-.83.83L30.4,35.82,32.19,34l.83.83-.34.34a12.55,12.55,0,0,0,4.22-1,8.87,8.87,0,0,0-4.21-1.55L33,33l-.83.83L30.4,32l1.79-1.79L33,31l-.33.33a8.87,8.87,0,0,0,4.21-1.55,12.55,12.55,0,0,0-4.23-1l.35.34-.83.83L30.4,28.18l1.79-1.79.83.83-.29.29a5.14,5.14,0,0,0,2.7-1.42,5.14,5.14,0,1,0-8.77-3.92h3.16A2.19,2.19,0,0,1,30,21.6a2.1,2.1,0,0,1,.47-.7,2.21,2.21,0,0,1,.7-.47,2.18,2.18,0,0,1,1.7,0,2.16,2.16,0,0,1,.7.47,2.21,2.21,0,0,1,.47.7,2.19,2.19,0,0,1,.17.85,2.22,2.22,0,0,1-.17.85,2.19,2.19,0,0,1-1.17,1.17l-4.5,1.9V37.63l4.5,1.9a2.33,2.33,0,0,1,.7.47,2.21,2.21,0,0,1,.47.7,2.26,2.26,0,0,1,.17.85,2.19,2.19,0,0,1-.17.85,2.1,2.1,0,0,1-.47.7,2.16,2.16,0,0,1-.7.47,2.18,2.18,0,0,1-1.7,0,2.16,2.16,0,0,1-.7-.47,2.1,2.1,0,0,1-.47-.7,2.19,2.19,0,0,1-.16-.57Z" style="fill: #333"/>
    <path d="M32,58.87A17.29,17.29,0,0,1,14.69,41.63v-.2h3.54v.2a13.56,13.56,0,1,0,23.31-9.49L41.42,32l.13-.14a13.56,13.56,0,1,0-23.31-9.49v.2H14.69v-.2a17,17,0,0,1,1.36-6.66A17.32,17.32,0,1,1,46.44,32a17.3,17.3,0,0,1-2.2,21.8A17.35,17.35,0,0,1,32,58.87Zm-16.91-17A16.87,16.87,0,0,0,20,53.51a16.81,16.81,0,0,0,12,5A16.92,16.92,0,0,0,47.58,35a17,17,0,0,0-1.52-2.81L46,32l.11-.16A16.91,16.91,0,0,0,44,10.49a16.78,16.78,0,0,0-5.38-3.62,17,17,0,0,0-13.17,0,16.9,16.9,0,0,0-10.32,15.3h2.75A14,14,0,1,1,42,32a14,14,0,1,1-24.13,9.83Z" style="fill: #333"/>
    <path d="M41.16,31.74,41,31.6a13.71,13.71,0,0,0-2.44-1.8l-.24-.14.2-.18.15-.14a9.74,9.74,0,1,0-16.62-7v.2H18.61v-.2A13.19,13.19,0,1,1,41.29,31.6ZM39,29.59a13.72,13.72,0,0,1,2.15,1.59,12.79,12.79,0,1,0-22.13-9h2.65A10.14,10.14,0,1,1,39,29.59Z" style="fill: #333"/>
    <path d="M31.8,54.74A13.18,13.18,0,0,1,18.61,41.63v-.2h3.45v.2a9.74,9.74,0,1,0,16.62-7l-.15-.15-.2-.18.24-.14A13.71,13.71,0,0,0,41,32.4l.15-.14.13.14A13.19,13.19,0,0,1,31.8,54.74ZM19,41.83a12.79,12.79,0,1,0,22.13-9A13.72,13.72,0,0,1,39,34.41a10.14,10.14,0,1,1-17.33,7.42Z" style="fill: #333"/>
  </g>
</svg>
