<svg id="a2470a45-402e-4513-b385-119bf60f2959" data-name="Layer 1" xmlns="http://www.w3.org/2000/svg" width="64" height="64" viewBox="0 0 64 64">
  <g>
    <g>
      <g>
        <path d="M8.55,19.53v1.94H6.48v5.87H4V21.47H2V19.53Z" style="fill: #333"/>
        <path d="M16.05,19.53v7.81H13.6v-3H11.27v3H8.83V19.53h2.44v2.82H13.6V19.53Z" style="fill: #333"/>
        <path d="M20.36,27.34l-1.47-2.8h0v2.8H16.44V19.53h3.63a3.59,3.59,0,0,1,1.62.34,2.27,2.27,0,0,1,1,.92,2.47,2.47,0,0,1,.34,1.3,2.32,2.32,0,0,1-.44,1.39,2.3,2.3,0,0,1-1.25.87l1.7,3Zm-1.48-4.43h1a.8.8,0,0,0,.53-.16.77.77,0,0,0,0-1,.72.72,0,0,0-.53-.18h-1Z" style="fill: #333"/>
        <path d="M25.88,21.49v1h2.43v1.85H25.88v1.1h2.76v1.95H23.43V19.53h5.21v2Z" style="fill: #333"/>
        <path d="M31.46,21.49v1h2.43v1.85H31.46v1.1h2.76v1.95H29V19.53h5.21v2Z" style="fill: #333"/>
      </g>
      <g>
        <path d="M6.56,34.7H4l-.38,1.18H1l2.86-7.8H6.68l2.84,7.8H6.94ZM6,32.86l-.7-2.17-.71,2.17Z" style="fill: #333"/>
        <path d="M13.45,35.88,12,33.08h0v2.8H9.52v-7.8h3.64a3.66,3.66,0,0,1,1.62.33,2.33,2.33,0,0,1,1,.92,2.61,2.61,0,0,1,.34,1.31A2.35,2.35,0,0,1,15.69,32a2.45,2.45,0,0,1-1.25.87l1.7,3ZM12,31.45h1a.75.75,0,0,0,.53-.16.62.62,0,0,0,.18-.5.6.6,0,0,0-.19-.48.7.7,0,0,0-.52-.18H12Z" style="fill: #333"/>
        <path d="M20.28,35.88l-1.46-2.8h0v2.8H16.36v-7.8H20a3.66,3.66,0,0,1,1.62.33,2.38,2.38,0,0,1,1,.92A2.6,2.6,0,0,1,23,30.64,2.34,2.34,0,0,1,22.53,32a2.45,2.45,0,0,1-1.25.87l1.69,3Zm-1.47-4.43h1a.72.72,0,0,0,.52-.16.62.62,0,0,0,.18-.5.63.63,0,0,0-.18-.48.71.71,0,0,0-.52-.18h-1Z" style="fill: #333"/>
        <path d="M25,35.44A3.85,3.85,0,0,1,23.51,34a4.2,4.2,0,0,1,0-4.12A3.85,3.85,0,0,1,25,28.46,4.13,4.13,0,0,1,27,28a4.06,4.06,0,0,1,2,.51,3.76,3.76,0,0,1,1.45,1.43,4.2,4.2,0,0,1,0,4.12A3.76,3.76,0,0,1,29,35.44,4,4,0,0,1,27,36,4,4,0,0,1,25,35.44Zm3.15-2.23a2.2,2.2,0,0,0,0-2.53A1.36,1.36,0,0,0,27,30.21a1.39,1.39,0,0,0-1.14.47,2.2,2.2,0,0,0,0,2.53,1.42,1.42,0,0,0,1.14.47A1.39,1.39,0,0,0,28.12,33.21Z" style="fill: #333"/>
        <path d="M42,28.08l-1.79,7.8h-3l-.9-4.43-.91,4.43h-3l-1.79-7.8h2.64l.7,4.92,1.06-4.92h2.67L38.61,33l.7-4.92Z" style="fill: #333"/>
        <path d="M42.7,35.31a2.41,2.41,0,0,1-1-1.93h2.6c0,.45.24.67.6.67a.58.58,0,0,0,.33-.09.31.31,0,0,0,.14-.29.51.51,0,0,0-.3-.45,6.11,6.11,0,0,0-.92-.39,9.9,9.9,0,0,1-1.24-.52,2.39,2.39,0,0,1-.85-.74,2.07,2.07,0,0,1-.34-1.24,2.15,2.15,0,0,1,.39-1.3,2.58,2.58,0,0,1,1.07-.81A4.13,4.13,0,0,1,44.72,28a3.6,3.6,0,0,1,2.28.66,2.32,2.32,0,0,1,.88,1.86H45.25a.62.62,0,0,0-.17-.47.5.5,0,0,0-.37-.15.33.33,0,0,0-.25.11.39.39,0,0,0-.1.29.5.5,0,0,0,.29.44,6.54,6.54,0,0,0,.93.41,10,10,0,0,1,1.22.53,2.53,2.53,0,0,1,.83.7A1.78,1.78,0,0,1,48,33.47a2.3,2.3,0,0,1-.35,1.28,2.34,2.34,0,0,1-1,.89A3.63,3.63,0,0,1,45,36,3.87,3.87,0,0,1,42.7,35.31Z" style="fill: #333"/>
      </g>
    </g>
    <g>
      <path d="M48.41,41.83a5.4,5.4,0,0,0,1.82,1.22,5.63,5.63,0,0,0,6.13-1.22A5.66,5.66,0,0,0,57.58,40a5.63,5.63,0,0,0-1.22-6.13l-.1-.09-.1-.1a7.83,7.83,0,0,1-1.09.45,7.35,7.35,0,0,1-1.14.3,3.33,3.33,0,0,1,.58.33,3.11,3.11,0,0,1,.52.44,3.65,3.65,0,0,1,.82,1.21,3.89,3.89,0,0,1,.28,1.44,3.8,3.8,0,0,1-.28,1.43A3.7,3.7,0,0,1,55,40.51a3.65,3.65,0,0,1-1.21.82,3.84,3.84,0,0,1-2.88,0,3.65,3.65,0,0,1-1.21-.82,3.81,3.81,0,0,1-.81-1.19,3.94,3.94,0,0,1-.29-1.41H46.76A5.61,5.61,0,0,0,47.19,40,5.47,5.47,0,0,0,48.41,41.83Z" style="fill: #333"/>
      <path d="M60.35,26.14a8,8,0,0,0-13.6-5.63,7.91,7.91,0,0,0-2.33,5.58h1.87a5.8,5.8,0,0,1,.47-2.3,6,6,0,0,1,1.31-2,6.19,6.19,0,0,1,2-1.32,6.13,6.13,0,0,1,4.66,0,6.19,6.19,0,0,1,2,1.32,6,6,0,0,1,1.32,2,6.08,6.08,0,0,1-1.32,6.64l0,.05,0,0a8.33,8.33,0,0,1,1.52,1.13,8,8,0,0,0,1.66-2.55A7.87,7.87,0,0,0,60.35,26.14Z" style="fill: #333"/>
      <path d="M56.36,30.12A5.67,5.67,0,0,0,57.58,24a5.66,5.66,0,0,0-1.22-1.82A5.61,5.61,0,0,0,50.23,21a5.4,5.4,0,0,0-1.82,1.22A5.47,5.47,0,0,0,47.19,24a5.61,5.61,0,0,0-.43,2.12h1.87a3.94,3.94,0,0,1,.29-1.41,3.81,3.81,0,0,1,.81-1.19,3.65,3.65,0,0,1,1.21-.82,3.84,3.84,0,0,1,2.88,0,3.65,3.65,0,0,1,1.21.82,3.7,3.7,0,0,1,.82,1.22,3.8,3.8,0,0,1,.28,1.43,3.89,3.89,0,0,1-.28,1.44A3.65,3.65,0,0,1,55,28.79a3.11,3.11,0,0,1-.52.44,3.33,3.33,0,0,1-.58.33,7.35,7.35,0,0,1,1.14.3,7.83,7.83,0,0,1,1.09.45.94.94,0,0,1,.1-.1Z" style="fill: #333"/>
      <path d="M61.23,32v0h0v0a6.59,6.59,0,0,0,.51-.85c.16-.29.3-.59.43-.89A10.48,10.48,0,0,0,63,26.14a10.44,10.44,0,0,0-.21-2.09,10,10,0,0,0-.62-2,9.84,9.84,0,0,0-1-1.78,10,10,0,0,0-1.28-1.56,11.87,11.87,0,0,0-1.56-1.29,11.27,11.27,0,0,0-1.78-1,11,11,0,0,0-2-.62,11,11,0,0,0-4.17,0,10.77,10.77,0,0,0-2,.62,10.32,10.32,0,0,0-3.34,2.25,10,10,0,0,0-1.28,1.56,9.84,9.84,0,0,0-1,1.78,10.19,10.19,0,0,0-.83,4h1.93A8.44,8.44,0,1,1,60.21,29.3,8.23,8.23,0,0,1,58.45,32a8.23,8.23,0,0,1,1.76,2.7,8.44,8.44,0,1,1-16.27,3.21H42A10.07,10.07,0,0,0,42.22,40a10.31,10.31,0,0,0,.62,2,10.62,10.62,0,0,0,2.24,3.33,10.32,10.32,0,0,0,3.34,2.25,10.77,10.77,0,0,0,2,.62,10.47,10.47,0,0,0,6.17-.62,11.27,11.27,0,0,0,1.78-1,11.87,11.87,0,0,0,1.56-1.29,10,10,0,0,0,1.28-1.56,9.84,9.84,0,0,0,1-1.78,10,10,0,0,0,.62-2,10.51,10.51,0,0,0,0-4.18,10.27,10.27,0,0,0-.62-2c-.13-.3-.27-.6-.43-.89A6.59,6.59,0,0,0,61.23,32Z" style="fill: #333"/>
      <path d="M56.22,30.88a6.18,6.18,0,0,1-1,.67,5.79,5.79,0,0,1-1.13.45,5.79,5.79,0,0,1,1.13.45,6.18,6.18,0,0,1,1,.67,6.87,6.87,0,0,0,.81-.51,8.69,8.69,0,0,0,.75-.61,8.69,8.69,0,0,0-.75-.61A6.87,6.87,0,0,0,56.22,30.88Z" style="fill: #333"/>
      <path d="M46.75,43.49a8,8,0,0,0,13-8.61,8,8,0,0,0-1.66-2.55,7.15,7.15,0,0,1-.73.61,8.13,8.13,0,0,1-.78.52l0,0,0,0a5.89,5.89,0,0,1,1.32,2,6.16,6.16,0,0,1,0,4.67,6,6,0,0,1-1.32,2,6.19,6.19,0,0,1-2,1.32,6.13,6.13,0,0,1-4.66,0,6.19,6.19,0,0,1-2-1.32,6,6,0,0,1-1.31-2,5.8,5.8,0,0,1-.47-2.3H44.42a7.91,7.91,0,0,0,2.33,5.58Z" style="fill: #333"/>
      <path d="M55.75,30.64a7.49,7.49,0,0,0-1.53-.53,7.17,7.17,0,0,0-1.61-.21l.17.17.18.18-.17.16-.17.17-.46-.46-.46-.46.46-.47.46-.46.17.17.17.17-.17.17-.18.17a3.29,3.29,0,0,0,1.13-.28,3.53,3.53,0,0,0,1-.67,3.24,3.24,0,0,0,.71-1.06,3.37,3.37,0,0,0,.25-1.26,3.28,3.28,0,0,0-.25-1.25,3.18,3.18,0,0,0-.71-1.07,3.24,3.24,0,0,0-1.06-.71,3.3,3.3,0,0,0-2.52,0,3.24,3.24,0,0,0-1.06.71,3.29,3.29,0,0,0-1,2.27h2.18l0-.22a1.18,1.18,0,0,1,.07-.2,2.12,2.12,0,0,1,.11-.21,1.29,1.29,0,0,1,.33-.33A1.06,1.06,0,0,1,52,25a1.1,1.1,0,0,1,.47-.1A1.12,1.12,0,0,1,53,25a.78.78,0,0,1,.2.11.9.9,0,0,1,.19.15c.05.06.11.12.15.18a2.12,2.12,0,0,1,.11.21.88.88,0,0,1,.07.23,1,1,0,0,1,0,.24,1.4,1.4,0,0,1-.1.48,1.28,1.28,0,0,1-.11.2,1.39,1.39,0,0,1-.15.19l-.19.15-.2.11-1.42.6-1.41.6v7.06l1.41.6,1.42.6.2.11.19.15a1.39,1.39,0,0,1,.15.19,1.28,1.28,0,0,1,.11.2,1.4,1.4,0,0,1,.1.48,1,1,0,0,1,0,.24.88.88,0,0,1-.07.23,2.12,2.12,0,0,1-.11.21l-.15.18a.9.9,0,0,1-.19.15A.78.78,0,0,1,53,39a1.12,1.12,0,0,1-.48.1A1.1,1.1,0,0,1,52,39a1.06,1.06,0,0,1-.21-.11,1.29,1.29,0,0,1-.33-.33,2.12,2.12,0,0,1-.11-.21,1.18,1.18,0,0,1-.07-.2l0-.22H49.1a3.29,3.29,0,0,0,1,2.27,3.18,3.18,0,0,0,1.07.71,3.28,3.28,0,0,0,1.25.25,3.37,3.37,0,0,0,1.26-.25,3.24,3.24,0,0,0,1.06-.71,3.18,3.18,0,0,0,.71-1.07,3.28,3.28,0,0,0,.25-1.25,3.37,3.37,0,0,0-.25-1.26,3.24,3.24,0,0,0-.71-1.06,3.53,3.53,0,0,0-1-.67,3.29,3.29,0,0,0-1.13-.28l.18.17.17.17-.17.17-.17.17-.46-.46-.46-.47.46-.46.46-.46.17.17.17.16-.18.18-.17.17a7.17,7.17,0,0,0,1.61-.21,7.49,7.49,0,0,0,1.53-.53,5.58,5.58,0,0,0-1.48-.8,5.49,5.49,0,0,0-1.66-.32l.17.18.18.17-.17.17-.17.17-.46-.47L51.7,32l.46-.46.46-.47.17.17.17.17-.18.17-.17.18a5.49,5.49,0,0,0,1.66-.32A5.58,5.58,0,0,0,55.75,30.64Z" style="fill: #333"/>
    </g>
    <g>
      <path d="M2.51,40.94A.82.82,0,0,1,3,40.78a.81.81,0,0,1,.37.08.57.57,0,0,1,.23.2.57.57,0,0,1,.08.29.54.54,0,0,1-.32.49h0a.46.46,0,0,1,.26.19.53.53,0,0,1,.1.34.66.66,0,0,1-.08.32.73.73,0,0,1-.24.22A.89.89,0,0,1,3,43a.85.85,0,0,1-.54-.16.65.65,0,0,1-.22-.5h.4a.28.28,0,0,0,.1.23.33.33,0,0,0,.25.09.29.29,0,0,0,.23-.09.25.25,0,0,0,.08-.21.26.26,0,0,0-.11-.25A.55.55,0,0,0,2.88,42H2.8v-.34h.08c.28,0,.42-.09.42-.28a.27.27,0,0,0-.07-.2A.36.36,0,0,0,3,41.13a.29.29,0,0,0-.21.08.31.31,0,0,0-.09.19h-.4A.64.64,0,0,1,2.51,40.94Z"/>
      <path d="M5.67,42.59H4.85L4.71,43H4.28L5,40.92H5.5L6.24,43H5.8Zm-.12-.33-.29-.86-.3.86Z"/>
      <path d="M7.87,43l-.46-.8H7.22V43H6.81V40.92h.77A.82.82,0,0,1,8,41a.57.57,0,0,1,.26.22.72.72,0,0,1,.08.32.61.61,0,0,1-.12.37.64.64,0,0,1-.35.23l.49.83Zm-.65-1.11h.34a.34.34,0,0,0,.25-.08.3.3,0,0,0,.09-.23.29.29,0,0,0-.09-.22.34.34,0,0,0-.25-.07H7.22Z"/>
      <path d="M10.05,43l-.46-.8H9.4V43H9V40.92h.77a.88.88,0,0,1,.41.09.6.6,0,0,1,.25.22.72.72,0,0,1,.08.32.61.61,0,0,1-.47.6l.5.83ZM9.4,41.87h.35a.37.37,0,0,0,.25-.08.34.34,0,0,0,.08-.23.33.33,0,0,0-.08-.22.37.37,0,0,0-.25-.07H9.4Z"/>
      <path d="M11.59,42.86a1,1,0,0,1-.38-.37,1.13,1.13,0,0,1,0-1.09,1.12,1.12,0,0,1,.38-.37,1.08,1.08,0,0,1,.53-.14,1,1,0,0,1,.53.14,1,1,0,0,1,.38.37,1,1,0,0,1,.14.55,1,1,0,0,1-.14.54,1,1,0,0,1-.38.37,1,1,0,0,1-.53.14A1.08,1.08,0,0,1,11.59,42.86Zm.86-.31a.64.64,0,0,0,.22-.24.86.86,0,0,0,.08-.36.87.87,0,0,0-.08-.37.54.54,0,0,0-.22-.23.58.58,0,0,0-.33-.08.61.61,0,0,0-.55.31.87.87,0,0,0-.08.37.86.86,0,0,0,.08.36.6.6,0,0,0,.55.32A.67.67,0,0,0,12.45,42.55Z"/>
      <path d="M16.52,40.92,16,43h-.49l-.38-1.46L14.67,43h-.48l-.55-2.06h.44l.36,1.6.42-1.6h.46l.39,1.59.37-1.59Z"/>
      <path d="M17.41,42.93a.62.62,0,0,1-.28-.22.58.58,0,0,1-.1-.32h.44a.34.34,0,0,0,.09.2.32.32,0,0,0,.22.07.32.32,0,0,0,.23-.07.21.21,0,0,0,.08-.18.25.25,0,0,0-.05-.15.42.42,0,0,0-.14-.09l-.23-.08L17.34,42a.6.6,0,0,1-.21-.18.5.5,0,0,1-.09-.31.57.57,0,0,1,.09-.32.5.5,0,0,1,.25-.2.92.92,0,0,1,.38-.08.87.87,0,0,1,.52.16.6.6,0,0,1,.22.43H18A.23.23,0,0,0,18,41.3a.36.36,0,0,0-.22-.06.29.29,0,0,0-.19.06.21.21,0,0,0-.07.18.15.15,0,0,0,.05.13.34.34,0,0,0,.14.09l.22.08a2,2,0,0,1,.33.12.62.62,0,0,1,.22.17.52.52,0,0,1,.09.31.56.56,0,0,1-.09.31.62.62,0,0,1-.25.23.93.93,0,0,1-.39.08A1.12,1.12,0,0,1,17.41,42.93Z"/>
      <path d="M20.6,41.54a.61.61,0,0,0-.19-.2.68.68,0,0,0-.29-.06.62.62,0,0,0-.33.08.61.61,0,0,0-.22.23.83.83,0,0,0-.08.36.69.69,0,0,0,.09.36.49.49,0,0,0,.22.23.64.64,0,0,0,.34.09.6.6,0,0,0,.38-.13.58.58,0,0,0,.2-.35H20v-.31h1.12v.36a1,1,0,0,1-.18.39,1.14,1.14,0,0,1-.35.3,1.06,1.06,0,0,1-.48.11,1.09,1.09,0,0,1-.54-.14.94.94,0,0,1-.37-.37,1.09,1.09,0,0,1-.14-.54,1.12,1.12,0,0,1,.14-.55,1,1,0,0,1,.37-.37,1.08,1.08,0,0,1,.54-.13,1,1,0,0,1,.6.17.9.9,0,0,1,.36.47Z"/>
      <path d="M23,42.59h-.82L22,43H21.6l.74-2.06h.48L23.56,43h-.44Zm-.12-.33-.29-.86-.3.86Z"/>
      <path d="M26.37,40.92V43H26V41.64L25.41,43h-.32l-.55-1.34V43h-.41V40.92h.47l.65,1.53.65-1.53Z"/>
      <path d="M27.48,41.26v.51h.69v.33h-.69v.54h.78V43H27.07V40.92h1.19v.34Z"/>
      <path d="M28.93,42.93a.22.22,0,0,1-.07-.17.21.21,0,0,1,.07-.17.27.27,0,0,1,.36,0,.21.21,0,0,1,.07.17.22.22,0,0,1-.07.17.27.27,0,0,1-.36,0Z"/>
      <path d="M30,41.4A1,1,0,0,1,30.4,41a1,1,0,0,1,.53-.13,1.08,1.08,0,0,1,.6.17.91.91,0,0,1,.37.49h-.48a.48.48,0,0,0-.2-.22.54.54,0,0,0-.29-.07.66.66,0,0,0-.32.08.56.56,0,0,0-.22.24.8.8,0,0,0-.08.36.86.86,0,0,0,.08.36.49.49,0,0,0,.22.23.57.57,0,0,0,.32.09.55.55,0,0,0,.29-.08.48.48,0,0,0,.2-.22h.48a1,1,0,0,1-.36.49,1.07,1.07,0,0,1-.61.18,1,1,0,0,1-.53-.14.94.94,0,0,1-.37-.37,1,1,0,0,1-.14-.54A1,1,0,0,1,30,41.4Z"/>
      <path d="M33,42.86a1.06,1.06,0,0,1-.39-.37,1.13,1.13,0,0,1,0-1.09A1.15,1.15,0,0,1,33,41,1.07,1.07,0,0,1,34,41a1,1,0,0,1,.38.37,1.13,1.13,0,0,1,0,1.09,1,1,0,0,1-.38.37,1.07,1.07,0,0,1-1.06,0Zm.85-.31a.56.56,0,0,0,.22-.24.73.73,0,0,0,.08-.36.75.75,0,0,0-.08-.37.49.49,0,0,0-.22-.23.57.57,0,0,0-.32-.08.58.58,0,0,0-.33.08.49.49,0,0,0-.22.23.75.75,0,0,0-.08.37.73.73,0,0,0,.08.36.56.56,0,0,0,.22.24.67.67,0,0,0,.33.08A.66.66,0,0,0,33.82,42.55Z"/>
      <path d="M37.39,40.92V43H37V41.64L36.43,43h-.32l-.55-1.34V43h-.41V40.92h.47l.65,1.53.65-1.53Z"/>
    </g>
  </g>
</svg>
