<svg id="a699bd8d-85c9-4442-8172-585be7633a2a" data-name="Layer 1" xmlns="http://www.w3.org/2000/svg" width="64" height="64" viewBox="0 0 64 64">
  <g>
    <polygon points="10.58 30.94 11.14 30.94 11.14 28.9 11.87 28.9 11.87 28.4 9.86 28.4 9.86 28.9 10.58 28.9 10.58 30.94" style="fill: #333"/>
    <polygon points="21.67 29.84 22.76 29.84 22.76 30.94 23.32 30.94 23.32 28.4 22.76 28.4 22.76 29.35 21.67 29.35 21.67 28.4 21.11 28.4 21.11 30.94 21.67 30.94 21.67 29.84" style="fill: #333"/>
    <path d="M33.36,29.93h.27l.53,1h.67l-.64-1.07a.66.66,0,0,0,.41-.24.78.78,0,0,0,.14-.46.81.81,0,0,0-.08-.37.52.52,0,0,0-.21-.23.81.81,0,0,0-.3-.13,1.5,1.5,0,0,0-.37,0h-1v2.54h.56Zm0-1.05h.52a.33.33,0,0,1,.14,0,.39.39,0,0,1,.1.08.34.34,0,0,1,0,.16.25.25,0,0,1,0,.16.21.21,0,0,1-.11.08l-.15,0h-.49Z" style="fill: #333"/>
    <polygon points="44.66 29.91 45.77 29.91 45.77 29.39 44.66 29.39 44.66 28.92 45.83 28.92 45.83 28.4 44.1 28.4 44.1 30.94 45.89 30.94 45.89 30.42 44.66 30.42 44.66 29.91" style="fill: #333"/>
    <polygon points="55.89 29.91 56.99 29.91 56.99 29.39 55.89 29.39 55.89 28.92 57.05 28.92 57.05 28.4 55.33 28.4 55.33 30.94 57.12 30.94 57.12 30.42 55.89 30.42 55.89 29.91" style="fill: #333"/>
    <path d="M4.51,32.91l-1.1,2.53H4l.21-.53h1l.22.53h.63L5,32.91Zm-.1,1.52.31-.79.31.79Z" style="fill: #333"/>
    <path d="M17.09,34.13a.73.73,0,0,0,.14-.45.7.7,0,0,0-.08-.37.68.68,0,0,0-.2-.24,1,1,0,0,0-.31-.13,2.13,2.13,0,0,0-.37,0h-1v2.53h.56v-1h.28l.53,1h.67l-.65-1.07A.59.59,0,0,0,17.09,34.13Zm-.48-.29a.36.36,0,0,1-.12.08.33.33,0,0,1-.15,0h-.49v-.58h.52l.14,0a.28.28,0,0,1,.1.09.24.24,0,0,1,0,.15A.29.29,0,0,1,16.61,33.84Z" style="fill: #333"/>
    <path d="M28.38,34.13a.73.73,0,0,0,.14-.45.81.81,0,0,0-.08-.37.61.61,0,0,0-.21-.24.91.91,0,0,0-.3-.13,2.22,2.22,0,0,0-.37,0h-1v2.53h.56v-1h.27l.53,1h.67L28,34.37A.62.62,0,0,0,28.38,34.13Zm-.49-.29-.11.08-.15,0h-.49v-.58h.52l.14,0a.28.28,0,0,1,.1.09.33.33,0,0,1,0,.15A.29.29,0,0,1,27.89,33.84Z" style="fill: #333"/>
    <path d="M40.08,33.2a1.34,1.34,0,0,0-.43-.26,1.56,1.56,0,0,0-1.1,0,1.24,1.24,0,0,0-.43.26,1.22,1.22,0,0,0-.29.42,1.43,1.43,0,0,0-.1.56,1.42,1.42,0,0,0,.1.55,1.22,1.22,0,0,0,.29.42,1.26,1.26,0,0,0,.43.27,1.73,1.73,0,0,0,1.1,0,1.36,1.36,0,0,0,.43-.27,1.19,1.19,0,0,0,.28-.42,1.46,1.46,0,0,0,0-1.11A1.19,1.19,0,0,0,40.08,33.2Zm-.25,1.3a.76.76,0,0,1-.16.26.74.74,0,0,1-.25.17.83.83,0,0,1-.32.06.88.88,0,0,1-.33-.06.85.85,0,0,1-.25-.17.76.76,0,0,1-.16-.26,1.07,1.07,0,0,1,0-.32,1.14,1.14,0,0,1,0-.33.76.76,0,0,1,.16-.26.85.85,0,0,1,.25-.17.88.88,0,0,1,.33-.06.83.83,0,0,1,.32.06.74.74,0,0,1,.25.17.76.76,0,0,1,.16.26.88.88,0,0,1,.06.33A.83.83,0,0,1,39.83,34.5Z" style="fill: #333"/>
    <polygon points="52.15 34.58 52.14 34.58 51.62 32.91 51.1 32.91 50.57 34.53 50.56 34.53 50.15 32.91 49.54 32.91 50.3 35.45 50.78 35.45 51.34 33.69 51.34 33.69 51.9 35.45 52.4 35.45 53.14 32.91 52.58 32.91 52.15 34.58" style="fill: #333"/>
    <path d="M63.91,34.32a.6.6,0,0,0-.21-.21.77.77,0,0,0-.28-.12l-.29-.09a.82.82,0,0,1-.21-.1.21.21,0,0,1-.09-.18.16.16,0,0,1,0-.12.18.18,0,0,1,.09-.08l.12-.05h.13a.6.6,0,0,1,.22,0,.35.35,0,0,1,.18.13l.39-.42a.91.91,0,0,0-.37-.21,1.4,1.4,0,0,0-.41-.06,1.36,1.36,0,0,0-.36,0,1,1,0,0,0-.31.16.78.78,0,0,0-.22.26.8.8,0,0,0-.08.36.59.59,0,0,0,.09.34.7.7,0,0,0,.22.2,1,1,0,0,0,.29.13l.28.09a.66.66,0,0,1,.22.12.2.2,0,0,1,.09.18.27.27,0,0,1,0,.12l-.09.08-.13,0h-.14a.66.66,0,0,1-.27-.06.52.52,0,0,1-.21-.18l-.4.44a1.15,1.15,0,0,0,.39.24,1.39,1.39,0,0,0,.46.08,1.58,1.58,0,0,0,.38,0,1.11,1.11,0,0,0,.31-.15.71.71,0,0,0,.21-.27.81.81,0,0,0,.08-.37A.63.63,0,0,0,63.91,34.32Z" style="fill: #333"/>
    <polygon points="1.5 24.13 1.5 23.88 0 23.83 0.06 25.33 0.31 25.32 0.27 24.27 16.17 40.17 16.34 39.99 0.45 24.09 1.5 24.13" style="fill: #333"/>
    <polygon points="12.78 24.13 12.79 23.88 11.28 23.83 11.34 25.33 11.59 25.32 11.55 24.27 27.45 40.17 27.63 39.99 11.73 24.09 12.78 24.13" style="fill: #333"/>
    <polygon points="24.06 24.13 24.07 23.88 22.57 23.83 22.62 25.33 22.87 25.32 22.83 24.27 38.73 40.17 38.91 39.99 23.01 24.09 24.06 24.13" style="fill: #333"/>
  </g>
</svg>
