<svg id="a64d369b-26fe-482b-a8a6-64982e235f9f" data-name="Layer 1" xmlns="http://www.w3.org/2000/svg" width="64" height="64" viewBox="0 0 64 64">
  <path d="M0,0V64H64V0ZM46.23,32.05a15.85,15.85,0,0,1,1.53,2.84,17.13,17.13,0,0,1,0,13.33A17.12,17.12,0,0,1,19.9,53.66a17.3,17.3,0,0,1-3.67-5.44,16.91,16.91,0,0,1-1.34-6.59H18A13.76,13.76,0,1,0,41.7,32,13.76,13.76,0,1,0,18,22.37H14.89a16.83,16.83,0,0,1,1.34-6.58A17.1,17.1,0,0,1,44.1,10.35a17.11,17.11,0,0,1,3.66,18.76A15.85,15.85,0,0,1,46.23,32l0,.05Zm-14-1.56L30.69,32l1.5,1.51.55-.55-.57-.56a9.05,9.05,0,0,1,5.13,1.82,13,13,0,0,1-5.13,1.21l.57-.57-.55-.55-1.5,1.51,1.5,1.51.55-.55-.56-.56a5.34,5.34,0,1,1-5.73,5.41H30a2,2,0,0,0,.15.7,1.91,1.91,0,0,0,.43.63,2,2,0,0,0,.63.43,2.08,2.08,0,0,0,1.55,0,2,2,0,0,0,.64-.43,2.27,2.27,0,0,0,.43-.63,2,2,0,0,0,.15-.78,2,2,0,0,0-.15-.77,2.27,2.27,0,0,0-.43-.63,2.15,2.15,0,0,0-.64-.44l-4.62-2V26.24l4.62-1.95a2,2,0,0,0,1.07-1.07,2,2,0,0,0,.15-.77,2,2,0,0,0-.15-.78,2.43,2.43,0,0,0-.43-.63,2,2,0,0,0-.64-.43,2.08,2.08,0,0,0-1.55,0,2.06,2.06,0,0,0-1.06,1.06,2.09,2.09,0,0,0-.15.7H26.45a5.34,5.34,0,1,1,5.73,5.41l.56-.56-.55-.55-1.5,1.51,1.5,1.51.55-.55-.57-.57a13,13,0,0,1,5.13,1.21,9.05,9.05,0,0,1-5.13,1.82l.57-.56ZM34.32,28a6.12,6.12,0,0,0,1.8-9.9,6.12,6.12,0,0,0-10.44,4.25H22.63a9.17,9.17,0,1,1,15.65,6.56c-.11.1-.21.21-.33.31A13.87,13.87,0,0,0,34.32,28ZM25.68,41.63A6.11,6.11,0,1,0,34.32,36,13.87,13.87,0,0,0,38,34.76c.12.1.22.21.33.31a9.17,9.17,0,1,1-15.65,6.56Zm12.37-7.8A9.83,9.83,0,0,0,34.56,32a9.83,9.83,0,0,0,3.49-1.83A12.71,12.71,0,0,1,40.59,32,12.71,12.71,0,0,1,38.05,33.83Zm.62-4.2.15-.15a9.94,9.94,0,1,0-17-7.11H18.81a13,13,0,1,1,22.34,9.09A13.68,13.68,0,0,0,38.67,29.63Zm-16.81,12a9.94,9.94,0,1,0,17-7.11l-.15-.15a13.68,13.68,0,0,0,2.48-1.83,13,13,0,1,1-22.34,9.09Z" style="fill: #333"/>
</svg>
