<svg id="b5c9d4f3-245b-437a-aae5-a0bc8a7ec1cc" data-name="Layer 1" xmlns="http://www.w3.org/2000/svg" width="64" height="64" viewBox="0 0 64 64">
  <g>
    <g>
      <g>
        <path d="M11,16.52v2.56H8.23v7.74H5V19.08H2.29V16.52Z" style="fill: #333"/>
        <path d="M20.86,16.52v10.3H17.63v-4H14.56v4H11.33V16.52h3.23v3.71h3.07V16.52Z" style="fill: #333"/>
        <path d="M26.55,26.82l-1.94-3.7h0v3.7H21.37V16.52h4.8a4.83,4.83,0,0,1,2.14.44,3.14,3.14,0,0,1,1.33,1.21,3.41,3.41,0,0,1,.44,1.72,3.11,3.11,0,0,1-.57,1.84,3.28,3.28,0,0,1-1.65,1.15l2.24,3.94ZM24.6,21h1.28a1,1,0,0,0,.7-.21.87.87,0,0,0,.23-.66.84.84,0,0,0-.24-.64.93.93,0,0,0-.69-.24H24.6Z" style="fill: #333"/>
        <path d="M33.83,19.09v1.27H37v2.43h-3.2v1.45h3.64v2.58H30.6V16.52h6.87v2.57Z" style="fill: #333"/>
        <path d="M41.2,19.09v1.27h3.2v2.43H41.2v1.45h3.63v2.58H38V16.52h6.86v2.57Z" style="fill: #333"/>
      </g>
      <g>
        <path d="M8.33,36.54H4.9l-.51,1.55H1l3.77-10.3H8.49l3.76,10.3H8.84Zm-.78-2.43-.93-2.87-.94,2.87Z" style="fill: #333"/>
        <path d="M17.43,38.09,15.49,34.4h0v3.69H12.25V27.79h4.8a4.73,4.73,0,0,1,2.14.45,3.12,3.12,0,0,1,1.33,1.2A3.45,3.45,0,0,1,21,31.17,3.06,3.06,0,0,1,20.39,33a3.15,3.15,0,0,1-1.66,1.15L21,38.09Zm-1.95-5.84h1.28a.94.94,0,0,0,.69-.22.83.83,0,0,0,.24-.66.86.86,0,0,0-.24-.64,1,1,0,0,0-.69-.23H15.48Z" style="fill: #333"/>
        <path d="M26.45,38.09,24.51,34.4h0v3.69H21.27V27.79h4.8a4.73,4.73,0,0,1,2.14.45,3.12,3.12,0,0,1,1.33,1.2A3.45,3.45,0,0,1,30,31.17,3.06,3.06,0,0,1,29.41,33a3.16,3.16,0,0,1-1.65,1.15L30,38.09ZM24.5,32.25h1.28a.94.94,0,0,0,.69-.22.83.83,0,0,0,.24-.66.86.86,0,0,0-.24-.64,1,1,0,0,0-.69-.23H24.5Z" style="fill: #333"/>
        <path d="M32.64,37.51a5,5,0,0,1-1.93-1.89,5.57,5.57,0,0,1,0-5.44,5.08,5.08,0,0,1,1.93-1.89,5.64,5.64,0,0,1,5.33,0,5.09,5.09,0,0,1,1.91,1.89,5.57,5.57,0,0,1,0,5.44A5,5,0,0,1,38,37.51a5.47,5.47,0,0,1-5.32,0Zm4.15-2.94a3,3,0,0,0,0-3.35,1.84,1.84,0,0,0-1.48-.62,1.87,1.87,0,0,0-1.5.62,2.91,2.91,0,0,0,0,3.35,1.86,1.86,0,0,0,1.5.61A1.83,1.83,0,0,0,36.79,34.57Z" style="fill: #333"/>
        <path d="M55,27.79l-2.36,10.3h-4l-1.19-5.84-1.19,5.84h-4l-2.35-10.3h3.47l.93,6.49,1.4-6.49h3.52l1.4,6.49.93-6.49Z" style="fill: #333"/>
        <path d="M56,37.33a3.19,3.19,0,0,1-1.3-2.54h3.44c0,.59.31.89.78.89a.76.76,0,0,0,.44-.12.44.44,0,0,0,.19-.39.67.67,0,0,0-.4-.59A8.44,8.44,0,0,0,58,34.06a13.91,13.91,0,0,1-1.64-.68,3.2,3.2,0,0,1-1.11-1,2.68,2.68,0,0,1-.45-1.65,2.78,2.78,0,0,1,.52-1.71A3.13,3.13,0,0,1,56.68,28a5.37,5.37,0,0,1,2-.36,4.77,4.77,0,0,1,3,.87A3.1,3.1,0,0,1,62.87,31H59.39a.87.87,0,0,0-.22-.63.71.71,0,0,0-.49-.18.45.45,0,0,0-.34.13.59.59,0,0,0-.13.39.66.66,0,0,0,.39.57,8.71,8.71,0,0,0,1.23.55,13,13,0,0,1,1.61.7,3.32,3.32,0,0,1,1.09.93,2.38,2.38,0,0,1,.47,1.5,3.14,3.14,0,0,1-.47,1.69,3.11,3.11,0,0,1-1.35,1.17,4.73,4.73,0,0,1-2.11.43A5.07,5.07,0,0,1,56,37.33Z" style="fill: #333"/>
      </g>
    </g>
    <g>
      <path d="M3,44.77a1,1,0,0,1,.67-.21,1,1,0,0,1,.48.1.67.67,0,0,1,.31.26.73.73,0,0,1,.1.39.64.64,0,0,1-.43.64h0a.72.72,0,0,1,.36.25.81.81,0,0,1,.12.46.84.84,0,0,1-.1.42.8.8,0,0,1-.32.28,1.09,1.09,0,0,1-.5.1A1.08,1.08,0,0,1,3,47.25a.79.79,0,0,1-.29-.65h.52a.46.46,0,0,0,.13.31.53.53,0,0,0,.34.11.41.41,0,0,0,.3-.11.36.36,0,0,0,.11-.29.37.37,0,0,0-.15-.33.77.77,0,0,0-.45-.1H3.37v-.45h.12c.36,0,.55-.12.55-.37a.36.36,0,0,0-.1-.26A.42.42,0,0,0,3.65,45a.37.37,0,0,0-.28.1.41.41,0,0,0-.11.25H2.72A.82.82,0,0,1,3,44.77Z"/>
      <path d="M7.16,46.94H6.08l-.18.51H5.33l1-2.71h.64l1,2.71H7.34ZM7,46.5l-.39-1.13-.4,1.13Z"/>
      <path d="M10.06,47.45l-.6-1.05H9.21v1.05H8.66V44.74h1a1.27,1.27,0,0,1,.54.11.81.81,0,0,1,.33.3.88.88,0,0,1,.11.42.8.8,0,0,1-.16.49.81.81,0,0,1-.46.3l.65,1.09ZM9.21,46h.45a.45.45,0,0,0,.33-.11.4.4,0,0,0,.11-.29A.38.38,0,0,0,10,45.3a.45.45,0,0,0-.33-.11H9.21Z"/>
      <path d="M12.94,47.45l-.6-1.05h-.25v1.05h-.55V44.74h1a1.27,1.27,0,0,1,.54.11,1,1,0,0,1,.33.3.88.88,0,0,1,.11.42.8.8,0,0,1-.16.49.81.81,0,0,1-.46.3l.65,1.09ZM12.09,46h.45a.45.45,0,0,0,.33-.11.4.4,0,0,0,.11-.29.38.38,0,0,0-.11-.29.45.45,0,0,0-.33-.11h-.45Z"/>
      <path d="M15,47.3a1.41,1.41,0,0,1-.51-.49A1.4,1.4,0,0,1,15,44.88a1.4,1.4,0,0,1,.7-.18,1.38,1.38,0,0,1,.7.18,1.33,1.33,0,0,1,.5.5,1.44,1.44,0,0,1,0,1.43,1.31,1.31,0,0,1-.5.49,1.45,1.45,0,0,1-1.4,0Zm1.13-.41a.82.82,0,0,0,.29-.32,1.06,1.06,0,0,0,.11-.48,1,1,0,0,0-.11-.47.82.82,0,0,0-.29-.32.9.9,0,0,0-.86,0,.77.77,0,0,0-.3.32,1,1,0,0,0-.1.47,1.06,1.06,0,0,0,.1.48.77.77,0,0,0,.3.32.9.9,0,0,0,.86,0Z"/>
      <path d="M21.48,44.74l-.76,2.71h-.64l-.51-1.93L19,47.45h-.63l-.73-2.72h.58l.48,2.11.55-2.11h.6l.52,2.1.49-2.1Z"/>
      <path d="M22.65,47.38a.75.75,0,0,1-.5-.71h.59a.33.33,0,0,0,.12.27.42.42,0,0,0,.29.1.45.45,0,0,0,.3-.1.3.3,0,0,0,.11-.23.26.26,0,0,0-.08-.2.59.59,0,0,0-.18-.13L23,46.29l-.43-.16a.68.68,0,0,1-.28-.23.65.65,0,0,1-.12-.41.74.74,0,0,1,.12-.42.76.76,0,0,1,.34-.27,1.31,1.31,0,0,1,.5-.1,1.06,1.06,0,0,1,.68.21.76.76,0,0,1,.29.57h-.6a.27.27,0,0,0-.12-.23.44.44,0,0,0-.29-.09.37.37,0,0,0-.26.08.29.29,0,0,0-.09.23.21.21,0,0,0,.07.18.57.57,0,0,0,.18.12l.3.1.43.16a.8.8,0,0,1,.29.23.66.66,0,0,1,.12.41.77.77,0,0,1-.11.4.8.8,0,0,1-.33.3,1.21,1.21,0,0,1-.52.11A1.19,1.19,0,0,1,22.65,47.38Z"/>
      <path d="M26.87,45.56a.72.72,0,0,0-.26-.26.79.79,0,0,0-.38-.09.89.89,0,0,0-.43.11.73.73,0,0,0-.29.31,1,1,0,0,0-.1.47,1,1,0,0,0,.1.47.75.75,0,0,0,.3.31.9.9,0,0,0,.44.11.77.77,0,0,0,.51-.17.78.78,0,0,0,.26-.46h-.93V46h1.47v.47a1.34,1.34,0,0,1-.24.53,1.15,1.15,0,0,1-.46.38,1.28,1.28,0,0,1-.63.15,1.41,1.41,0,0,1-.71-.18,1.28,1.28,0,0,1-.49-.49,1.51,1.51,0,0,1,0-1.43,1.22,1.22,0,0,1,.49-.49,1.41,1.41,0,0,1,.71-.18,1.44,1.44,0,0,1,.8.22,1.14,1.14,0,0,1,.46.63Z"/>
      <path d="M30,46.94H28.93l-.18.51h-.57l1-2.71h.63l1,2.71h-.58Zm-.15-.44-.39-1.13-.39,1.13Z"/>
      <path d="M34.48,44.74v2.71h-.55V45.69l-.72,1.76h-.42l-.73-1.76v1.76h-.54V44.74h.62l.86,2,.86-2Z"/>
      <path d="M35.94,45.18v.68h.92v.43h-.92V47h1v.44H35.4V44.74H37v.44Z"/>
      <path d="M37.85,47.39a.32.32,0,0,1-.09-.23.29.29,0,0,1,.09-.22.37.37,0,0,1,.25-.1.33.33,0,0,1,.23.1.3.3,0,0,1,.1.22.33.33,0,0,1-.1.23.32.32,0,0,1-.23.09A.37.37,0,0,1,37.85,47.39Z"/>
      <path d="M39.3,45.38a1.24,1.24,0,0,1,.5-.49,1.35,1.35,0,0,1,.7-.18,1.41,1.41,0,0,1,.79.23,1.22,1.22,0,0,1,.48.65h-.63a.7.7,0,0,0-.26-.3.8.8,0,0,0-.39-.09.73.73,0,0,0-.42.11.79.79,0,0,0-.29.31,1,1,0,0,0-.1.48,1,1,0,0,0,.1.47.79.79,0,0,0,.29.31.73.73,0,0,0,.42.11.71.71,0,0,0,.39-.1.62.62,0,0,0,.26-.29h.63a1.22,1.22,0,0,1-.48.65,1.39,1.39,0,0,1-.79.23,1.35,1.35,0,0,1-.7-.18,1.31,1.31,0,0,1-.5-.49,1.51,1.51,0,0,1,0-1.43Z"/>
      <path d="M43.18,47.3a1.31,1.31,0,0,1-.5-.49,1.41,1.41,0,0,1,.5-1.93,1.43,1.43,0,0,1,.7-.18,1.38,1.38,0,0,1,.7.18,1.36,1.36,0,0,1,.51.5,1.38,1.38,0,0,1-.51,1.92,1.38,1.38,0,0,1-.7.18A1.43,1.43,0,0,1,43.18,47.3Zm1.13-.41a.77.77,0,0,0,.3-.32,1.06,1.06,0,0,0,.1-.48,1,1,0,0,0-.1-.47.77.77,0,0,0-.3-.32.83.83,0,0,0-.43-.11.89.89,0,0,0-.43.11.75.75,0,0,0-.29.32,1,1,0,0,0-.11.47,1.06,1.06,0,0,0,.11.48.75.75,0,0,0,.29.32.89.89,0,0,0,.43.11A.83.83,0,0,0,44.31,46.89Z"/>
      <path d="M49,44.74v2.71h-.55V45.69l-.72,1.76h-.41l-.73-1.76v1.76h-.55V44.74h.62l.86,2,.86-2Z"/>
    </g>
  </g>
</svg>
