<svg id="a316b82b-5cea-4950-a1a5-96bc7fa6921c" data-name="Layer 1" xmlns="http://www.w3.org/2000/svg" width="64" height="64" viewBox="0 0 64 64">
  <g>
    <g>
      <path d="M15.1,30.69H12.76l-.34,1.06H10.11l2.57-7h2.53l2.55,7H15.45ZM14.57,29l-.64-1.95L13.3,29Z" style="fill: #333"/>
      <path d="M21.29,31.75,20,29.24h0v2.51h-2.2v-7H21a3.28,3.28,0,0,1,1.46.3,2.12,2.12,0,0,1,.9.82A2.33,2.33,0,0,1,23.7,27a2.06,2.06,0,0,1-.4,1.24,2.11,2.11,0,0,1-1.12.79l1.53,2.68Zm-1.33-4h.87a.74.74,0,0,0,.48-.14.61.61,0,0,0,.16-.45.59.59,0,0,0-.17-.44.61.61,0,0,0-.47-.16H20Z" style="fill: #333"/>
      <path d="M27.43,31.75l-1.32-2.51h0v2.51H23.9v-7h3.27a3.28,3.28,0,0,1,1.46.3,2.12,2.12,0,0,1,.9.82,2.33,2.33,0,0,1,.3,1.18,2.06,2.06,0,0,1-.39,1.24,2.11,2.11,0,0,1-1.12.79l1.52,2.68Zm-1.33-4H27a.74.74,0,0,0,.48-.14.61.61,0,0,0,.16-.45.59.59,0,0,0-.17-.44.62.62,0,0,0-.47-.16H26.1Z" style="fill: #333"/>
      <path d="M31.64,31.35a3.52,3.52,0,0,1-1.8-3.13,3.54,3.54,0,0,1,.49-1.86,3.5,3.5,0,0,1,1.31-1.28,3.65,3.65,0,0,1,1.82-.46,3.61,3.61,0,0,1,1.81.46,3.47,3.47,0,0,1,1.3,1.28,3.82,3.82,0,0,1,0,3.71,3.5,3.5,0,0,1-1.31,1.28,3.61,3.61,0,0,1-1.8.47A3.66,3.66,0,0,1,31.64,31.35Zm2.83-2a1.73,1.73,0,0,0,.35-1.13,1.75,1.75,0,0,0-.35-1.15,1.26,1.26,0,0,0-1-.42,1.24,1.24,0,0,0-1,.42,1.7,1.7,0,0,0-.36,1.15,1.68,1.68,0,0,0,.36,1.13,1.24,1.24,0,0,0,1,.42A1.26,1.26,0,0,0,34.47,29.35Z" style="fill: #333"/>
      <path d="M47,24.74l-1.61,7H42.61l-.81-4-.81,4H38.25l-1.6-7H39l.63,4.42,1-4.42H43l1,4.42.63-4.42Z" style="fill: #333"/>
      <path d="M47.91,31.23A2.16,2.16,0,0,1,47,29.5h2.33c0,.41.21.61.54.61a.49.49,0,0,0,.3-.09.29.29,0,0,0,.12-.26.46.46,0,0,0-.26-.4,5.47,5.47,0,0,0-.84-.35,9,9,0,0,1-1.11-.47,2.16,2.16,0,0,1-.76-.66,1.79,1.79,0,0,1-.3-1.12,1.86,1.86,0,0,1,.35-1.16,2.09,2.09,0,0,1,1-.73,3.49,3.49,0,0,1,1.37-.25,3.18,3.18,0,0,1,2,.6,2.09,2.09,0,0,1,.8,1.67H50.2a.58.58,0,0,0-.14-.43.53.53,0,0,0-.34-.13.33.33,0,0,0-.23.1.36.36,0,0,0-.09.26.45.45,0,0,0,.26.39,6.22,6.22,0,0,0,.84.37,10.15,10.15,0,0,1,1.09.48,2.26,2.26,0,0,1,.75.63,1.61,1.61,0,0,1,.32,1,2.17,2.17,0,0,1-.32,1.16,2.11,2.11,0,0,1-.92.79,3.32,3.32,0,0,1-1.43.29A3.5,3.5,0,0,1,47.91,31.23Z" style="fill: #333"/>
    </g>
    <g>
      <path d="M14.9,34.81a.75.75,0,0,0-.36-.32,1.28,1.28,0,0,0-.58-.12,1.22,1.22,0,0,0-1,.41,2.12,2.12,0,0,0,0,2.36,1.59,1.59,0,0,0,1.19.4,1.46,1.46,0,0,0,1.23-.61H13.69V35.37h3.57v2.2A4.11,4.11,0,0,1,16,38.91a3.4,3.4,0,0,1-2,.56A3.8,3.8,0,0,1,12.08,39a3.07,3.07,0,0,1-1.24-1.26,4.19,4.19,0,0,1,0-3.7,3.13,3.13,0,0,1,1.23-1.27A3.79,3.79,0,0,1,14,32.34,3.63,3.63,0,0,1,16.2,33a2.66,2.66,0,0,1,1,1.8Z" style="fill: #333"/>
      <path d="M22.05,38.36H19.72l-.35,1.06H17.06l2.57-7h2.53l2.55,7H22.4Zm-.53-1.65-.64-2-.63,2Z" style="fill: #333"/>
      <path d="M33.14,32.41v7H31V35.93l-1.08,3.49H28l-1.08-3.49v3.49h-2.2v-7h2.7L29,36.62l1.51-4.21Z" style="fill: #333"/>
      <path d="M35.83,34.17V35H38v1.65H35.83v1h2.48v1.75H33.64v-7h4.67v1.76Z" style="fill: #333"/>
      <path d="M38.81,39.2a1,1,0,0,1-.34-.78,1,1,0,0,1,.34-.78,1.32,1.32,0,0,1,.92-.32,1.29,1.29,0,0,1,.91.32,1,1,0,0,1,.35.78,1,1,0,0,1-.35.78,1.33,1.33,0,0,1-.91.3A1.36,1.36,0,0,1,38.81,39.2Z" style="fill: #333"/>
      <path d="M41.53,34.06a3.06,3.06,0,0,1,1.2-1.27,4,4,0,0,1,3.47-.1,3,3,0,0,1,1.17,1,3.53,3.53,0,0,1,.6,1.46H45.65a1.2,1.2,0,0,0-.45-.54,1.14,1.14,0,0,0-.66-.2,1,1,0,0,0-.88.42,2.12,2.12,0,0,0,0,2.24,1.06,1.06,0,0,0,.88.41,1.14,1.14,0,0,0,.66-.19,1.2,1.2,0,0,0,.45-.54H48a3.59,3.59,0,0,1-.6,1.46,3.06,3.06,0,0,1-1.17,1A4,4,0,0,1,42.73,39a3,3,0,0,1-1.2-1.26,4.28,4.28,0,0,1,0-3.7Z" style="fill: #333"/>
      <path d="M49.87,39a3.45,3.45,0,0,1-1.31-1.29,3.74,3.74,0,0,1,0-3.7,3.45,3.45,0,0,1,1.31-1.29,3.72,3.72,0,0,1,1.81-.46,3.76,3.76,0,0,1,1.82.46A3.5,3.5,0,0,1,54.8,34a3.81,3.81,0,0,1,0,3.7A3.45,3.45,0,0,1,53.49,39a3.79,3.79,0,0,1-3.62,0Zm2.82-2a2,2,0,0,0,0-2.27,1.21,1.21,0,0,0-1-.43,1.25,1.25,0,0,0-1,.43,2,2,0,0,0,0,2.27,1.27,1.27,0,0,0,1,.42A1.24,1.24,0,0,0,52.69,37Z" style="fill: #333"/>
      <path d="M64,32.41v7H61.81V35.93l-1.08,3.49H58.85l-1.08-3.49v3.49h-2.2v-7h2.7l1.54,4.21,1.51-4.21Z" style="fill: #333"/>
    </g>
    <g>
      <path d="M2.9,36.39a2.58,2.58,0,0,0,1.81.75,2.54,2.54,0,0,0,1.8-.75,2.55,2.55,0,0,0,0-3.61l-.09-.09a3.65,3.65,0,0,1-1,.34,1.61,1.61,0,0,1,.5.35,1.7,1.7,0,0,1,0,2.41,1.7,1.7,0,0,1-1.2.5,1.72,1.72,0,0,1-1.21-.5A1.7,1.7,0,0,1,3,34.61H2.16A2.54,2.54,0,0,0,2.9,36.39Z" style="fill: #333"/>
      <path d="M8.33,29.26a3.62,3.62,0,0,0-3.62-3.61,3.62,3.62,0,0,0-3.62,3.59h.85A2.77,2.77,0,0,1,4.71,26.5a2.76,2.76,0,0,1,2,4.72l0,0a3.85,3.85,0,0,1,.69.51A3.55,3.55,0,0,0,8.33,29.26Z" style="fill: #333"/>
      <path d="M6.51,31.07a2.55,2.55,0,0,0,0-3.61,2.54,2.54,0,0,0-1.8-.75,2.58,2.58,0,0,0-1.81.75,2.54,2.54,0,0,0-.74,1.78H3a1.68,1.68,0,0,1,.49-1.18,1.72,1.72,0,0,1,1.21-.5,1.7,1.7,0,0,1,1.2.5,1.7,1.7,0,0,1,0,2.41,1.8,1.8,0,0,1-.5.35,3.63,3.63,0,0,1,1,.33A.34.34,0,0,0,6.51,31.07Z" style="fill: #333"/>
      <path d="M8.73,31.94v0h0a5.46,5.46,0,0,0,.43-.79,4.78,4.78,0,0,0-1-5.23,4.9,4.9,0,0,0-1.52-1,4.7,4.7,0,0,0-1.85-.37A4.74,4.74,0,0,0,.38,27.41,4.62,4.62,0,0,0,0,29.24H.88a3.82,3.82,0,0,1,3.83-3.81,3.83,3.83,0,0,1,2.76,6.49,3.83,3.83,0,0,1-2.76,6.49,3.82,3.82,0,0,1-3.83-3.8H0A4.77,4.77,0,0,0,1.4,38a4.58,4.58,0,0,0,1.51,1,4.77,4.77,0,0,0,6.25-2.53,4.84,4.84,0,0,0,0-3.71A5,5,0,0,0,8.73,31.94Z" style="fill: #333"/>
      <path d="M6.45,31.41a2.66,2.66,0,0,1-1,.51,3,3,0,0,1,1,.51,3.55,3.55,0,0,0,.71-.51A3.55,3.55,0,0,0,6.45,31.41Z" style="fill: #333"/>
      <path d="M2.15,37.14a3.62,3.62,0,0,0,5.16-5.07,3.42,3.42,0,0,1-.69.51l0,.05a2.76,2.76,0,0,1,0,3.91,2.77,2.77,0,0,1-4.73-1.93H1.09A3.61,3.61,0,0,0,2.15,37.14Z" style="fill: #333"/>
      <path d="M6.24,31.31A3.53,3.53,0,0,0,4.81,31l.16.16-.15.15-.42-.42.42-.42.15.15-.16.16A1.49,1.49,0,0,0,6.2,29.26a1.49,1.49,0,0,0-.44-1.05,1.5,1.5,0,0,0-2.1,0,1.49,1.49,0,0,0-.44,1h1a.58.58,0,0,1,0-.19.57.57,0,0,1,.12-.18.71.71,0,0,1,.18-.12.64.64,0,0,1,.43,0,.55.55,0,0,1,.3.3.52.52,0,0,1,0,.21.54.54,0,0,1,0,.22.94.94,0,0,1-.12.18.57.57,0,0,1-.18.12l-1.28.54v3.21L5,34.07a.55.55,0,0,1,.3.3.52.52,0,0,1,0,.21.54.54,0,0,1,0,.22.94.94,0,0,1-.12.18.42.42,0,0,1-.18.11.58.58,0,0,1-.43,0A.57.57,0,0,1,4.37,35a.94.94,0,0,1-.12-.18.65.65,0,0,1,0-.19h-1a1.51,1.51,0,0,0,.44,1,1.5,1.5,0,0,0,2.1,0,1.52,1.52,0,0,0,.44-1.06,1.49,1.49,0,0,0-.44-1,1.47,1.47,0,0,0-1-.43l.16.16-.15.15L4.4,33l.42-.42.15.15-.16.16a3.7,3.7,0,0,0,1.43-.34A2.54,2.54,0,0,0,4.81,32l.16.16-.15.15-.42-.42.42-.42.15.16-.16.15A2.53,2.53,0,0,0,6.24,31.31Z" style="fill: #333"/>
    </g>
  </g>
</svg>
