<svg id="aab46591-5de3-4a7f-b941-7e9a9c4a7392" data-name="Layer 1" xmlns="http://www.w3.org/2000/svg" width="64" height="64" viewBox="0 0 64 64">
  <g>
    <g>
      <path d="M14,16.48a10.31,10.31,0,0,0,0,14.59,10.6,10.6,0,0,0,3.34,2.24,10.39,10.39,0,0,0,7.9,0,10.54,10.54,0,0,0,3.35-2.24l.17-.18.17-.19a14.88,14.88,0,0,1-.82-2,15.41,15.41,0,0,1-.54-2.1,7.14,7.14,0,0,1-.61,1.08,7.9,7.9,0,0,1-.8.95,7.07,7.07,0,0,1-2.23,1.5,6.94,6.94,0,0,1-2.64.52,6.85,6.85,0,0,1-2.63-.52,6.87,6.87,0,0,1-4.25-6.37,6.88,6.88,0,0,1,6.79-6.88V13.46a10.27,10.27,0,0,0-7.2,3Z" style="fill: #333"/>
      <path d="M42.75,38.39a14.61,14.61,0,0,0,10.33-25A14.51,14.51,0,0,0,42.84,9.16v3.43a11.26,11.26,0,0,1,4.23.87,11.17,11.17,0,0,1,3.58,18.22A11.09,11.09,0,0,1,47,34.11a11.17,11.17,0,0,1-12.19-2.43l-.08-.09-.09-.08a14.91,14.91,0,0,1-1,1.44,14.35,14.35,0,0,1-1.11,1.34,14.54,14.54,0,0,0,10.14,4.1Z" style="fill: #333"/>
      <path d="M35.45,31.07a10.54,10.54,0,0,0,3.35,2.24,10.39,10.39,0,0,0,7.9,0A10.6,10.6,0,0,0,50,31.07a10.31,10.31,0,0,0-7.2-17.61v3.43a6.87,6.87,0,0,1,6.79,6.88,6.93,6.93,0,0,1-4.25,6.37,6.85,6.85,0,0,1-2.63.52,6.94,6.94,0,0,1-2.64-.52,7.07,7.07,0,0,1-2.23-1.5,7.9,7.9,0,0,1-.8-.95,7.14,7.14,0,0,1-.61-1.08,15.41,15.41,0,0,1-.54,2.1,14.88,14.88,0,0,1-.82,2l.17.19Z" style="fill: #333"/>
      <path d="M32,40h0l0,0,0,0h0a17.43,17.43,0,0,0,1.56.94c.53.29,1.08.55,1.64.79a19.2,19.2,0,0,0,3.67,1.13,19,19,0,0,0,7.66,0,19.11,19.11,0,0,0,3.66-1.13A20,20,0,0,0,53.5,40a19.49,19.49,0,0,0,2.86-2.36,20,20,0,0,0,2.36-2.86,19,19,0,0,0,1.76-3.26,18.55,18.55,0,0,0,1.14-3.67,19.49,19.49,0,0,0,0-7.66,18.55,18.55,0,0,0-1.14-3.67,18.88,18.88,0,0,0-1.76-3.25,19.49,19.49,0,0,0-2.36-2.86A18.88,18.88,0,0,0,53.5,8a19,19,0,0,0-6.88-2.89,18.37,18.37,0,0,0-3.78-.39V8.29A15.49,15.49,0,1,1,32,34.91a15.46,15.46,0,0,1-21.69-.19A15.48,15.48,0,0,1,21.16,8.29V4.75a18.37,18.37,0,0,0-3.78.39A19,19,0,0,0,10.5,8a18.88,18.88,0,0,0-2.86,2.36,19.49,19.49,0,0,0-2.36,2.86,18.6,18.6,0,0,0-1.76,3.26,18.26,18.26,0,0,0-1.14,3.66,19.49,19.49,0,0,0,0,7.66A18.55,18.55,0,0,0,3.52,31.5a19,19,0,0,0,1.76,3.26,20,20,0,0,0,2.36,2.86A19.49,19.49,0,0,0,10.5,40a20,20,0,0,0,3.26,1.76,19.43,19.43,0,0,0,7.49,1.52,18.78,18.78,0,0,0,3.83-.39,19,19,0,0,0,3.67-1.13c.56-.24,1.11-.5,1.64-.79A17.43,17.43,0,0,0,32,40Z" style="fill: #333"/>
      <path d="M34.06,30.82A10.77,10.77,0,0,1,32.83,29,10.92,10.92,0,0,1,32,26.88,10.92,10.92,0,0,1,31.17,29a10.77,10.77,0,0,1-1.23,1.87,14.23,14.23,0,0,0,.94,1.48A13.38,13.38,0,0,0,32,33.67a13.38,13.38,0,0,0,1.12-1.37A14.23,14.23,0,0,0,34.06,30.82Z" style="fill: #333"/>
      <path d="M10.92,13.44A14.61,14.61,0,0,0,31.39,34.29,14.35,14.35,0,0,1,30.28,33a14.91,14.91,0,0,1-1-1.44l-.09.08-.08.09A11.24,11.24,0,0,1,17,34.11a11.2,11.2,0,0,1-6-14.62,11.28,11.28,0,0,1,6-6,11.26,11.26,0,0,1,4.23-.87V9.16a14.51,14.51,0,0,0-10.24,4.28Z" style="fill: #333"/>
      <path d="M34.5,30a14.07,14.07,0,0,0,1-2.8,14.74,14.74,0,0,0,.39-3l-.32.32-.32.33-.31-.31-.31-.31.85-.85.85-.85.85.85.85.85-.31.31-.31.31-.32-.32-.31-.32a6.12,6.12,0,0,0,.52,2.07A6.24,6.24,0,0,0,38.49,28a6.17,6.17,0,0,0,1.95,1.3,6,6,0,0,0,4.61,0A6.17,6.17,0,0,0,47,28a6,6,0,0,0,1.31-2,6.13,6.13,0,0,0,0-4.61,6.08,6.08,0,0,0-3.22-3.24,6,6,0,0,0-2.25-.47v4l.4,0a2.78,2.78,0,0,1,.38.12,2.22,2.22,0,0,1,.37.21,1.81,1.81,0,0,1,.34.28,2.22,2.22,0,0,1,.28.33,2,2,0,0,1,.2.38,2.19,2.19,0,0,1,0,1.74,2,2,0,0,1-.2.38,3,3,0,0,1-.28.34,2.24,2.24,0,0,1-.34.27,2.22,2.22,0,0,1-.37.21,2.39,2.39,0,0,1-1.32.13,1.87,1.87,0,0,1-.42-.13,2.32,2.32,0,0,1-.38-.21,1.9,1.9,0,0,1-.61-.61,2,2,0,0,1-.21-.38l-1.1-2.6-1.1-2.59h-13l-1.1,2.59-1.1,2.6a2,2,0,0,1-.21.38,1.9,1.9,0,0,1-.61.61,2.32,2.32,0,0,1-.38.21,1.87,1.87,0,0,1-.42.13,2.15,2.15,0,0,1-.45,0,2.2,2.2,0,0,1-.87-.17,2.22,2.22,0,0,1-.37-.21,2.24,2.24,0,0,1-.34-.27,3,3,0,0,1-.28-.34,2,2,0,0,1-.2-.38,2.19,2.19,0,0,1,0-1.74,2,2,0,0,1,.2-.38,2.22,2.22,0,0,1,.28-.33,1.81,1.81,0,0,1,.34-.28,2.22,2.22,0,0,1,.37-.21,2.78,2.78,0,0,1,.38-.12l.4,0v-4a6,6,0,0,0-2.25.47,6.08,6.08,0,0,0-3.22,3.24,6.13,6.13,0,0,0,0,4.61A6,6,0,0,0,17,28,6.17,6.17,0,0,0,19,29.33a6,6,0,0,0,4.61,0,6.17,6.17,0,0,0,2-1.3,6.24,6.24,0,0,0,1.22-1.76,6.12,6.12,0,0,0,.52-2.07l-.31.32-.32.32-.31-.31L26,24.22l.85-.85.85-.85.85.85.85.85-.31.31-.31.31-.32-.33-.32-.32a14.74,14.74,0,0,0,.39,3,14.07,14.07,0,0,0,1,2.8,10.23,10.23,0,0,0,2.06-5.76l-.32.32-.32.32-.31-.31-.31-.31.85-.85.85-.85.85.85.85.85-.31.31-.31.31-.32-.32-.32-.32A10.23,10.23,0,0,0,34.5,30Z" style="fill: #333"/>
    </g>
    <g>
      <path d="M10.35,57.73H7.2l-.46,1.43H3.64l3.44-9.43h3.41l3.44,9.43H10.81Zm-.72-2.22-.86-2.62-.85,2.62Z" style="fill: #333"/>
      <path d="M18.67,59.16l-1.78-3.38h0v3.38H13.93V49.73h4.39a4.39,4.39,0,0,1,2,.41,2.82,2.82,0,0,1,1.21,1.1,3.13,3.13,0,0,1,.41,1.58,2.79,2.79,0,0,1-2,2.73l2.05,3.61Zm-1.79-5.35h1.17a.91.91,0,0,0,.64-.2.93.93,0,0,0,0-1.19.86.86,0,0,0-.63-.21H16.88Z" style="fill: #333"/>
      <path d="M26.92,59.16l-1.77-3.38h0v3.38H22.18V49.73h4.39a4.33,4.33,0,0,1,2,.41,2.85,2.85,0,0,1,1.22,1.1,3.12,3.12,0,0,1,.4,1.58,2.81,2.81,0,0,1-.52,1.68,2.88,2.88,0,0,1-1.51,1l2.05,3.61Zm-1.79-5.35h1.18a.9.9,0,0,0,.63-.2.74.74,0,0,0,.22-.6.81.81,0,0,0-.22-.59.89.89,0,0,0-.63-.21H25.13Z" style="fill: #333"/>
      <path d="M32.58,58.63a4.71,4.71,0,0,1-1.76-1.73,4.77,4.77,0,0,1-.65-2.49,4.72,4.72,0,0,1,.65-2.49,4.64,4.64,0,0,1,1.76-1.73,5.11,5.11,0,0,1,4.88,0,4.61,4.61,0,0,1,1.75,1.73,4.82,4.82,0,0,1,.65,2.49,4.87,4.87,0,0,1-.65,2.49,4.71,4.71,0,0,1-1.76,1.73,5.09,5.09,0,0,1-4.87,0Zm3.8-2.7a2.68,2.68,0,0,0,0-3.06A1.68,1.68,0,0,0,35,52.3a1.7,1.7,0,0,0-1.37.57,2.68,2.68,0,0,0,0,3.06A1.7,1.7,0,0,0,35,56.5,1.68,1.68,0,0,0,36.38,55.93Z" style="fill: #333"/>
      <path d="M53.08,49.73l-2.16,9.43H47.25l-1.09-5.35-1.1,5.35H41.39l-2.16-9.43h3.19l.85,5.94,1.28-5.94h3.22L49,55.67l.86-5.94Z" style="fill: #333"/>
      <path d="M54,58.46a2.91,2.91,0,0,1-1.19-2.32h3.14c0,.54.28.81.72.81a.78.78,0,0,0,.41-.11.41.41,0,0,0,.16-.36.62.62,0,0,0-.36-.54,8.2,8.2,0,0,0-1.12-.47,12.06,12.06,0,0,1-1.49-.62,2.92,2.92,0,0,1-1-.9,2.38,2.38,0,0,1-.41-1.5,2.58,2.58,0,0,1,.47-1.57,2.84,2.84,0,0,1,1.29-1,4.9,4.9,0,0,1,1.84-.34,4.35,4.35,0,0,1,2.75.8,2.84,2.84,0,0,1,1.07,2.25H57.06a.78.78,0,0,0-.2-.57.6.6,0,0,0-.45-.17.43.43,0,0,0-.31.12.52.52,0,0,0-.12.36.6.6,0,0,0,.36.52,7.13,7.13,0,0,0,1.12.5,12.23,12.23,0,0,1,1.47.64,3.14,3.14,0,0,1,1,.85,2.19,2.19,0,0,1,.42,1.37,2.88,2.88,0,0,1-.42,1.55,2.92,2.92,0,0,1-1.24,1.08,4.58,4.58,0,0,1-1.93.38A4.63,4.63,0,0,1,54,58.46Z" style="fill: #333"/>
    </g>
  </g>
</svg>
