<svg id="f53dfb26-499a-410d-af99-9ce75c471486" data-name="Layer 1" xmlns="http://www.w3.org/2000/svg" width="64" height="64" viewBox="0 0 64 64">
  <g>
    <path d="M25.32,48a9.16,9.16,0,0,0,13-13c-.1-.1-.21-.21-.33-.31A13.51,13.51,0,0,1,34.32,36a6.12,6.12,0,0,1,1.8,9.9,6.12,6.12,0,0,1-10.44-4.25H22.63A9.07,9.07,0,0,0,25.32,48Z" style="fill: #333"/>
    <path d="M44.78,22.45a13,13,0,0,0-26-.08h3.05a9.94,9.94,0,1,1,17,7.11l-.15.15a13.34,13.34,0,0,1,2.48,1.83A12.93,12.93,0,0,0,44.78,22.45Z" style="fill: #333"/>
    <path d="M38.28,28.93a9.16,9.16,0,1,0-15.65-6.56h3.05a6.12,6.12,0,0,1,12.23.08A6.13,6.13,0,0,1,34.32,28,13.87,13.87,0,0,1,38,29.24C38.07,29.14,38.18,29,38.28,28.93Z" style="fill: #333"/>
    <path d="M46.23,32.05l0,0,0,0a17.78,17.78,0,0,0,1.54-2.85,17.25,17.25,0,0,0,0-13.33,17.25,17.25,0,0,0-3.67-5.43,17.09,17.09,0,0,0-24.2,0,17,17,0,0,0-5,12H18A13.76,13.76,0,1,1,41.7,32,13.76,13.76,0,1,1,18,41.63H14.89a17.11,17.11,0,1,0,32.88-6.74A17.27,17.27,0,0,0,46.23,32.05Z" style="fill: #333"/>
    <path d="M38.06,30.17A9.83,9.83,0,0,1,34.55,32a9.83,9.83,0,0,1,3.51,1.83A13.31,13.31,0,0,0,40.6,32,13.31,13.31,0,0,0,38.06,30.17Z" style="fill: #333"/>
    <path d="M22.61,50.74a13,13,0,0,0,18.54-18.2,13.34,13.34,0,0,1-2.48,1.83l.15.16a9.93,9.93,0,1,1-17,7.1H18.81A12.94,12.94,0,0,0,22.61,50.74Z" style="fill: #333"/>
    <path d="M37.3,29.78a12.91,12.91,0,0,0-5.13-1.21l.57.57-.55.55-1.5-1.51,1.5-1.51.55.55-.56.56a5.37,5.37,0,0,0,3.4-1.55,5.35,5.35,0,1,0-9.13-3.86H30a1.93,1.93,0,0,1,.15-.69,2,2,0,0,1,1.07-1.07,2.05,2.05,0,0,1,1.54,0,2,2,0,0,1,.64.43,2.12,2.12,0,0,1,.43.64,2.05,2.05,0,0,1,0,1.54,2,2,0,0,1-1.07,1.07l-4.61,1.95V37.76l4.61,2a2,2,0,0,1,1.07,1.06,2,2,0,0,1,.15.77,2,2,0,0,1-.15.78,2.08,2.08,0,0,1-.43.63,2,2,0,0,1-.64.43,2.05,2.05,0,0,1-1.54,0,2,2,0,0,1-.64-.43,2.08,2.08,0,0,1-.43-.63,2,2,0,0,1-.15-.7H26.45a5.35,5.35,0,1,0,9.13-3.86,5.37,5.37,0,0,0-3.4-1.55l.56.56-.55.55-1.5-1.51,1.5-1.51.55.55-.57.57a12.91,12.91,0,0,0,5.13-1.21,9.14,9.14,0,0,0-5.13-1.83l.57.57-.55.55L30.69,32l1.5-1.51.55.55-.57.57A9.14,9.14,0,0,0,37.3,29.78Z" style="fill: #333"/>
  </g>
</svg>
