<svg id="e8e0f8a7-0c32-4507-a4e1-a8a064404e8c" data-name="Layer 1" xmlns="http://www.w3.org/2000/svg" width="64" height="64" viewBox="0 0 64 64">
  <g>
    <polygon points="38.25 11.1 32 4.85 25.75 11.1 23.82 9.18 32 1 40.17 9.18 38.25 11.1" style="fill: #333"/>
    <path d="M33.57,9.21v0L32,7.63h0L30.42,9.19v0c0,6.37,0,2.59.13,9.1.15,10.52.44,7.19,1,20v0h1v0c.53-12.77.82-9.44,1-20C33.54,11.8,33.58,15.58,33.57,9.21Z" style="fill: #333"/>
    <polygon points="13.49 63 2.21 63 2.21 51.72 4.94 51.72 4.94 60.27 13.49 60.27 13.49 63" style="fill: #333"/>
    <path d="M7.11,55.88l0,0v2.21H9.33c4.51-4.5,1.81-1.85,6.35-6.52C23,44,20.45,46.19,29.11,36.79l0,0h0l-.68-.68h0c-9.41,8.66-7.26,6.1-14.8,13.44C9,54.08,11.6,51.38,7.11,55.88Z" style="fill: #333"/>
    <polygon points="61.79 14.7 59.06 14.7 59.06 6.15 50.51 6.15 50.51 3.42 61.79 3.42 61.79 14.7" style="fill: #333"/>
    <path d="M56.89,10.54h0V8.31H54.67c-4.51,4.5-1.81,1.86-6.35,6.52-7.33,7.55-4.77,5.4-13.43,14.81h0l.68.68h0c9.41-8.66,7.26-6.1,14.8-13.44C55,12.34,52.4,15.05,56.89,10.54Z" style="fill: #333"/>
    <polygon points="4.94 14.7 2.21 14.7 2.21 3.42 13.49 3.42 13.49 6.15 4.94 6.15 4.94 14.7" style="fill: #333"/>
    <path d="M9.33,8.32l0,0H7.09v2.22h0c4.5,4.51,1.86,1.81,6.52,6.35,7.55,7.33,5.4,4.77,14.8,13.43l0,0h0l.68-.69h0c-8.66-9.41-6.1-7.26-13.44-14.8C11.13,10.17,13.83,12.82,9.33,8.32Z" style="fill: #333"/>
    <polygon points="61.79 63 50.51 63 50.51 60.27 59.06 60.27 59.06 51.72 61.79 51.72 61.79 63" style="fill: #333"/>
    <path d="M54.67,58.1l0,0h2.22V55.89h0c-4.5-4.51-1.86-1.81-6.52-6.34C42.83,42.2,45,44.76,35.58,36.1h0l-.68.68h0C43.55,46.19,41,44,48.33,51.58,52.87,56.25,50.17,53.61,54.67,58.1Z" style="fill: #333"/>
  </g>
</svg>
