<svg id="f7490344-742f-467f-8fe9-ac86ec61ba15" data-name="Layer 1" xmlns="http://www.w3.org/2000/svg" width="64" height="64" viewBox="0 0 64 64">
  <g>
    <polygon points="7.46 14.58 5.39 12.51 14.19 3.71 22.98 12.51 20.91 14.58 14.19 7.85 7.46 14.58" style="fill: #333"/>
    <path d="M26.32,63H24.85a172.47,172.47,0,0,1-11-39.11c-.61-3.91-1.07-7.71-1.39-11.37l1.7-1.69,1.69,1.69q.58,5.57,1.46,11.34A268.33,268.33,0,0,0,26.32,63Z" style="fill: #333"/>
    <polygon points="56.54 14.58 49.81 7.85 43.09 14.58 41.02 12.51 49.81 3.71 58.61 12.51 56.54 14.58" style="fill: #333"/>
    <path d="M51.51,12.52c-.33,3.66-.78,7.46-1.4,11.37A173.54,173.54,0,0,1,39.16,63H37.68a268.37,268.37,0,0,0,9-39.14c.59-3.85,1.07-7.63,1.47-11.34l1.69-1.69Z" style="fill: #333"/>
    <polygon points="38.73 11.87 32 5.15 25.27 11.87 23.2 9.8 32 1 40.8 9.8 38.73 11.87" style="fill: #333"/>
    <path d="M33.69,9.82h0q0,10.29-.13,20.79Q33.33,47.08,32.72,63H31.27q-.61-15.9-.83-32.38-.17-10.5-.14-20.79h0L32,8.13h0Z" style="fill: #333"/>
  </g>
</svg>
