<svg id="a6533a29-b513-4d95-adf3-006151ef1d4d" data-name="Layer 1" xmlns="http://www.w3.org/2000/svg" width="64" height="64" viewBox="0 0 64 64">
  <g>
    <polygon points="32 63 24.13 55.13 25.99 53.28 32 59.29 38.01 53.28 39.87 55.13 32 63" style="fill: #333"/>
    <path d="M30.49,55.1v0L32,56.62h0l1.51-1.5v0c0-6.13,0-2.49-.12-8.76-.14-10.12-.42-6.92-.93-19.21v0h-.93v0c-.51,12.29-.79,9.09-.93,19.21C30.52,52.61,30.48,49,30.49,55.1Z" style="fill: #333"/>
    <polygon points="38.01 10.72 32 4.71 25.99 10.72 24.13 8.87 32 1 39.87 8.87 38.01 10.72" style="fill: #333"/>
    <path d="M33.51,8.9v0L32,7.38h0l-1.51,1.5v0c0,6.13,0,2.49.12,8.76.14,10.12.42,6.92.93,19.21v0h.93v0c.51-12.29.79-9.09.93-19.21C33.48,11.39,33.52,15,33.51,8.9Z" style="fill: #333"/>
    <polygon points="8.87 39.87 1 32 8.87 24.13 10.72 25.99 4.71 32 10.72 38.01 8.87 39.87" style="fill: #333"/>
    <polygon points="55.13 39.87 53.28 38.01 59.29 32 53.28 25.99 55.13 24.13 63 32 55.13 39.87" style="fill: #333"/>
    <path d="M31.85,31.31c-6.58-.37-5.78-.58-14.19-.7-6.27-.09-2.63-.13-8.76-.12h0L7.39,32h0l1.5,1.51h0c6.13,0,2.49,0,8.76-.12,8.53-.12,7.6-.34,14.46-.71h0l.44,0a.07.07,0,0,0,0,0c0-.41,0-.84.06-1.33v-.07l-.77,0Z" style="fill: #333"/>
    <path d="M55.11,30.48h0c-6.13,0-2.49,0-8.76.12-7.55.1-7.68.3-12.37.59,0,.08,0,.15,0,.23,0,.42,0,.8.06,1.17a.75.75,0,0,0,0,.22c4.6.29,4.78.47,12.28.58,6.27.09,2.63.13,8.76.12h0L56.62,32h0Z" style="fill: #333"/>
  </g>
</svg>
