<svg id="a2ab6127-b0f5-4bc3-a3ac-bf5f9ed8aa4d" data-name="Layer 1" xmlns="http://www.w3.org/2000/svg" width="64" height="64" viewBox="0 0 64 64">
  <g>
    <polyline points="26.71 15.31 32 10.02 37.29 15.31" style="fill: none;stroke: #333;stroke-miterlimit: 10;stroke-width: 1.9999999266404385px"/>
    <path d="M33.15,14.63h0L32,13.47h0l-1.15,1.15h0c0,4.68,0,1.9.09,6.68.11,7.72.33,5.28.71,14.66h.71c.39-9.38.6-6.94.71-14.66C33.13,16.53,33.16,19.31,33.15,14.63Z" style="fill: #333"/>
    <polyline points="18.41 53.12 11.13 53.12 11.13 45.84" style="fill: none;stroke: #333;stroke-miterlimit: 10;stroke-width: 1.9999999266404385px"/>
    <path d="M13.73,48.89h0v1.63h1.64c3.31-3.31,1.33-1.37,4.66-4.79,5.38-5.54,3.5-4,9.86-10.87h0l-.5-.51h0c-6.91,6.36-5.33,4.48-10.87,9.87C15.09,47.57,17,45.58,13.73,48.89Z" style="fill: #333"/>
    <polyline points="45.59 11.38 52.87 11.38 52.87 18.66" style="fill: none;stroke: #333;stroke-miterlimit: 10;stroke-width: 1.9999999266404385px"/>
    <path d="M50.27,15.61h0V14H48.64c-3.31,3.31-1.33,1.37-4.66,4.79-5.38,5.54-3.5,4-9.86,10.87h0l.5.51h0c6.91-6.36,5.33-4.48,10.87-9.87C48.91,16.93,47,18.92,50.27,15.61Z" style="fill: #333"/>
    <polyline points="11.13 18.66 11.13 11.38 18.41 11.38" style="fill: none;stroke: #333;stroke-miterlimit: 10;stroke-width: 1.9999999266404385px"/>
    <path d="M15.36,14H13.71V15.6h0c3.31,3.31,1.37,1.33,4.79,4.66,5.54,5.38,4,3.5,10.87,9.86h0l.51-.5h0C23.52,22.72,25.4,24.3,20,18.76,16.68,15.34,18.67,17.28,15.36,14Z" style="fill: #333"/>
    <polyline points="52.87 45.84 52.87 53.12 45.59 53.12" style="fill: none;stroke: #333;stroke-miterlimit: 10;stroke-width: 1.9999999266404385px"/>
    <path d="M48.64,50.52h1.65V48.9h0c-3.31-3.31-1.37-1.33-4.79-4.66-5.54-5.38-4-3.5-10.87-9.86h0l-.51.5h0C40.48,41.78,38.6,40.2,44,45.74,47.32,49.16,45.33,47.22,48.64,50.52Z" style="fill: #333"/>
  </g>
</svg>
