<svg id="e0a1cb32-e9f9-4d47-9a5c-63076ac76a46" data-name="Layer 1" xmlns="http://www.w3.org/2000/svg" width="64" height="64" viewBox="0 0 64 64">
  <g>
    <polyline points="17.06 15.29 22.35 10 27.64 15.29" style="fill: none;stroke: #333;stroke-miterlimit: 10;stroke-width: 1.9999999266404385px"/>
    <path d="M30.62,49h-1a117.9,117.9,0,0,1-7.48-26.67c-.42-2.67-.73-5.26-.95-7.76l1.16-1.15,1.15,1.15q.41,3.8,1,7.74A183.37,183.37,0,0,0,30.62,49Z" style="fill: #333"/>
    <polyline points="46.94 15.29 41.65 10 36.36 15.29" style="fill: none;stroke: #333;stroke-miterlimit: 10;stroke-width: 1.9999999266404385px"/>
    <path d="M42.8,14.59c-.22,2.5-.53,5.09-.95,7.76A118.44,118.44,0,0,1,34.38,49h-1a183.37,183.37,0,0,0,6.12-26.69q.6-3.94,1-7.74l1.15-1.15Z" style="fill: #333"/>
  </g>
</svg>
