<svg id="e26dd191-50e9-425f-9c02-bc5c3f38fdaa" data-name="Layer 1" xmlns="http://www.w3.org/2000/svg" width="64" height="64" viewBox="0 0 64 64">
  <g>
    <polygon points="38.1 17.2 31.96 11.06 25.83 17.2 23.94 15.31 31.96 7.28 39.99 15.31 38.1 17.2" style="fill: #333"/>
    <path d="M33.5,15.34v0L32,13.79h0l-1.54,1.53v0c0,6.25,0,2.54.12,8.93.14,10.33.43,7.06.94,19.6v0h.95v0c.52-12.54.81-9.27,1-19.6C33.47,17.88,33.51,21.59,33.5,15.34Z" style="fill: #333"/>
    <polygon points="54.98 46.72 53.08 44.83 59.22 38.69 53.08 32.56 54.98 30.67 63 38.69 54.98 46.72" style="fill: #333"/>
    <path d="M56.5,38.68h0L55,40.23h0c-6.25,0-5.89,0-12.27-.12-3.91-.06-6.3-.12-8.15-.22,0-.84.1-1.6.16-2.4,1.83-.1,4.2-.16,8-.22,6.38-.09,6-.13,12.27-.13h0Z" style="fill: #333"/>
    <polygon points="9.03 46.72 1 38.69 9.03 30.67 10.92 32.56 4.78 38.69 10.92 44.83 9.03 46.72" style="fill: #333"/>
    <path d="M7.5,38.68h0L9,40.23h0c6.25,0,5.89,0,12.27-.12,3.91-.06,6.3-.12,8.15-.22-.05-.84-.1-1.6-.16-2.4-1.83-.1-4.2-.16-8-.22-6.38-.09-6-.13-12.27-.13H9Z" style="fill: #333"/>
  </g>
</svg>
