<svg id="a3924dec-0d22-47de-b16f-4dfa18cc179e" data-name="Layer 1" xmlns="http://www.w3.org/2000/svg" width="64" height="64" viewBox="0 0 64 64">
  <g>
    <polygon points="10.17 12.37 8.01 10.2 17.21 1 26.41 10.2 24.24 12.37 17.21 5.34 10.17 12.37" style="fill: #333"/>
    <path d="M29.89,63H28.36A180,180,0,0,1,16.89,22.11c-.65-4.1-1.12-8.07-1.46-11.9C16,9.63,16.61,9,17.21,8.45L19,10.21c.42,3.88.92,7.84,1.54,11.87A280.33,280.33,0,0,0,29.89,63Z" style="fill: #333"/>
    <polygon points="53.83 12.37 46.79 5.34 39.76 12.37 37.59 10.2 46.79 1 55.99 10.2 53.83 12.37" style="fill: #333"/>
    <path d="M48.56,10.21q-.5,5.74-1.45,11.9A181.53,181.53,0,0,1,35.65,63H34.11a283,283,0,0,0,9.38-40.92q.91-6,1.53-11.87l1.77-1.76Z" style="fill: #333"/>
  </g>
</svg>
