<svg id="f277b8c1-c17e-4fd4-a0f2-3ad5f02114f9" data-name="Layer 1" xmlns="http://www.w3.org/2000/svg" width="64" height="64" viewBox="0 0 64 64">
  <g>
    <polyline points="37.29 48.94 32 54.23 26.71 48.94" style="fill: none;stroke: #333;stroke-miterlimit: 10;stroke-width: 1.9999999266404385px"/>
    <path d="M30.85,49.62h0L32,50.78h0l1.15-1.15h0c0-4.68,0-1.9-.09-6.68-.11-7.72-.33-5.28-.71-14.66h-.71c-.39,9.38-.6,6.94-.71,14.66C30.87,47.72,30.84,44.94,30.85,49.62Z" style="fill: #333"/>
    <polyline points="26.71 15.06 32 9.77 37.29 15.06" style="fill: none;stroke: #333;stroke-miterlimit: 10;stroke-width: 1.9999999266404385px"/>
    <path d="M33.15,14.38h0L32,13.22h0l-1.15,1.15h0c0,4.68,0,1.9.09,6.68.11,7.72.33,5.28.71,14.66h.71c.39-9.38.6-6.94.71-14.66C33.13,16.28,33.16,19.06,33.15,14.38Z" style="fill: #333"/>
    <polyline points="15.06 37.29 9.77 32 15.06 26.71" style="fill: none;stroke: #333;stroke-miterlimit: 10;stroke-width: 1.9999999266404385px"/>
    <polyline points="48.94 26.71 54.23 32 48.94 37.29" style="fill: none;stroke: #333;stroke-miterlimit: 10;stroke-width: 1.9999999266404385px"/>
    <path d="M31.89,31.47c-5-.28-4.41-.44-10.83-.53-4.78-.07-2-.1-6.68-.09h0L13.23,32h0l1.15,1.15h0c4.68,0,1.9,0,6.68-.09,6.51-.09,5.8-.26,11-.54h0l.33,0s0,0,0,0c0-.31,0-.64,0-1v-.06l-.59,0Z" style="fill: #333"/>
    <path d="M49.63,30.84h0c-4.68,0-1.9,0-6.68.09-5.76.08-5.86.23-9.44.45,0,.06,0,.12,0,.18,0,.32,0,.61.05.89a.91.91,0,0,0,0,.17c3.51.22,3.65.36,9.37.44,4.78.07,2,.1,6.68.09h0L50.78,32h0Z" style="fill: #333"/>
  </g>
</svg>
