<svg id="b3d23914-14a2-4537-ba2f-63ba2d29920d" data-name="Layer 1" xmlns="http://www.w3.org/2000/svg" width="64" height="64" viewBox="0 0 64 64">
  <g>
    <polyline points="26.68 15.29 31.97 10 37.27 15.29" style="fill: none;stroke: #333;stroke-miterlimit: 10;stroke-width: 1.9999999266404385px"/>
    <path d="M33.12,14.61h0L32,13.45h0L30.81,14.6h0c0,4.68,0,1.9.09,6.68.1,7.72.32,5.28.7,14.66h.71c.39-9.38.61-6.94.71-14.66C33.1,16.51,33.13,19.29,33.12,14.61Z" style="fill: #333"/>
    <polyline points="48.47 26.78 53.77 32.07 48.47 37.36" style="fill: none;stroke: #333;stroke-miterlimit: 10;stroke-width: 1.9999999266404385px"/>
    <path d="M50.32,32.06h0l-1.15,1.15h0c-4.67,0-4.4,0-9.17-.09-2.93,0-4.71-.09-6.1-.16,0-.63.08-1.2.12-1.8,1.37-.07,3.14-.12,6-.16,4.77-.07,4.5-.1,9.17-.1h0Z" style="fill: #333"/>
    <polyline points="15.53 26.78 10.23 32.07 15.53 37.36" style="fill: none;stroke: #333;stroke-miterlimit: 10;stroke-width: 1.9999999266404385px"/>
    <path d="M13.68,32.06h0l1.15,1.15h0c4.67,0,4.4,0,9.17-.09,2.93,0,4.71-.09,6.1-.16,0-.63-.08-1.2-.12-1.8-1.37-.07-3.14-.12-6-.16-4.77-.07-4.5-.1-9.17-.1h0Z" style="fill: #333"/>
  </g>
</svg>
