<svg id="b2428921-a283-4e5e-ba39-352654e11b71" data-name="Layer 1" xmlns="http://www.w3.org/2000/svg" width="64" height="64" viewBox="0 0 64 64">
  <g>
    <polyline points="48.44 27.28 53.74 32.57 48.44 37.86" style="fill: none;stroke: #333;stroke-miterlimit: 10;stroke-width: 1.9999999266404385px"/>
    <path d="M32.21,31.77c0,.54.07,1.05.11,1.61-1.9-.12-3.58-.27-8-.46h0v-.71h0C28.65,32,30.35,31.88,32.21,31.77Z" style="fill: #333"/>
    <path d="M50.29,32.56h0l-1.15,1.15h0c-4.67,0-4.4,0-9.17-.09-2.93,0-4.71-.09-6.1-.16,0-.63.08-1.2.12-1.8,1.37-.07,3.14-.12,6-.16,4.77-.07,4.5-.1,9.17-.1h0Z" style="fill: #333"/>
    <polyline points="26.71 15.29 32 10 37.29 15.29" style="fill: none;stroke: #333;stroke-miterlimit: 10;stroke-width: 1.9999999266404385px"/>
    <path d="M33.15,14.61h0L32,13.45h0L30.84,14.6h0c0,4.68,0,4.4.09,9.18.13,8.72.37,7.28.71,15.66h.71c.35-8.38.59-6.94.71-15.66C33.13,19,33.16,19.29,33.15,14.61Z" style="fill: #333"/>
  </g>
</svg>
