<svg id="b43a3ede-e532-4ea7-89f9-781be209e649" data-name="Layer 1" xmlns="http://www.w3.org/2000/svg" width="64" height="64" viewBox="0 0 64 64">
  <g>
    <polygon points="47.28 55.57 44.99 53.28 52.42 45.85 44.99 38.42 47.28 36.13 57 45.85 47.28 55.57" style="fill: #333"/>
    <path d="M19.84,44.55c.05.87.12,1.7.18,2.61-3.07-.2-5.8-.44-13-.75H7V45.26H7C14.08,45,16.83,44.73,19.84,44.55Z" style="fill: #333"/>
    <path d="M49.13,45.83h0l-1.86,1.87h0c-7.57,0-7.13,0-14.86-.15-4.74-.06-7.63-.14-9.88-.26.07-1,.13-1.94.2-2.91,2.21-.12,5.08-.2,9.68-.26C40.11,44,39.67,44,47.24,44h0Z" style="fill: #333"/>
    <polygon points="26.93 19.01 19.5 11.58 12.07 19.01 9.78 16.71 19.5 7 29.22 16.71 26.93 19.01" style="fill: #333"/>
    <path d="M21.37,16.76v0L19.5,14.87h0l-1.87,1.87v0c0,7.57,0,7.12.14,14.86.2,14.13.59,11.79,1.15,25.36v0h1.15v0c.56-13.57.95-11.23,1.15-25.36C21.33,23.88,21.37,24.33,21.37,16.76Z" style="fill: #333"/>
  </g>
</svg>
