<svg id="b148d3f0-5800-4a2f-95e8-0234d1437f96" data-name="Layer 1" xmlns="http://www.w3.org/2000/svg" width="64" height="64" viewBox="0 0 64 64">
  <g>
    <polygon points="21.78 11.22 24.08 13.51 30.38 7.21 30.38 20.79 33.62 20.79 33.62 7.21 39.92 13.51 42.22 11.22 32 1 21.78 11.22" style="fill: #333"/>
    <polygon points="33.62 56.79 33.62 43.21 30.38 43.21 30.38 56.79 24.08 50.49 21.78 52.78 32 63 42.22 52.78 39.92 50.49 33.62 56.79" style="fill: #333"/>
    <polygon points="52.78 21.78 50.49 24.07 56.79 30.38 43.2 30.38 43.2 33.62 56.79 33.62 50.49 39.92 52.78 42.22 63 32 52.78 21.78" style="fill: #333"/>
    <polygon points="13.51 24.07 11.22 21.78 1 32 11.22 42.22 13.51 39.92 7.21 33.62 20.8 33.62 20.8 30.38 7.21 30.38 13.51 24.07" style="fill: #333"/>
  </g>
</svg>
