<svg id="b092cb8d-deca-4f8f-be15-8cfad933d8f5" data-name="Layer 1" xmlns="http://www.w3.org/2000/svg" width="64" height="64" viewBox="0 0 64 64">
  <g>
    <polygon points="23.34 13.17 25.65 15.48 30.36 10.76 30.36 37.55 33.63 37.55 33.63 10.76 38.35 15.48 40.66 13.17 32 4.5 23.34 13.17" style="fill: #333"/>
    <polygon points="46.07 7.11 46.07 10.38 53.42 10.38 44.55 19.25 46.87 21.57 55.73 12.7 55.73 20.05 59 20.05 59 7.11 46.07 7.11" style="fill: #333"/>
    <polygon points="17.14 45.05 8.27 53.92 8.27 46.56 5 46.56 5 59.5 17.93 59.5 17.93 56.23 10.58 56.23 19.45 47.36 17.14 45.05" style="fill: #333"/>
    <polygon points="55.73 53.92 46.87 45.05 44.55 47.36 53.42 56.23 46.07 56.23 46.07 59.5 59 59.5 59 46.56 55.73 46.56 55.73 53.92" style="fill: #333"/>
    <polygon points="17.93 10.38 17.93 7.11 5 7.11 5 20.05 8.27 20.05 8.27 12.7 17.14 21.57 19.45 19.25 10.58 10.38 17.93 10.38" style="fill: #333"/>
  </g>
</svg>
