<svg id="a14c2cc2-1456-42d8-8424-214e38241f8e" data-name="Layer 1" xmlns="http://www.w3.org/2000/svg" width="64" height="64" viewBox="0 0 64 64">
  <g>
    <polygon points="5 29.54 7.37 31.91 13.87 25.4 13.87 47.82 17.21 47.82 17.21 25.4 23.72 31.91 26.08 29.54 15.54 18.98 5 29.54" style="fill: #333"/>
    <polygon points="40.17 18.93 42.54 16.56 32 6 21.46 16.56 23.82 18.93 30.33 12.42 30.33 58 33.67 58 33.67 12.42 40.17 18.93" style="fill: #333"/>
    <polygon points="59 29.54 48.46 18.98 37.92 29.54 40.28 31.91 46.78 25.4 46.78 47.82 50.13 47.82 50.13 25.4 56.63 31.91 59 29.54" style="fill: #333"/>
  </g>
</svg>
