<svg id="a332ac75-3cb4-4bf4-aa99-59fdaa3be8b6" data-name="Layer 1" xmlns="http://www.w3.org/2000/svg" width="64" height="64" viewBox="0 0 64 64">
  <g>
    <polygon points="52.78 29.26 50.49 31.59 56.79 37.99 43.21 37.99 43.21 41.28 56.79 41.28 50.49 47.67 52.78 50 63 39.63 52.78 29.26" style="fill: #333"/>
    <polygon points="13.51 31.59 11.22 29.26 1 39.63 11.22 50 13.51 47.67 7.21 41.28 20.8 41.28 20.8 37.99 7.21 37.99 13.51 31.59" style="fill: #333"/>
    <polygon points="21.78 19.37 24.08 21.7 30.38 15.3 30.38 37.31 33.62 37.31 33.62 15.3 39.92 21.7 42.22 19.37 32 9 21.78 19.37" style="fill: #333"/>
  </g>
</svg>
