<?xml version="1.0" encoding="UTF-8"?><svg id="Layer_1" xmlns="http://www.w3.org/2000/svg" viewBox="0 0 64 64"><defs><style>.cls-1{fill:#1a1a1a;}</style></defs><path class="cls-1" d="M21.65,44.33v-.95c0-3.43,0-6.85,0-10.28,0-2.06,.99-3.04,3.06-3.04,4.86,0,9.71,0,14.57,0,2.09,0,3.06,.99,3.06,3.12,0,3.4,0,6.8,0,10.2,0,.28,0,.56,0,.95h.96c5.53,0,11.05,0,16.58,0,2.16,0,3.12,.96,3.12,3.13,0,4.02,0,8.04,0,12.07,0,1.98-.98,2.97-2.95,2.97-18.7,0-37.4,0-56.09,0-1.97,0-2.95-1-2.95-2.97,0-4.05,0-8.1,0-12.14,0-2.07,.98-3.05,3.04-3.05,5.53,0,11.05,0,16.58,0h1.04Zm2.59-11.64v.87c0,3.82,0,7.63,0,11.45,0,1.56-.36,1.92-1.92,1.92-5.92,0-11.83,0-17.75,0h-.94v12.92H60.34v-12.92h-.97c-5.94,0-11.88,0-17.82,0-1.41,0-1.8-.39-1.8-1.79,0-3.87,0-7.73,0-11.6v-.85h-15.5Z"/><path class="cls-1" d="M38.04,8.31c.08,2.27-.59,4.17-1.95,5.86-.7,.87-.49,1.52,.53,1.93,1.62,.66,3.25,1.31,4.84,2.03,1.44,.65,2.42,1.77,2.8,3.33,.26,1.08,.48,2.17,.6,3.27,.09,.81-.41,1.34-1.12,1.41-.73,.07-1.25-.39-1.4-1.23-.15-.84-.28-1.68-.47-2.51-.22-.97-.79-1.67-1.72-2.06-1.55-.64-3.09-1.29-4.66-1.89-2.38-.91-3.23-3.68-1.6-5.67,1.42-1.73,1.72-3.66,1.5-5.76-.18-1.65-1.74-2.94-3.47-2.91-1.69,.03-3.16,1.33-3.33,2.98-.22,2.11,.05,4.09,1.56,5.72,.94,1.01,.88,3.38,.22,4.34-.34,.49-.95,.87-1.51,1.12-1.37,.61-2.76,1.17-4.17,1.64-1.99,.65-2.72,2.14-2.93,4.05-.04,.39-.07,.78-.15,1.16-.13,.66-.7,1.09-1.35,1.01-.67-.08-1.15-.46-1.13-1.16,.06-2.77,.71-5.77,3.78-7.07,1.47-.63,2.95-1.22,4.44-1.8,1.07-.42,1.25-1.06,.51-1.99-.99-1.24-1.69-2.63-1.84-4.21-.19-2.05-.27-4.11,1.09-5.89,1.7-2.23,4.25-3.04,6.88-2.18,2.31,.76,3.96,3.09,4.04,5.71,0,.29,0,.57,0,.75Z"/><path class="cls-1" d="M14.79,27.74c.09,2.22-.55,4.18-1.97,5.9-.68,.82-.47,1.53,.5,1.89,.87,.32,1.74,.64,2.6,.99,.94,.37,1.32,1.06,1.02,1.79-.3,.75-1.04,.99-1.95,.64-.96-.37-1.93-.73-2.89-1.09-2.13-.79-3.05-3.63-1.6-5.41,1.39-1.71,1.83-3.58,1.68-5.71-.13-1.81-1.56-3.16-3.46-3.16-1.89,0-3.31,1.37-3.43,3.18-.14,2.1,.28,3.95,1.65,5.64,1.5,1.86,.61,4.63-1.6,5.46-.82,.31-1.64,.63-2.46,.92-.82,.29-1.5,.02-1.8-.7-.27-.65,.05-1.36,.82-1.68,.74-.31,1.49-.57,2.24-.85,.97-.36,1.18-1.05,.52-1.88-1.01-1.26-1.74-2.65-1.89-4.27-.19-2.15-.3-4.3,1.2-6.15,1.63-2.01,4.28-2.79,6.84-1.93,2.28,.76,3.91,3.05,3.96,5.58,0,.28,0,.57,0,.85Z"/><path class="cls-1" d="M61.28,27.63c.08,2.39-.57,4.31-1.94,5.98-.71,.86-.51,1.57,.51,1.94,.73,.27,1.46,.52,2.17,.82,.79,.33,1.14,1.01,.9,1.65-.27,.74-.99,1.04-1.84,.74-.8-.28-1.6-.59-2.4-.88-2.25-.82-3.07-3.54-1.66-5.53,.27-.38,.58-.73,.83-1.12,.96-1.54,1.01-3.26,.74-4.96-.28-1.76-1.92-2.84-3.8-2.67-1.59,.14-2.87,1.59-2.99,3.26-.15,2.05,.29,3.85,1.61,5.5,1.53,1.9,.66,4.67-1.59,5.52-.97,.36-1.93,.73-2.89,1.1-.86,.32-1.61,.07-1.89-.64-.29-.72,.06-1.43,.93-1.78,.91-.37,1.83-.7,2.75-1.04,.88-.33,1.06-1,.5-1.8-.36-.51-.76-.99-1.04-1.54-1.26-2.49-1.46-5.11-.39-7.66,1.14-2.72,4.01-4.04,6.84-3.39,2.65,.6,4.58,3.04,4.65,5.88,0,.28,0,.57,0,.63Z"/></svg>