<?xml version="1.0" encoding="UTF-8"?><svg id="Layer_1" xmlns="http://www.w3.org/2000/svg" viewBox="0 0 64 64"><defs><style>.cls-1{fill:#f2f2f2;}.cls-2{fill:#999;}</style></defs><polygon class="cls-1" points="41.4 32 26.6 22.19 26.6 41.81 41.4 32"/><path class="cls-2" d="M57.65,29.92c-1.15,0-2.08,.93-2.08,2.08,0,13-10.57,23.57-23.57,23.57s-23.57-10.57-23.57-23.57S19,8.43,32,8.43c8.2,0,15.85,4.33,20.12,11.31h-5.81v3.72h12.42V11.04h-3.72v5.49c-5.13-7.6-13.78-12.26-23.01-12.26-15.29,0-27.73,12.44-27.73,27.73s12.44,27.73,27.73,27.73,27.73-12.44,27.73-27.73c0-1.15-.93-2.08-2.08-2.08Z"/></svg>