<svg id="b8a85424-32a5-4d92-9d29-7b2a162036c7" data-name="Layer 1" xmlns="http://www.w3.org/2000/svg" width="64" height="64" viewBox="0 0 64 64">
  <g>
    <path d="M28.55,53v0a2.05,2.05,0,0,0-.7,4,1.42,1.42,0,0,0,.35,0A2.06,2.06,0,0,0,28.55,53Z" style="fill: #333"/>
    <path d="M22,50.73a2,2,0,0,0-2.79.8A2.06,2.06,0,0,0,20,54.32a2.19,2.19,0,0,0,1,.24,2,2,0,0,0,1-3.83Z" style="fill: #333"/>
    <path d="M52.26,26.94a2.06,2.06,0,0,0,2,1.53,1.55,1.55,0,0,0,.51-.08,2.06,2.06,0,0,0,1.48-2.5,2.1,2.1,0,0,0-2.53-1.46A2.06,2.06,0,0,0,52.26,26.94Z" style="fill: #333"/>
    <path d="M35.5,53a2,2,0,0,0,.33,4.07,1.27,1.27,0,0,0,.33,0,2,2,0,1,0-.66-4Z" style="fill: #333"/>
    <path d="M47.52,46.44a2.07,2.07,0,0,0,.12,2.91,2.16,2.16,0,0,0,1.4.54,2.05,2.05,0,1,0-1.52-3.45Z" style="fill: #333"/>
    <path d="M54,39.53a2,2,0,1,0-1.6,3.77,2.09,2.09,0,0,0,.8.17,2.05,2.05,0,0,0,.8-3.94Z" style="fill: #333"/>
    <path d="M42.06,50.75a2,2,0,0,0,1,3.83,1.88,1.88,0,0,0,1-.24,2,2,0,1,0-1.95-3.59Z" style="fill: #333"/>
    <path d="M55.11,32a2.07,2.07,0,0,0-2.2,1.91,2,2,0,0,0,1.89,2.19H55a2.05,2.05,0,0,0,.15-4.1Z" style="fill: #333"/>
    <path d="M51.75,6.93l-4.09.36.52,6A25,25,0,0,0,14.33,50.06a2.05,2.05,0,1,0,2.9-2.9A20.93,20.93,0,0,1,45.5,16.34l-5.86.51L40,20.94l12.88-1.13Z" style="fill: #333"/>
  </g>
</svg>
