<svg id="ff550073-525c-4fa3-897f-2062c8140709" data-name="Layer 1" xmlns="http://www.w3.org/2000/svg" width="64" height="64" viewBox="0 0 64 64">
  <g id="a4116e92-38eb-4a60-8d12-688d305bc5fa" data-name="shield">
    <path id="f5efaa58-b2c1-47bd-86b9-901e345d949a" data-name="shdw" d="M43.71,26H30.29A3.29,3.29,0,0,0,27,29.1v.27L27.55,42a1.8,1.8,0,0,0,0,.22c.43,4.52,1.43,5,7,7.78l1.63.83a2,2,0,0,0,1.67,0L39.45,50c5.55-2.78,6.55-3.28,7-7.83L47,29.37v-.28A3.29,3.29,0,0,0,43.71,26Z" style="opacity: 0.1"/>
    <path d="M38.71,20.5H25.29A3.29,3.29,0,0,0,22,23.6v.27l.55,12.62a1.8,1.8,0,0,0,0,.22c.43,4.52,1.43,5,7,7.78l1.63.83a2,2,0,0,0,1.67,0l1.63-.83c5.55-2.78,6.55-3.28,7-7.83L42,23.87v-.28A3.29,3.29,0,0,0,38.71,20.5Z" style="fill: red;stroke: red;stroke-miterlimit: 10;stroke-width: 3px"/>
    <g id="b71d47ce-8c34-448b-9d8c-66578206eaf4" data-name="shield-front">
      <path d="M38.71,20.5H25.29A3.29,3.29,0,0,0,22,23.6v.27l.55,12.62a1.8,1.8,0,0,0,0,.22c.43,4.52,1.43,5,7,7.78l1.63.83a2,2,0,0,0,1.67,0l1.63-.83c5.55-2.78,6.55-3.28,7-7.83L42,23.87v-.28A3.29,3.29,0,0,0,38.71,20.5Z" style="fill: #333"/>
      <path d="M40.21,23.91h0v-.16h0v0h0v-.12h0l0-.05v0l0-.05s0,0,0-.05h0v0l0,0v0h0v0h0l0,0h0l0,0h0v0h0v0l0,0h0l0,0h0l0,0,0,0,0,0,0,0,0,0,0,0-.05,0,0,0-.17-.08a.64.64,0,0,0-.18-.06l-.19,0H32.28l0,10.5,0,10.5h.1L34,42.62l1.41-.73c.43-.22.8-.43,1.14-.62s.64-.37.91-.55a5.14,5.14,0,0,0,1.21-1,3.19,3.19,0,0,0,.64-1.19h0V37.34s0,0,0,0v-.1a.06.06,0,0,1,0,0V37a.11.11,0,0,1,0-.05v-.15a.25.25,0,0,0,0-.08v-.08s0-.06,0-.09a.25.25,0,0,1,0-.08v-.1l.13-3.07L40,30.17l.14-3.08L40.22,24h0v-.05h0Z" style="fill: #4d4d4d"/>
    </g>
  </g>
</svg>
