<svg id="aac8a160-16a2-47ad-8a5f-2f6413ce72cc" data-name="Layer 1" xmlns="http://www.w3.org/2000/svg" width="64" height="64" viewBox="0 0 64 64">
  <circle cx="32" cy="31.63" r="24.5" style="fill: #333"/>
  <path d="M64,30.29l-3.55.18a28,28,0,0,0-.65-4.69L63.23,25A32,32,0,0,0,41,1.27L40,4.7a27.36,27.36,0,0,0-4.65-.94L35.74.22A31.15,31.15,0,0,0,32,0,32.05,32.05,0,0,0,4,16.53L7.1,18.26a27.47,27.47,0,0,0-1.93,4.32L1.8,21.4A32,32,0,0,0,8.13,53.32l2.67-2.39a28.57,28.57,0,0,0,3.43,3.26L12,57a32,32,0,0,0,32.21,4.61l-1.36-3.3a28.73,28.73,0,0,0,4.2-2.17l1.9,3A31.87,31.87,0,0,0,64,32C64,31.43,64,30.85,64,30.29ZM11.89,49.5q-.33-.37-.63-.75l-.33-.41-.55-.74-.31-.43c-.18-.26-.35-.53-.53-.8L9.28,46c-.21-.35-.42-.71-.62-1.07l-.1-.17c-.22-.41-.44-.84-.64-1.27-.07-.13-.12-.26-.18-.39-.14-.31-.28-.62-.41-.94l-.19-.48-.33-.89c-.06-.17-.11-.34-.17-.51s-.19-.62-.28-.93-.13-.43-.19-.65h0c-.11-.42-.21-.85-.29-1.28h0c-.08-.43-.16-.87-.23-1.31h0c-.07-.44-.12-.89-.17-1.33h0c-.09-.9-.14-1.81-.14-2.73s0-1.83.14-2.73h0c0-.45.1-.89.17-1.33h0c.07-.44.15-.88.24-1.31h0c.15-.74.33-1.47.55-2.19q.13-.48.3-1a26.43,26.43,0,0,1,3.16-6.39h0c.48-.71,1-1.39,1.53-2.05h0c.28-.33.55-.65.84-1h0c.57-.63,1.18-1.23,1.81-1.81h0c.32-.29.64-.57,1-.84h0l1-.79h0l1-.74h0l.49-.31c.37-.24.75-.48,1.14-.7l.35-.2c.48-.27,1-.52,1.46-.76l.24-.11c.43-.2.86-.38,1.31-.56l.41-.16c.52-.2,1-.39,1.58-.56h0c.49-.15,1-.29,1.5-.41l1.05-.24h0l1.31-.23h0c.44-.07.89-.12,1.33-.17h0c.45,0,.9-.08,1.36-.1h0c.45,0,.91,0,1.37,0l.83,0c.46,0,.92,0,1.38.08a26.44,26.44,0,0,1,5.72,1.1h0c.42.13.83.27,1.24.42h0c.4.15.79.3,1.18.47l0,0,.68.3c.58.27,1.15.55,1.71.86l.18.1c.54.3,1.06.62,1.57,1l.23.15c.53.35,1,.72,1.53,1.1l.3.24c.49.39,1,.8,1.44,1.22l.82.78h0c.3.31.59.61.88.93h0c.29.32.57.64.84,1h0c.27.33.53.66.79,1h0l.44.61.41.6c.11.16.22.33.32.5l.38.61.31.53.34.63c.1.18.19.36.28.54l.31.64.26.57.27.65c.08.2.16.39.23.58s.17.45.25.68.13.39.2.59l.21.69c.06.2.12.4.17.6l.18.71a27.32,27.32,0,0,1,.7,4.82v.15c0,.41,0,.83,0,1.25a26.6,26.6,0,0,1-.84,6.66h0a27.34,27.34,0,0,1-1.34,3.88c-.22.53-.47,1-.73,1.55l-.18.34c-.27.53-.57,1-.88,1.55-.05.09-.11.18-.17.27-.29.45-.59.9-.91,1.34l-.16.23c-.35.48-.72.94-1.11,1.39a3.47,3.47,0,0,1-.25.29c-.39.45-.79.89-1.2,1.3l0,0q-.65.64-1.32,1.23l-.3.26c-.46.38-.92.76-1.39,1.11l-.21.15c-.44.31-.89.62-1.34.91A27.06,27.06,0,0,1,42,56.74c-.44.17-.89.34-1.34.49l-.41.14c-.53.18-1.08.34-1.63.48l-.24,0c-.48.12-1,.22-1.47.32l-.45.07c-.57.1-1.14.18-1.73.24a26.47,26.47,0,0,1-2.69.14,27.13,27.13,0,0,1-4.06-.31h0c-.88-.14-1.75-.31-2.6-.53h0c-.85-.22-1.68-.48-2.5-.78h0q-.61-.22-1.2-.48h0c-.23-.09-.45-.19-.66-.29s-.7-.33-1.05-.51l-.4-.2c-.45-.25-.9-.5-1.34-.76l-.09-.06c-.41-.25-.82-.52-1.21-.79l-.38-.27L15.56,53A26.92,26.92,0,0,1,11.89,49.5Z" style="fill: #333"/>
</svg>
