<svg id="e67c0f4f-fb74-4381-b593-624df50c5fad" data-name="Layer 1" xmlns="http://www.w3.org/2000/svg" width="64" height="64" viewBox="0 0 64 64">
  <g id="aadc7f7f-84b1-45fe-8d20-20c516bfe48c" data-name="shield-front">
    <path d="M48.11,3H15.89A7.9,7.9,0,0,0,8,10.44c0,.2,0,.41,0,.64L9.33,41.37a4.81,4.81,0,0,0,0,.52c1.05,10.85,3.44,12,16.68,18.69l3.93,2a4.74,4.74,0,0,0,4,0l3.93-2c13.3-6.67,15.7-7.87,16.76-18.79L56,11.08c0-.23,0-.45,0-.65A7.87,7.87,0,0,0,48.11,3Z" style="fill: #333"/>
    <path d="M51.72,11.18h0v0a.38.38,0,0,0,0-.1.38.38,0,0,0,0-.1v-.09s0-.07,0-.1v-.14a.13.13,0,0,0,0-.06s0,0,0-.06,0,0,0-.06,0,0,0-.06v-.11s0-.08,0-.12l0-.12a.61.61,0,0,1,0-.12l-.06-.11v0l0,0v0l0,0,0-.05,0,0,0-.05,0,0,0,0,0,0s0,0,0,0l0,0,0,0,0-.05,0-.05,0,0,0,0,0,0,0,0,0,0a.1.1,0,0,0,0-.05l0,0,0,0,0-.05,0,0,0,0,0,0,0,0-.06-.06-.07-.06-.07-.06-.07-.06-.12-.08-.12-.08A.47.47,0,0,0,50,8.32l-.12-.07a2.93,2.93,0,0,0-.4-.19,2.39,2.39,0,0,0-.43-.14l-.45-.09a3.55,3.55,0,0,0-.46,0H32.68L32.6,33l-.08,25.19h.26c1.49-.77,2.85-1.47,4.1-2.1l3.38-1.76c1-.53,1.93-1,2.74-1.48s1.53-.89,2.17-1.31a12.91,12.91,0,0,0,2.92-2.46,8,8,0,0,0,1.53-2.85v-.08s0-.06,0-.08,0,0,0-.08l0-.08a.31.31,0,0,1,0-.08l0-.06V45.7l0-.07,0-.06a.29.29,0,0,1,0-.09s0,0,0-.08l0-.09a.31.31,0,0,1,0-.08v-.07l0-.08a.19.19,0,0,1,0-.07v-.08a.09.09,0,0,0,0,0l0-.06s0,0,0-.06,0,0,0-.07a.51.51,0,0,1,0-.09v-.08l0-.1,0-.09a.13.13,0,0,1,0-.06s0,0,0-.07a.13.13,0,0,1,0-.06s0,0,0-.06,0-.07,0-.1,0-.07,0-.1a.36.36,0,0,1,0-.1.34.34,0,0,1,0-.1.13.13,0,0,1,0-.06.17.17,0,0,1,0-.07v-.12s0-.07,0-.11,0-.08,0-.11,0-.08,0-.12a.45.45,0,0,0,0-.11v-.12s0,0,0-.06v-.06l0-.12,0-.13a.57.57,0,0,1,0-.13s0-.08,0-.12,0-.05,0-.07a.13.13,0,0,1,0-.06v0a.13.13,0,0,0,0-.06,1.36,1.36,0,0,1,0-.2,1.5,1.5,0,0,1,0-.2,1.37,1.37,0,0,1,0-.19,1.23,1.23,0,0,1,0-.2v-.1s0,0,0-.06V41l.32-7.39.31-7.38.32-7.39.31-7.38h0v0h0v-.22Z" style="fill: #4d4d4d"/>
  </g>
</svg>
