<?xml version="1.0" encoding="UTF-8"?><svg id="Layer_1" xmlns="http://www.w3.org/2000/svg" viewBox="0 0 64 64"><defs><style>.cls-1{fill:#1a1a1a;}</style></defs><path class="cls-1" d="M50.18,21.43l6.47-6.25-6.25-.11,.11-6.25-6.47,6.25-.07,4.9-1.35,1.3c-.2-.23-.4-.44-.62-.66-2.72-2.72-6.47-4.41-10.6-4.41s-7.88,1.69-10.6,4.41c-2.72,2.72-4.41,6.47-4.41,10.6,0,5.52,3.03,10.38,7.51,12.99v6.39c0,.36,.38,.57,.68,.38,1.19-.8,2.53-1.39,3.96-1.73,0,0,0,0,0,0v1.57h1.96v-1.86c.3-.03,.59-.03,.9-.03s.6,0,.9,.03v1.86h1.96v-1.57s0,0,0,0c1.44,.34,2.77,.93,3.96,1.73,.3,.19,.68-.03,.68-.38v-6.39c1.13-.66,2.18-1.46,3.1-2.39,2.72-2.73,4.41-6.48,4.41-10.6,0-3.13-.97-6.04-2.61-8.44l1.46-1.42,4.93,.07Zm-27.69,10.65h-1.5c0-2.48,2.02-4.5,4.5-4.5v1.51c-1.65,0-3,1.34-3,3Zm4.78,4.97c-1.66,0-3-1.34-3-3s1.34-3,3-3,3,1.35,3,3-1.34,3-3,3Zm5.93,4.23c-.14,.38-.51,.64-.93,.64-.37,0-.71-.21-.87-.52-.17,.31-.5,.52-.87,.52-.43,0-.79-.26-.93-.64-.04-.11-.07-.23-.07-.36,0-.55,.44-.99,1-.99,.37,0,.71,.21,.87,.52,.17-.31,.5-.52,.87-.52,.56,0,1,.44,1,.99,0,.13-.03,.24-.07,.36Zm2.33-4.23c-1.66,0-3-1.34-3-3s1.34-3,3-3,3,1.35,3,3-1.34,3-3,3Zm4.78-4.97c0-1.65-1.35-3-3-3v-1.51c.45,0,.89,.07,1.3,.19,1.86,.56,3.21,2.28,3.21,4.31h-1.5Zm11.73-15.09l-2.62,2.53-2.23-.04,2.61-2.51,2.24,.03Zm-6.13-1.11l2.62-2.53-.03,2.22-2.62,2.53h0s.04-2.23,.04-2.23Z"/><polygon class="cls-1" points="21.49 45.17 20.14 43.76 13.67 49.89 13.75 44.87 11.8 44.84 11.65 53.16 13.61 53.2 13.61 53.2 19.98 53.31 20.01 51.36 15.05 51.27 21.49 45.17"/></svg>