<?xml version="1.0" encoding="UTF-8"?><svg id="Layer_1" xmlns="http://www.w3.org/2000/svg" viewBox="0 0 64 64"><defs><style>.cls-1{fill:#1a1a1a;}</style></defs><path class="cls-1" d="M53.56,20l7.43-7.17-7.18-.13,.13-7.18-7.43,7.17-.08,5.63-1.54,1.5c-.23-.26-.46-.51-.71-.76-3.12-3.12-7.43-5.06-12.17-5.06s-9.05,1.94-12.17,5.06c-3.12,3.12-5.06,7.43-5.06,12.17,0,6.34,3.48,11.92,8.62,14.91v7.34c0,.41,.44,.66,.78,.44,1.37-.92,2.9-1.6,4.55-1.99,0,0,0,0,0,0v1.8h2.25v-2.14c.34-.03,.68-.04,1.03-.04s.69,.01,1.03,.04v2.14h2.25v-1.8s0,0,0,0c1.65,.39,3.18,1.07,4.55,1.99,.34,.22,.78-.03,.78-.44v-7.34c1.3-.76,2.5-1.68,3.56-2.74,3.12-3.13,5.06-7.44,5.06-12.17,0-3.59-1.11-6.93-3-9.69l1.67-1.62,5.66,.08Zm-31.79,12.23h-1.72c0-2.85,2.32-5.17,5.17-5.17v1.73c-1.9,0-3.45,1.54-3.45,3.44Zm5.49,5.71c-1.9,0-3.44-1.54-3.44-3.44s1.54-3.45,3.44-3.45,3.45,1.55,3.45,3.45-1.54,3.44-3.45,3.44Zm6.81,4.86c-.16,.44-.58,.74-1.07,.74-.43,0-.81-.24-1-.6-.19,.36-.57,.6-1,.6-.49,0-.91-.3-1.07-.74-.05-.13-.08-.26-.08-.41,0-.63,.51-1.14,1.15-1.14,.43,0,.81,.24,1,.6,.19-.36,.57-.6,1-.6,.64,0,1.15,.51,1.15,1.14,0,.15-.03,.28-.08,.41Zm2.67-4.86c-1.91,0-3.45-1.54-3.45-3.44s1.54-3.45,3.45-3.45,3.44,1.55,3.44,3.45-1.54,3.44-3.44,3.44Zm5.49-5.71c0-1.9-1.55-3.44-3.45-3.44v-1.73c.52,0,1.02,.08,1.49,.22,2.13,.64,3.68,2.62,3.68,4.95h-1.72Zm13.47-17.32l-3,2.9-2.56-.04,2.99-2.89,2.57,.03Zm-7.03-1.27l3-2.9-.03,2.55-3.01,2.91h0s.04-2.56,.04-2.56Z"/><polygon class="cls-1" points="20.62 47.26 19.07 45.64 11.63 52.68 11.73 46.92 9.49 46.88 9.32 56.44 11.57 56.48 11.57 56.48 18.88 56.61 18.92 54.36 13.23 54.26 20.62 47.26"/></svg>