<svg id="a473784e-2bba-402b-905a-0714430792b7" data-name="Layer 1" xmlns="http://www.w3.org/2000/svg" width="64" height="64" viewBox="0 0 64 64">
  <g>
    <polygon points="46.75 21.05 43.45 23.79 49.98 31.56 26.22 29.45 23.58 33.51 49.6 35.82 49.61 35.82 41.77 42.32 44.53 45.6 58 34.43 46.75 21.05" style="fill: #333"/>
    <polygon points="18.15 28.73 6.37 27.68 6 31.94 15.51 32.78 18.15 28.73" style="fill: #333"/>
    <path d="M23.52,38.08l-5-.69,2.67-4.09,2.64-4.07,3.55-5.48a8.39,8.39,0,0,0,1.22.31h0a2.62,2.62,0,0,0,.57.11,11.32,11.32,0,0,0,1.74.13,11.52,11.52,0,0,0,7.43-2.73,11.26,11.26,0,0,0,3.9-7A11.48,11.48,0,1,0,23,21.2a9.45,9.45,0,0,0,1.7,1.32L20.56,29,17.92,33l-4.29,6.59,9.5,1.32ZM32.18,4.45a8.58,8.58,0,0,1,7,6.36L23.56,8.44a8.63,8.63,0,0,1,7.33-4.09A8,8,0,0,1,32.18,4.45Zm3.49,8.74A1.44,1.44,0,0,1,34,14.38a1.41,1.41,0,0,1-1.21-1.62,1.44,1.44,0,0,1,2.84.43Zm-6.38-1a1.45,1.45,0,0,1-1.64,1.2,1.43,1.43,0,0,1-1.2-1.63,1.41,1.41,0,0,1,1.63-1.18A1.43,1.43,0,0,1,29.29,12.22Zm9.38,4.33a8.62,8.62,0,0,1-16.3-2.45Z" style="fill: #333"/>
    <polygon points="35.81 42.1 27.42 38.97 18.54 61.24 26.86 62.5 27.3 59.68 22.54 58.96 29.05 42.62 32.06 43.75 27.42 55.38 35.74 56.63 36.18 53.81 31.42 53.1 35.81 42.1" style="fill: #333"/>
  </g>
</svg>
