<svg id="b2d147d3-85c5-4148-9974-0b35e3d55462" data-name="Layer 1" xmlns="http://www.w3.org/2000/svg" width="64" height="64" viewBox="0 0 64 64">
  <g>
    <g>
      <path d="M1.62,12.59H.08V11.54H4.34v1.05H2.8v4.34H1.62Z" style="fill: #333"/>
      <path d="M24,11.54h1.19v2h2.31v-2h1.19v5.39H27.48V14.6H25.17v2.33H24Z" style="fill: #333"/>
      <path d="M11.34,22.89h2.09a4,4,0,0,1,.78.08,1.9,1.9,0,0,1,.65.27,1.34,1.34,0,0,1,.44.5,1.68,1.68,0,0,1,.16.79,1.64,1.64,0,0,1-.29,1,1.33,1.33,0,0,1-.87.51l1.37,2.27H14.25l-1.13-2.15h-.59v2.15H11.34Zm1.19,2.23h1a1,1,0,0,0,.32-.07.49.49,0,0,0,.25-.18.55.55,0,0,0,.09-.34.67.67,0,0,0-.08-.33.55.55,0,0,0-.22-.18.82.82,0,0,0-.29-.09,1.88,1.88,0,0,0-.33,0h-.78Z" style="fill: #333"/>
      <path d="M35.36,22.89H39V24H36.55v1h2.34v1.1H36.55v1.1h2.61v1.09h-3.8Z" style="fill: #333"/>
      <path d="M59.2,22.89h3.66V24H60.39v1h2.33v1.1H60.39v1.1H63v1.09H59.2Z" style="fill: #333"/>
    </g>
    <g>
      <path d="M2.33,35.58h1L5.66,41H4.32l-.47-1.14H1.76L1.31,41H0Zm.46,1.57-.66,1.67H3.45Z" style="fill: #333"/>
      <path d="M25.24,35.58h2.08a3.81,3.81,0,0,1,.78.08,1.66,1.66,0,0,1,.65.27,1.26,1.26,0,0,1,.44.5,1.68,1.68,0,0,1,.17.79,1.58,1.58,0,0,1-.3,1,1.36,1.36,0,0,1-.87.5L29.56,41H28.14L27,38.82h-.59V41H25.24Zm1.18,2.23h1a1.14,1.14,0,0,0,.33-.07.69.69,0,0,0,.24-.18.55.55,0,0,0,.09-.34.54.54,0,0,0-.08-.33.76.76,0,0,0-.21-.19,1,1,0,0,0-.3-.08l-.33,0h-.78Z" style="fill: #333"/>
      <path d="M49.21,35.58H51.3a4,4,0,0,1,.78.08,1.67,1.67,0,0,1,.64.27,1.28,1.28,0,0,1,.45.5,1.82,1.82,0,0,1,.16.79,1.58,1.58,0,0,1-.3,1,1.34,1.34,0,0,1-.87.5L53.54,41H52.11L51,38.82H50.4V41H49.21Zm1.19,2.23h1a1.07,1.07,0,0,0,.32-.07.52.52,0,0,0,.34-.52.54.54,0,0,0-.09-.33.55.55,0,0,0-.21-.19,1,1,0,0,0-.3-.08l-.33,0H50.4Z" style="fill: #333"/>
      <path d="M10.47,49.63a3.14,3.14,0,0,1,.21-1.18A2.62,2.62,0,0,1,12.21,47a3.32,3.32,0,0,1,1.16-.2,3.38,3.38,0,0,1,1.17.2,2.62,2.62,0,0,1,1.53,1.46,3.39,3.39,0,0,1,0,2.35,2.62,2.62,0,0,1-1.53,1.46,3.38,3.38,0,0,1-1.17.2,3.32,3.32,0,0,1-1.16-.2,2.62,2.62,0,0,1-1.53-1.46A3.13,3.13,0,0,1,10.47,49.63Zm1.23,0a1.92,1.92,0,0,0,.12.69,1.55,1.55,0,0,0,.34.55,1.32,1.32,0,0,0,.53.36,1.87,1.87,0,0,0,1.37,0,1.32,1.32,0,0,0,.53-.36,1.55,1.55,0,0,0,.34-.55,1.92,1.92,0,0,0,.12-.69,2,2,0,0,0-.12-.7,1.64,1.64,0,0,0-.34-.55,1.55,1.55,0,0,0-.53-.36,1.87,1.87,0,0,0-1.37,0,1.55,1.55,0,0,0-.53.36,1.64,1.64,0,0,0-.34.55A2,2,0,0,0,11.7,49.63Z" style="fill: #333"/>
      <path d="M35.57,46.93h1.29l.86,3.46h0l1.12-3.46H40l1.12,3.55h0L42,46.93h1.2l-1.58,5.39H40.58l-1.19-3.73h0l-1.19,3.73h-1Z" style="fill: #333"/>
      <path d="M63.18,48.25a.91.91,0,0,0-.39-.27,1.44,1.44,0,0,0-.47-.09,1.24,1.24,0,0,0-.27,0,1.14,1.14,0,0,0-.26.09.7.7,0,0,0-.2.18.41.41,0,0,0-.07.25.44.44,0,0,0,.18.38,2,2,0,0,0,.46.22l.6.18a2.66,2.66,0,0,1,.6.26,1.41,1.41,0,0,1,.46.45,1.39,1.39,0,0,1,.18.75,1.8,1.8,0,0,1-.17.79,1.52,1.52,0,0,1-.45.55,1.86,1.86,0,0,1-.66.33,3,3,0,0,1-.8.11,3,3,0,0,1-1-.16,2.5,2.5,0,0,1-.84-.52l.84-.93a1.4,1.4,0,0,0,.46.38,1.33,1.33,0,0,0,.58.13,1.43,1.43,0,0,0,.29,0,1.09,1.09,0,0,0,.27-.11.52.52,0,0,0,.19-.17.43.43,0,0,0,.07-.25.48.48,0,0,0-.18-.39,2.29,2.29,0,0,0-.47-.24L61.55,50a3.05,3.05,0,0,1-.61-.27,1.41,1.41,0,0,1-.47-.44,1.31,1.31,0,0,1-.19-.73,1.55,1.55,0,0,1,.18-.76,1.6,1.6,0,0,1,.45-.55,2.27,2.27,0,0,1,.66-.33,2.87,2.87,0,0,1,.77-.11,3.23,3.23,0,0,1,.88.13,2,2,0,0,1,.77.44Z" style="fill: #333"/>
    </g>
  </g>
</svg>
