<svg id="fffdf393-b6a0-455f-bf6b-5110d54826e7" data-name="Layer 1" xmlns="http://www.w3.org/2000/svg" width="64" height="64" viewBox="0 0 64 64">
  <g>
    <g>
      <path d="M7.58,28.77H6.81v-.52H8.93v.52H8.17v2.16H7.58Z" style="fill: #333"/>
      <path d="M18.7,28.25h.59v1h1.15v-1H21v2.68h-.59V29.77H19.29v1.16H18.7Z" style="fill: #333"/>
      <path d="M31,28.25h1a1.67,1.67,0,0,1,.39,0,.83.83,0,0,1,.32.13.67.67,0,0,1,.22.25.87.87,0,0,1,.08.39.76.76,0,0,1-.15.48.66.66,0,0,1-.43.26l.68,1.13h-.71l-.56-1.07h-.29v1.07H31Zm.59,1.11h.52a.41.41,0,0,0,.16,0,.27.27,0,0,0,.12-.09.31.31,0,0,0,0-.34.22.22,0,0,0-.1-.09l-.15,0h-.55Z" style="fill: #333"/>
      <path d="M43,28.25h1.82v.54H43.58v.5h1.16v.55H43.58v.54h1.29v.55H43Z" style="fill: #333"/>
      <path d="M54.84,28.25h1.82v.54H55.43v.5h1.16v.55H55.43v.54h1.3v.55H54.84Z" style="fill: #333"/>
    </g>
    <g>
      <path d="M1.16,33h.49l1.16,2.69H2.15l-.23-.57h-1l-.22.57H0Zm.23.78-.33.84h.66Z" style="fill: #333"/>
      <path d="M12.55,33h1A2.58,2.58,0,0,1,14,33a1,1,0,0,1,.32.14.67.67,0,0,1,.22.25.87.87,0,0,1,.08.39.76.76,0,0,1-.15.48.65.65,0,0,1-.43.25l.68,1.14H14l-.56-1.08h-.29v1.08h-.59Zm.59,1.11h.52l.16,0a.2.2,0,0,0,.12-.08.32.32,0,0,0,.05-.18.28.28,0,0,0-.05-.16.22.22,0,0,0-.1-.09.37.37,0,0,0-.15,0l-.16,0h-.39Z" style="fill: #333"/>
      <path d="M24.47,33h1a2.45,2.45,0,0,1,.39,0,1,1,0,0,1,.32.14.67.67,0,0,1,.22.25.87.87,0,0,1,.08.39.76.76,0,0,1-.15.48.65.65,0,0,1-.43.25l.68,1.14h-.71l-.56-1.08h-.29v1.08h-.59Zm.59,1.11h.52l.16,0a.2.2,0,0,0,.12-.08.32.32,0,0,0,.05-.18.38.38,0,0,0,0-.16.31.31,0,0,0-.11-.09.33.33,0,0,0-.15,0l-.16,0h-.39Z" style="fill: #333"/>
      <path d="M36.25,34.34a1.4,1.4,0,0,1,.11-.58,1.23,1.23,0,0,1,.3-.44,1.29,1.29,0,0,1,.46-.29,1.76,1.76,0,0,1,.58-.09,1.81,1.81,0,0,1,.58.09,1.34,1.34,0,0,1,.45.29,1.23,1.23,0,0,1,.3.44,1.4,1.4,0,0,1,.11.58,1.41,1.41,0,0,1-.11.59,1.23,1.23,0,0,1-.3.44,1.34,1.34,0,0,1-.45.29,1.81,1.81,0,0,1-.58.09,1.76,1.76,0,0,1-.58-.09,1.29,1.29,0,0,1-.46-.29,1.23,1.23,0,0,1-.3-.44A1.41,1.41,0,0,1,36.25,34.34Zm.61,0a1,1,0,0,0,.06.35.73.73,0,0,0,.17.27.68.68,0,0,0,.26.18.81.81,0,0,0,.35.07.77.77,0,0,0,.34-.07A.68.68,0,0,0,38.3,35a.73.73,0,0,0,.17-.27,1,1,0,0,0,.06-.35,1,1,0,0,0-.06-.34.73.73,0,0,0-.17-.27.68.68,0,0,0-.26-.18.77.77,0,0,0-.34-.07.81.81,0,0,0-.35.07.68.68,0,0,0-.26.18.73.73,0,0,0-.17.27A1,1,0,0,0,36.86,34.34Z" style="fill: #333"/>
      <path d="M48.73,33h.64l.43,1.72h0L50.37,33h.55l.56,1.77h0L51.93,33h.6l-.78,2.69h-.53l-.59-1.86h0L50,35.69h-.5Z" style="fill: #333"/>
      <path d="M63.59,33.66a.36.36,0,0,0-.19-.13.74.74,0,0,0-.24-.05l-.13,0-.13,0a.43.43,0,0,0-.1.09.25.25,0,0,0,0,.13.2.2,0,0,0,.09.18.62.62,0,0,0,.23.11l.29.09a1.36,1.36,0,0,1,.3.13.72.72,0,0,1,.23.23.65.65,0,0,1,.09.37.93.93,0,0,1-.08.39.89.89,0,0,1-.23.28.85.85,0,0,1-.33.16,1.27,1.27,0,0,1-.39,0,1.29,1.29,0,0,1-.49-.08,1.14,1.14,0,0,1-.42-.25l.42-.47a.59.59,0,0,0,.23.19.62.62,0,0,0,.29.07l.15,0,.13,0a.2.2,0,0,0,.09-.09.16.16,0,0,0,0-.12.22.22,0,0,0-.09-.19.77.77,0,0,0-.24-.12,2.11,2.11,0,0,0-.3-.1,1.36,1.36,0,0,1-.3-.13.84.84,0,0,1-.24-.22.64.64,0,0,1-.09-.36.76.76,0,0,1,.09-.38.73.73,0,0,1,.22-.27,1,1,0,0,1,.33-.17,1.24,1.24,0,0,1,.38-.05,1.56,1.56,0,0,1,.44.06,1.09,1.09,0,0,1,.39.22Z" style="fill: #333"/>
    </g>
  </g>
</svg>
