<svg id="ba515596-cd72-46c9-9f2d-90741cbbc1e8" data-name="Layer 1" xmlns="http://www.w3.org/2000/svg" width="64" height="64" viewBox="0 0 64 64">
  <g>
    <g>
      <path d="M1,23.7A3.1,3.1,0,0,1,3.23,23a3.67,3.67,0,0,1,1.59.31,2.26,2.26,0,0,1,1,.87,2.23,2.23,0,0,1,.34,1.23,1.89,1.89,0,0,1-1.27,1.92v.05a2,2,0,0,1,1.42,2A2.45,2.45,0,0,1,6,30.65a2.33,2.33,0,0,1-1,.9,3.59,3.59,0,0,1-1.56.32A3.63,3.63,0,0,1,1,31.14a2.93,2.93,0,0,1-.9-2.3H2.64a1,1,0,0,0,.12.65.59.59,0,0,0,.51.22.47.47,0,0,0,.36-.16.64.64,0,0,0,.14-.42.61.61,0,0,0-.22-.51,1.24,1.24,0,0,0-.74-.17H2.38V26.34H2.8c.54,0,.81-.18.81-.64a.68.68,0,0,0-.13-.44.41.41,0,0,0-.31-.14c-.29,0-.44.24-.44.73H.18A2.89,2.89,0,0,1,1,23.7Z" style="fill: #333"/>
      <path d="M12.28,30.52H9.49l-.41,1.27H6.33l3.06-8.37h3l3.05,8.37H12.7Zm-.63-2-.76-2.33-.76,2.33Z" style="fill: #333"/>
      <path d="M19.67,31.79l-1.57-3h0v3H15.46V23.42h3.91a3.84,3.84,0,0,1,1.73.36,2.43,2.43,0,0,1,1.09,1,2.73,2.73,0,0,1,.36,1.4,2.49,2.49,0,0,1-.47,1.49,2.59,2.59,0,0,1-1.34.93l1.82,3.21ZM18.09,27h1a.81.81,0,0,0,.57-.17.82.82,0,0,0,0-1.06.8.8,0,0,0-.56-.18h-1Z" style="fill: #333"/>
      <path d="M27,31.79l-1.57-3h0v3H22.8V23.42h3.9a3.89,3.89,0,0,1,1.74.36,2.46,2.46,0,0,1,1.08,1,2.73,2.73,0,0,1,.36,1.4,2.49,2.49,0,0,1-.47,1.49,2.59,2.59,0,0,1-1.34.93l1.82,3.21ZM25.42,27h1a.81.81,0,0,0,.57-.17.82.82,0,0,0,0-1.06.8.8,0,0,0-.56-.18h-1Z" style="fill: #333"/>
      <path d="M32,31.31a4.12,4.12,0,0,1-1.57-1.53,4.5,4.5,0,0,1,0-4.42A4.07,4.07,0,0,1,32,23.82a4.54,4.54,0,0,1,4.33,0,4.09,4.09,0,0,1,1.55,1.54,4.5,4.5,0,0,1,0,4.42,4.09,4.09,0,0,1-1.56,1.53,4.45,4.45,0,0,1-4.32,0Zm3.37-2.39a2,2,0,0,0,.43-1.35,2.08,2.08,0,0,0-.43-1.37,1.71,1.71,0,0,0-2.42,0,2,2,0,0,0-.43,1.37A2,2,0,0,0,33,28.92a1.71,1.71,0,0,0,2.42,0Z" style="fill: #333"/>
      <path d="M50.41,23.42,48.5,31.79H45.23l-1-4.76-1,4.76H40l-1.91-8.37h2.82l.76,5.27,1.13-5.27h2.86l1.14,5.27.76-5.27Z" style="fill: #333"/>
      <path d="M51.56,31.17a2.58,2.58,0,0,1-1.05-2.07H53.3q.06.72.63.72a.62.62,0,0,0,.37-.1.36.36,0,0,0,.14-.31.53.53,0,0,0-.32-.48,6.6,6.6,0,0,0-1-.42A10.81,10.81,0,0,1,51.8,28a2.53,2.53,0,0,1-.9-.8,2.08,2.08,0,0,1-.37-1.33A2.27,2.27,0,0,1,51,24.44a2.61,2.61,0,0,1,1.15-.87,4.23,4.23,0,0,1,1.63-.3,3.9,3.9,0,0,1,2.45.71,2.54,2.54,0,0,1,1,2H54.3a.74.74,0,0,0-.18-.51.57.57,0,0,0-.4-.15.37.37,0,0,0-.27.11.46.46,0,0,0-.11.32.54.54,0,0,0,.32.46,8.13,8.13,0,0,0,1,.45,10.69,10.69,0,0,1,1.3.56,2.83,2.83,0,0,1,.9.76,1.93,1.93,0,0,1,.37,1.22,2.59,2.59,0,0,1-.37,1.38,2.63,2.63,0,0,1-1.1,1,4,4,0,0,1-1.72.34A4.13,4.13,0,0,1,51.56,31.17Z" style="fill: #333"/>
    </g>
    <g>
      <path d="M5.37,35.44a1,1,0,0,0-.44-.38,1.6,1.6,0,0,0-.69-.14,1.45,1.45,0,0,0-1.17.49,2.49,2.49,0,0,0,.05,2.81,1.89,1.89,0,0,0,1.42.48A1.75,1.75,0,0,0,6,38H3.91V36.11H8.18v2.63a5,5,0,0,1-1.5,1.6A4.11,4.11,0,0,1,4.26,41,4.57,4.57,0,0,1,2,40.47,3.71,3.71,0,0,1,.51,39,4.65,4.65,0,0,1,0,36.75a4.71,4.71,0,0,1,.51-2.21A3.77,3.77,0,0,1,2,33a4.55,4.55,0,0,1,2.24-.53,4.27,4.27,0,0,1,2.68.79,3.11,3.11,0,0,1,1.22,2.15Z" style="fill: #333"/>
      <path d="M13.9,39.69H11.11L10.7,41H8L11,32.58h3l3,8.37H14.32Zm-.63-2-.76-2.33-.76,2.33Z" style="fill: #333"/>
      <path d="M27.15,32.58V41H24.53V36.78L23.24,41H21l-1.29-4.17V41H17.08V32.58H20.3l1.85,5,1.79-5Z" style="fill: #333"/>
      <path d="M30.36,34.67v1H33v2h-2.6v1.18h3V41H27.74V32.58h5.58v2.09Z" style="fill: #333"/>
      <path d="M33.92,40.68a1.26,1.26,0,0,1,0-1.86,1.77,1.77,0,0,1,2.19,0,1.26,1.26,0,0,1,0,1.86,1.85,1.85,0,0,1-2.19,0Z" style="fill: #333"/>
      <path d="M37.17,34.54A3.65,3.65,0,0,1,38.6,33a4.45,4.45,0,0,1,2.2-.53,4.5,4.5,0,0,1,2,.4,3.66,3.66,0,0,1,1.39,1.16,4.12,4.12,0,0,1,.72,1.74H42.09a1.39,1.39,0,0,0-.54-.65,1.43,1.43,0,0,0-.79-.23,1.25,1.25,0,0,0-1,.5,2.08,2.08,0,0,0-.39,1.33,2.11,2.11,0,0,0,.39,1.34,1.25,1.25,0,0,0,1,.5,1.42,1.42,0,0,0,1.33-.88h2.77a4.23,4.23,0,0,1-.72,1.74,3.55,3.55,0,0,1-1.39,1.15,4.5,4.5,0,0,1-2,.41,4.35,4.35,0,0,1-2.2-.54A3.59,3.59,0,0,1,37.17,39a4.65,4.65,0,0,1-.51-2.21A4.71,4.71,0,0,1,37.17,34.54Z" style="fill: #333"/>
      <path d="M47.12,40.48a4.12,4.12,0,0,1-1.56-1.54,4.5,4.5,0,0,1,0-4.42A4,4,0,0,1,47.12,33a4.56,4.56,0,0,1,4.34,0A4,4,0,0,1,53,34.52a4.57,4.57,0,0,1,0,4.42,4.12,4.12,0,0,1-1.56,1.54,4.54,4.54,0,0,1-4.33,0Zm3.38-2.4a2,2,0,0,0,.42-1.35,2.08,2.08,0,0,0-.42-1.37,1.73,1.73,0,0,0-2.43,0,2.08,2.08,0,0,0-.42,1.37,2,2,0,0,0,.42,1.35,1.7,1.7,0,0,0,2.43,0Z" style="fill: #333"/>
      <path d="M64,32.58V41H61.39V36.78L60.1,41H57.85l-1.29-4.17V41H53.94V32.58h3.21l1.85,5,1.8-5Z" style="fill: #333"/>
    </g>
  </g>
</svg>
