<?xml version="1.0" encoding="UTF-8"?><svg id="Layer_1" xmlns="http://www.w3.org/2000/svg" viewBox="0 0 64 64"><defs><style>.cls-1{fill:#1a1a1a;}</style></defs><path class="cls-1" d="M32.09,63c-17.6-.19-31.06-13.93-31.09-30.91C.97,14.8,14.48,1.81,30.49,1.04,47.97,.19,62.86,13.89,63,31.95c.13,16.93-13.8,30.93-30.91,31.05ZM35.34,3.86C25.92,2.39,11.53,6.91,5.68,21.26c-5.57,13.65,.1,29.01,13.01,35.83,13.06,6.9,29.3,2.63,37.16-9.63,7.84-12.23,4.54-26.6-2.4-33.94-.75,1.85-1.49,3.69-2.23,5.53-.75,1.87-2.02,3.26-3.96,3.87-1,.32-2.07,.42-3.11,.59-1.21,.19-2.42,.34-3.72,.52,.45,.9,.82,1.69,1.23,2.45,.08,.14,.3,.26,.47,.3,.3,.06,.62,.04,.92,.08,1.88,.26,2.85,1.93,2.03,3.65-1.17,2.47-2.45,4.89-3.62,7.36-.28,.58-.43,1.27-.45,1.91-.06,1.83-.01,3.67-.02,5.5,0,1.74-.64,3.25-1.94,4.4-1.74,1.54-3.54,3.02-5.35,4.47-1.09,.88-2.59,.74-3.49-.31-1.4-1.63-2.77-3.27-4.1-4.95-1.2-1.51-1.85-3.33-1.22-5.14,.77-2.18,.17-3.94-.93-5.71-.08-.13-.11-.32-.21-.41-.23-.18-.49-.45-.75-.45-1.45-.05-2.9,.05-4.34-.06-2.69-.2-4.65-1.56-5.6-4.09-.76-2.02-1.33-4.12-1.95-6.19-.26-.88-.05-1.69,.55-2.38,1.59-1.83,3.14-3.71,4.8-5.48,1.47-1.57,3.39-2.27,5.49-1.82,2.7,.59,5.41,.71,8.15,.65,1.19-.03,2.38,0,3.57,0h.98c-.07-1.37-.04-2.67-.24-3.93-.2-1.21-1.03-2.05-2.14-2.58-.46-.22-.96-.4-1.39-.68-1.12-.73-1.48-2.23-.74-3.34,.32-.47,.81-.87,1.3-1.17,1.22-.76,2.49-1.45,3.89-2.25Zm-2.95,4.66c.52,.24,.91,.38,1.27,.58,2.1,1.16,3.3,2.92,3.45,5.33,.07,1.11,.03,2.22,.02,3.33-.02,1.56-1.05,2.62-2.62,2.64-1.58,.02-3.15,0-4.73,0-2.58,.03-5.16,.06-7.68-.64-1.59-.44-2.96,.03-4.04,1.27-1.37,1.58-2.75,3.15-4.1,4.75-.16,.19-.26,.58-.19,.81,.51,1.76,1.03,3.51,1.61,5.25,.58,1.73,1.93,2.67,3.74,2.68,1.34,0,2.69,0,4.03,0,1.35,0,2.33,.53,2.88,1.8,.22,.52,.5,1.02,.75,1.52,1.7,3.43,1.51,2.42,.71,5.83-.01,.05-.02,.1-.03,.15-.37,1.35-.08,2.55,.81,3.61,1.21,1.45,2.41,2.9,3.61,4.35,.08,.09,.19,.16,.31,.27,1.67-1.4,3.31-2.77,4.94-4.15,.79-.67,1.24-1.54,1.26-2.56,.05-2.06,.02-4.13,.08-6.19,.02-.65,.15-1.34,.43-1.93,1.11-2.36,2.29-4.68,3.45-7.01,.12-.25,.22-.5,.38-.85-.43,0-.77,.02-1.09,0-.88-.07-1.6-.43-2.03-1.23-.54-1.02-1.09-2.05-1.55-3.12-.7-1.62,.22-3.26,1.96-3.55,1.76-.28,3.52-.54,5.29-.75,1.71-.2,2.86-1.07,3.49-2.66,.84-2.08,1.67-4.16,2.52-6.23,.15-.36,.12-.59-.18-.86-3.28-2.94-7.02-5.06-11.26-6.27-.25-.07-.6-.11-.8,0-2.21,1.23-4.39,2.49-6.7,3.8Z"/></svg>